  0
SECTION
  2
BLOCKS
  0
ENDSEC
  0
SECTION
  2
ENTITIES
  0
LINE
  8
0
 10
235
 11
235
 20
-201.5
 21
-157.5
  0
LINE
  8
0
 10
235
 11
242
 20
-157.5
 21
-157.5
  0
LINE
  8
0
 10
242
 11
242
 20
-157.5
 21
-157.61
  0
LINE
  8
0
 10
242
 11
244.091
 20
-157.61
 21
-157.61
  0
LINE
  8
0
 10
244.091
 11
248.18
 20
-157.61
 21
-158.479
  0
LINE
  8
0
 10
248.18
 11
252
 20
-158.479
 21
-160.179
  0
LINE
  8
0
 10
252
 11
255.383
 20
-160.179
 21
-162.637
  0
LINE
  8
0
 10
255.383
 11
258.18
 20
-162.637
 21
-165.744
  0
LINE
  8
0
 10
258.18
 11
260.271
 20
-165.744
 21
-169.365
  0
LINE
  8
0
 10
260.271
 11
261.563
 20
-169.365
 21
-173.342
  0
LINE
  8
0
 10
261.563
 11
262
 20
-173.342
 21
-177.5
  0
LINE
  8
0
 10
262
 11
262
 20
-177.5
 21
-196.5
  0
LINE
  8
0
 10
262
 11
261.619
 20
-196.5
 21
-198.413
  0
LINE
  8
0
 10
261.619
 11
260.536
 20
-198.413
 21
-200.036
  0
LINE
  8
0
 10
260.536
 11
258.913
 20
-200.036
 21
-201.119
  0
LINE
  8
0
 10
258.913
 11
257
 20
-201.119
 21
-201.5
  0
LINE
  8
0
 10
257
 11
235
 20
-201.5
 21
-201.5
  0
LINE
  8
0
 10
235
 11
235
 20
157.5
 21
201.5
  0
LINE
  8
0
 10
235
 11
257
 20
201.5
 21
201.5
  0
LINE
  8
0
 10
257
 11
258.913
 20
201.5
 21
201.119
  0
LINE
  8
0
 10
258.913
 11
260.536
 20
201.119
 21
200.036
  0
LINE
  8
0
 10
260.536
 11
261.619
 20
200.036
 21
198.413
  0
LINE
  8
0
 10
261.619
 11
262
 20
198.413
 21
196.5
  0
LINE
  8
0
 10
262
 11
262
 20
196.5
 21
177.5
  0
LINE
  8
0
 10
262
 11
261.563
 20
177.5
 21
173.342
  0
LINE
  8
0
 10
261.563
 11
260.271
 20
173.342
 21
169.365
  0
LINE
  8
0
 10
260.271
 11
258.18
 20
169.365
 21
165.744
  0
LINE
  8
0
 10
258.18
 11
255.383
 20
165.744
 21
162.637
  0
LINE
  8
0
 10
255.383
 11
252
 20
162.637
 21
160.179
  0
LINE
  8
0
 10
252
 11
248.18
 20
160.179
 21
158.479
  0
LINE
  8
0
 10
248.18
 11
244.091
 20
158.479
 21
157.61
  0
LINE
  8
0
 10
244.091
 11
242
 20
157.61
 21
157.61
  0
LINE
  8
0
 10
242
 11
242
 20
157.61
 21
157.5
  0
LINE
  8
0
 10
242
 11
235
 20
157.5
 21
157.5
  0
LINE
  8
0
 10
239.4
 11
239.478
 20
-190.5
 21
-190.006
  0
LINE
  8
0
 10
239.478
 11
239.706
 20
-190.006
 21
-189.56
  0
LINE
  8
0
 10
239.706
 11
240.06
 20
-189.56
 21
-189.206
  0
LINE
  8
0
 10
240.06
 11
240.506
 20
-189.206
 21
-188.978
  0
LINE
  8
0
 10
240.506
 11
241
 20
-188.978
 21
-188.9
  0
LINE
  8
0
 10
241
 11
241.494
 20
-188.9
 21
-188.978
  0
LINE
  8
0
 10
241.494
 11
241.94
 20
-188.978
 21
-189.206
  0
LINE
  8
0
 10
241.94
 11
242.294
 20
-189.206
 21
-189.56
  0
LINE
  8
0
 10
242.294
 11
242.522
 20
-189.56
 21
-190.006
  0
LINE
  8
0
 10
242.522
 11
242.6
 20
-190.006
 21
-190.5
  0
LINE
  8
0
 10
242.6
 11
242.522
 20
-190.5
 21
-190.994
  0
LINE
  8
0
 10
242.522
 11
242.294
 20
-190.994
 21
-191.44
  0
LINE
  8
0
 10
242.294
 11
241.94
 20
-191.44
 21
-191.794
  0
LINE
  8
0
 10
241.94
 11
241.494
 20
-191.794
 21
-192.022
  0
LINE
  8
0
 10
241.494
 11
241
 20
-192.022
 21
-192.1
  0
LINE
  8
0
 10
241
 11
240.506
 20
-192.1
 21
-192.022
  0
LINE
  8
0
 10
240.506
 11
240.06
 20
-192.022
 21
-191.794
  0
LINE
  8
0
 10
240.06
 11
239.706
 20
-191.794
 21
-191.44
  0
LINE
  8
0
 10
239.706
 11
239.478
 20
-191.44
 21
-190.994
  0
LINE
  8
0
 10
239.478
 11
239.4
 20
-190.994
 21
-190.5
  0
LINE
  8
0
 10
239.4
 11
239.478
 20
-165.5
 21
-165.006
  0
LINE
  8
0
 10
239.478
 11
239.706
 20
-165.006
 21
-164.56
  0
LINE
  8
0
 10
239.706
 11
240.06
 20
-164.56
 21
-164.206
  0
LINE
  8
0
 10
240.06
 11
240.506
 20
-164.206
 21
-163.978
  0
LINE
  8
0
 10
240.506
 11
241
 20
-163.978
 21
-163.9
  0
LINE
  8
0
 10
241
 11
241.494
 20
-163.9
 21
-163.978
  0
LINE
  8
0
 10
241.494
 11
241.94
 20
-163.978
 21
-164.206
  0
LINE
  8
0
 10
241.94
 11
242.294
 20
-164.206
 21
-164.56
  0
LINE
  8
0
 10
242.294
 11
242.522
 20
-164.56
 21
-165.006
  0
LINE
  8
0
 10
242.522
 11
242.6
 20
-165.006
 21
-165.5
  0
LINE
  8
0
 10
242.6
 11
242.522
 20
-165.5
 21
-165.994
  0
LINE
  8
0
 10
242.522
 11
242.294
 20
-165.994
 21
-166.44
  0
LINE
  8
0
 10
242.294
 11
241.94
 20
-166.44
 21
-166.794
  0
LINE
  8
0
 10
241.94
 11
241.494
 20
-166.794
 21
-167.022
  0
LINE
  8
0
 10
241.494
 11
241
 20
-167.022
 21
-167.1
  0
LINE
  8
0
 10
241
 11
240.506
 20
-167.1
 21
-167.022
  0
LINE
  8
0
 10
240.506
 11
240.06
 20
-167.022
 21
-166.794
  0
LINE
  8
0
 10
240.06
 11
239.706
 20
-166.794
 21
-166.44
  0
LINE
  8
0
 10
239.706
 11
239.478
 20
-166.44
 21
-165.994
  0
LINE
  8
0
 10
239.478
 11
239.4
 20
-165.994
 21
-165.5
  0
LINE
  8
0
 10
239.4
 11
239.478
 20
165.5
 21
165.994
  0
LINE
  8
0
 10
239.478
 11
239.706
 20
165.994
 21
166.44
  0
LINE
  8
0
 10
239.706
 11
240.06
 20
166.44
 21
166.794
  0
LINE
  8
0
 10
240.06
 11
240.506
 20
166.794
 21
167.022
  0
LINE
  8
0
 10
240.506
 11
241
 20
167.022
 21
167.1
  0
LINE
  8
0
 10
241
 11
241.494
 20
167.1
 21
167.022
  0
LINE
  8
0
 10
241.494
 11
241.94
 20
167.022
 21
166.794
  0
LINE
  8
0
 10
241.94
 11
242.294
 20
166.794
 21
166.44
  0
LINE
  8
0
 10
242.294
 11
242.522
 20
166.44
 21
165.994
  0
LINE
  8
0
 10
242.522
 11
242.6
 20
165.994
 21
165.5
  0
LINE
  8
0
 10
242.6
 11
242.522
 20
165.5
 21
165.006
  0
LINE
  8
0
 10
242.522
 11
242.294
 20
165.006
 21
164.56
  0
LINE
  8
0
 10
242.294
 11
241.94
 20
164.56
 21
164.206
  0
LINE
  8
0
 10
241.94
 11
241.494
 20
164.206
 21
163.978
  0
LINE
  8
0
 10
241.494
 11
241
 20
163.978
 21
163.9
  0
LINE
  8
0
 10
241
 11
240.506
 20
163.9
 21
163.978
  0
LINE
  8
0
 10
240.506
 11
240.06
 20
163.978
 21
164.206
  0
LINE
  8
0
 10
240.06
 11
239.706
 20
164.206
 21
164.56
  0
LINE
  8
0
 10
239.706
 11
239.478
 20
164.56
 21
165.006
  0
LINE
  8
0
 10
239.478
 11
239.4
 20
165.006
 21
165.5
  0
LINE
  8
0
 10
239.4
 11
239.478
 20
190.5
 21
190.994
  0
LINE
  8
0
 10
239.478
 11
239.706
 20
190.994
 21
191.44
  0
LINE
  8
0
 10
239.706
 11
240.06
 20
191.44
 21
191.794
  0
LINE
  8
0
 10
240.06
 11
240.506
 20
191.794
 21
192.022
  0
LINE
  8
0
 10
240.506
 11
241
 20
192.022
 21
192.1
  0
LINE
  8
0
 10
241
 11
241.494
 20
192.1
 21
192.022
  0
LINE
  8
0
 10
241.494
 11
241.94
 20
192.022
 21
191.794
  0
LINE
  8
0
 10
241.94
 11
242.294
 20
191.794
 21
191.44
  0
LINE
  8
0
 10
242.294
 11
242.522
 20
191.44
 21
190.994
  0
LINE
  8
0
 10
242.522
 11
242.6
 20
190.994
 21
190.5
  0
LINE
  8
0
 10
242.6
 11
242.522
 20
190.5
 21
190.006
  0
LINE
  8
0
 10
242.522
 11
242.294
 20
190.006
 21
189.56
  0
LINE
  8
0
 10
242.294
 11
241.94
 20
189.56
 21
189.206
  0
LINE
  8
0
 10
241.94
 11
241.494
 20
189.206
 21
188.978
  0
LINE
  8
0
 10
241.494
 11
241
 20
188.978
 21
188.9
  0
LINE
  8
0
 10
241
 11
240.506
 20
188.9
 21
188.978
  0
LINE
  8
0
 10
240.506
 11
240.06
 20
188.978
 21
189.206
  0
LINE
  8
0
 10
240.06
 11
239.706
 20
189.206
 21
189.56
  0
LINE
  8
0
 10
239.706
 11
239.478
 20
189.56
 21
190.006
  0
LINE
  8
0
 10
239.478
 11
239.4
 20
190.006
 21
190.5
  0
LINE
  8
0
 10
245.972
 11
245.972
 20
-190.423
 21
-189.577
  0
LINE
  8
0
 10
245.972
 11
246.148
 20
-189.577
 21
-188.748
  0
LINE
  8
0
 10
246.148
 11
246.493
 20
-188.748
 21
-187.975
  0
LINE
  8
0
 10
246.493
 11
246.99
 20
-187.975
 21
-187.29
  0
LINE
  8
0
 10
246.99
 11
247.619
 20
-187.29
 21
-186.723
  0
LINE
  8
0
 10
247.619
 11
248.353
 20
-186.723
 21
-186.3
  0
LINE
  8
0
 10
248.353
 11
249.158
 20
-186.3
 21
-186.039
  0
LINE
  8
0
 10
249.158
 11
250
 20
-186.039
 21
-185.95
  0
LINE
  8
0
 10
250
 11
254.05
 20
-185.95
 21
-185.95
  0
LINE
  8
0
 10
254.05
 11
254.05
 20
-185.95
 21
-194.05
  0
LINE
  8
0
 10
254.05
 11
250
 20
-194.05
 21
-194.05
  0
LINE
  8
0
 10
250
 11
249.158
 20
-194.05
 21
-193.961
  0
LINE
  8
0
 10
249.158
 11
248.353
 20
-193.961
 21
-193.7
  0
LINE
  8
0
 10
248.353
 11
247.619
 20
-193.7
 21
-193.277
  0
LINE
  8
0
 10
247.619
 11
246.99
 20
-193.277
 21
-192.71
  0
LINE
  8
0
 10
246.99
 11
246.493
 20
-192.71
 21
-192.025
  0
LINE
  8
0
 10
246.493
 11
246.148
 20
-192.025
 21
-191.252
  0
LINE
  8
0
 10
246.148
 11
245.972
 20
-191.252
 21
-190.423
  0
LINE
  8
0
 10
245.972
 11
245.972
 20
189.577
 21
190.423
  0
LINE
  8
0
 10
245.972
 11
246.148
 20
190.423
 21
191.252
  0
LINE
  8
0
 10
246.148
 11
246.493
 20
191.252
 21
192.025
  0
LINE
  8
0
 10
246.493
 11
246.99
 20
192.025
 21
192.71
  0
LINE
  8
0
 10
246.99
 11
247.619
 20
192.71
 21
193.277
  0
LINE
  8
0
 10
247.619
 11
248.353
 20
193.277
 21
193.7
  0
LINE
  8
0
 10
248.353
 11
249.158
 20
193.7
 21
193.961
  0
LINE
  8
0
 10
249.158
 11
250
 20
193.961
 21
194.05
  0
LINE
  8
0
 10
250
 11
254.05
 20
194.05
 21
194.05
  0
LINE
  8
0
 10
254.05
 11
254.05
 20
194.05
 21
185.95
  0
LINE
  8
0
 10
254.05
 11
250
 20
185.95
 21
185.95
  0
LINE
  8
0
 10
250
 11
249.158
 20
185.95
 21
186.039
  0
LINE
  8
0
 10
249.158
 11
248.353
 20
186.039
 21
186.3
  0
LINE
  8
0
 10
248.353
 11
247.619
 20
186.3
 21
186.723
  0
LINE
  8
0
 10
247.619
 11
246.99
 20
186.723
 21
187.29
  0
LINE
  8
0
 10
246.99
 11
246.493
 20
187.29
 21
187.975
  0
LINE
  8
0
 10
246.493
 11
246.148
 20
187.975
 21
188.748
  0
LINE
  8
0
 10
246.148
 11
245.972
 20
188.748
 21
189.577
  0
LINE
  8
0
 10
247.6
 11
248.274
 20
-173.5
 21
-171.874
  0
LINE
  8
0
 10
248.274
 11
249.9
 20
-171.874
 21
-171.2
  0
LINE
  8
0
 10
249.9
 11
251.526
 20
-171.2
 21
-171.874
  0
LINE
  8
0
 10
251.526
 11
252.2
 20
-171.874
 21
-173.5
  0
LINE
  8
0
 10
252.2
 11
251.526
 20
-173.5
 21
-175.126
  0
LINE
  8
0
 10
251.526
 11
249.9
 20
-175.126
 21
-175.8
  0
LINE
  8
0
 10
249.9
 11
248.274
 20
-175.8
 21
-175.126
  0
LINE
  8
0
 10
248.274
 11
247.6
 20
-175.126
 21
-173.5
  0
LINE
  8
0
 10
247.6
 11
248.274
 20
173.5
 21
175.126
  0
LINE
  8
0
 10
248.274
 11
249.9
 20
175.126
 21
175.8
  0
LINE
  8
0
 10
249.9
 11
251.526
 20
175.8
 21
175.126
  0
LINE
  8
0
 10
251.526
 11
252.2
 20
175.126
 21
173.5
  0
LINE
  8
0
 10
252.2
 11
251.526
 20
173.5
 21
171.874
  0
LINE
  8
0
 10
251.526
 11
249.9
 20
171.874
 21
171.2
  0
LINE
  8
0
 10
249.9
 11
248.274
 20
171.2
 21
171.874
  0
LINE
  8
0
 10
248.274
 11
247.6
 20
171.874
 21
173.5
  0
LINE
  8
0
 10
254.4
 11
254.478
 20
-175.5
 21
-175.006
  0
LINE
  8
0
 10
254.478
 11
254.706
 20
-175.006
 21
-174.56
  0
LINE
  8
0
 10
254.706
 11
255.06
 20
-174.56
 21
-174.206
  0
LINE
  8
0
 10
255.06
 11
255.506
 20
-174.206
 21
-173.978
  0
LINE
  8
0
 10
255.506
 11
256
 20
-173.978
 21
-173.9
  0
LINE
  8
0
 10
256
 11
256.494
 20
-173.9
 21
-173.978
  0
LINE
  8
0
 10
256.494
 11
256.94
 20
-173.978
 21
-174.206
  0
LINE
  8
0
 10
256.94
 11
257.294
 20
-174.206
 21
-174.56
  0
LINE
  8
0
 10
257.294
 11
257.522
 20
-174.56
 21
-175.006
  0
LINE
  8
0
 10
257.522
 11
257.6
 20
-175.006
 21
-175.5
  0
LINE
  8
0
 10
257.6
 11
257.522
 20
-175.5
 21
-175.994
  0
LINE
  8
0
 10
257.522
 11
257.294
 20
-175.994
 21
-176.44
  0
LINE
  8
0
 10
257.294
 11
256.94
 20
-176.44
 21
-176.794
  0
LINE
  8
0
 10
256.94
 11
256.494
 20
-176.794
 21
-177.022
  0
LINE
  8
0
 10
256.494
 11
256
 20
-177.022
 21
-177.1
  0
LINE
  8
0
 10
256
 11
255.506
 20
-177.1
 21
-177.022
  0
LINE
  8
0
 10
255.506
 11
255.06
 20
-177.022
 21
-176.794
  0
LINE
  8
0
 10
255.06
 11
254.706
 20
-176.794
 21
-176.44
  0
LINE
  8
0
 10
254.706
 11
254.478
 20
-176.44
 21
-175.994
  0
LINE
  8
0
 10
254.478
 11
254.4
 20
-175.994
 21
-175.5
  0
LINE
  8
0
 10
254.4
 11
254.478
 20
175.5
 21
175.994
  0
LINE
  8
0
 10
254.478
 11
254.706
 20
175.994
 21
176.44
  0
LINE
  8
0
 10
254.706
 11
255.06
 20
176.44
 21
176.794
  0
LINE
  8
0
 10
255.06
 11
255.506
 20
176.794
 21
177.022
  0
LINE
  8
0
 10
255.506
 11
256
 20
177.022
 21
177.1
  0
LINE
  8
0
 10
256
 11
256.494
 20
177.1
 21
177.022
  0
LINE
  8
0
 10
256.494
 11
256.94
 20
177.022
 21
176.794
  0
LINE
  8
0
 10
256.94
 11
257.294
 20
176.794
 21
176.44
  0
LINE
  8
0
 10
257.294
 11
257.522
 20
176.44
 21
175.994
  0
LINE
  8
0
 10
257.522
 11
257.6
 20
175.994
 21
175.5
  0
LINE
  8
0
 10
257.6
 11
257.522
 20
175.5
 21
175.006
  0
LINE
  8
0
 10
257.522
 11
257.294
 20
175.006
 21
174.56
  0
LINE
  8
0
 10
257.294
 11
256.94
 20
174.56
 21
174.206
  0
LINE
  8
0
 10
256.94
 11
256.494
 20
174.206
 21
173.978
  0
LINE
  8
0
 10
256.494
 11
256
 20
173.978
 21
173.9
  0
LINE
  8
0
 10
256
 11
255.506
 20
173.9
 21
173.978
  0
LINE
  8
0
 10
255.506
 11
255.06
 20
173.978
 21
174.206
  0
LINE
  8
0
 10
255.06
 11
254.706
 20
174.206
 21
174.56
  0
LINE
  8
0
 10
254.706
 11
254.478
 20
174.56
 21
175.006
  0
LINE
  8
0
 10
254.478
 11
254.4
 20
175.006
 21
175.5
  0
LINE
  8
0
 10
255.55
 11
255.55
 20
-194.05
 21
-185.95
  0
LINE
  8
0
 10
255.55
 11
256.55
 20
-185.95
 21
-185.95
  0
LINE
  8
0
 10
256.55
 11
256.55
 20
-185.95
 21
-194.05
  0
LINE
  8
0
 10
256.55
 11
255.55
 20
-194.05
 21
-194.05
  0
LINE
  8
0
 10
255.55
 11
255.55
 20
185.95
 21
194.05
  0
LINE
  8
0
 10
255.55
 11
256.55
 20
194.05
 21
194.05
  0
LINE
  8
0
 10
256.55
 11
256.55
 20
194.05
 21
185.95
  0
LINE
  8
0
 10
256.55
 11
255.55
 20
185.95
 21
185.95
  0
ENDSEC
  0
SECTION
  2
OBJECTS
  0
DICTIONARY
  0
ENDSEC
  0
EOF
