  0
SECTION
  2
BLOCKS
  0
ENDSEC
  0
SECTION
  2
ENTITIES
  0
LINE
  8
0
 10
-310
 11
-310
 20
-94.074
 21
-55.899
  0
LINE
  8
0
 10
-310
 11
-288.197
 20
-55.899
 21
-55.899
  0
LINE
  8
0
 10
-288.197
 11
-287.82
 20
-55.899
 21
-55.979
  0
LINE
  8
0
 10
-287.82
 11
-284
 20
-55.979
 21
-57.679
  0
LINE
  8
0
 10
-284
 11
-280.617
 20
-57.679
 21
-60.137
  0
LINE
  8
0
 10
-280.617
 11
-277.82
 20
-60.137
 21
-63.244
  0
LINE
  8
0
 10
-277.82
 11
-275.729
 20
-63.244
 21
-66.865
  0
LINE
  8
0
 10
-275.729
 11
-274.482
 20
-66.865
 21
-70.705
  0
LINE
  8
0
 10
-274.482
 11
-274.482
 20
-70.705
 21
-79.295
  0
LINE
  8
0
 10
-274.482
 11
-275.729
 20
-79.295
 21
-83.135
  0
LINE
  8
0
 10
-275.729
 11
-277.82
 20
-83.135
 21
-86.756
  0
LINE
  8
0
 10
-277.82
 11
-280.617
 20
-86.756
 21
-89.863
  0
LINE
  8
0
 10
-280.617
 11
-284
 20
-89.863
 21
-92.321
  0
LINE
  8
0
 10
-284
 11
-287.82
 20
-92.321
 21
-94.021
  0
LINE
  8
0
 10
-287.82
 11
-288.067
 20
-94.021
 21
-94.074
  0
LINE
  8
0
 10
-288.067
 11
-310
 20
-94.074
 21
-94.074
  0
LINE
  8
0
 10
-310
 11
-310
 20
55.926
 21
94.101
  0
LINE
  8
0
 10
-310
 11
-288.197
 20
94.101
 21
94.101
  0
LINE
  8
0
 10
-288.197
 11
-287.82
 20
94.101
 21
94.021
  0
LINE
  8
0
 10
-287.82
 11
-284
 20
94.021
 21
92.321
  0
LINE
  8
0
 10
-284
 11
-280.617
 20
92.321
 21
89.863
  0
LINE
  8
0
 10
-280.617
 11
-277.82
 20
89.863
 21
86.756
  0
LINE
  8
0
 10
-277.82
 11
-275.729
 20
86.756
 21
83.135
  0
LINE
  8
0
 10
-275.729
 11
-274.482
 20
83.135
 21
79.295
  0
LINE
  8
0
 10
-274.482
 11
-274.482
 20
79.295
 21
70.705
  0
LINE
  8
0
 10
-274.482
 11
-275.729
 20
70.705
 21
66.865
  0
LINE
  8
0
 10
-275.729
 11
-277.82
 20
66.865
 21
63.244
  0
LINE
  8
0
 10
-277.82
 11
-280.617
 20
63.244
 21
60.137
  0
LINE
  8
0
 10
-280.617
 11
-284
 20
60.137
 21
57.679
  0
LINE
  8
0
 10
-284
 11
-287.82
 20
57.679
 21
55.979
  0
LINE
  8
0
 10
-287.82
 11
-288.067
 20
55.979
 21
55.926
  0
LINE
  8
0
 10
-288.067
 11
-310
 20
55.926
 21
55.926
  0
LINE
  8
0
 10
-306.8
 11
-306.761
 20
-88.5
 21
-88.126
  0
LINE
  8
0
 10
-306.761
 11
-306.644
 20
-88.126
 21
-87.768
  0
LINE
  8
0
 10
-306.644
 11
-306.456
 20
-87.768
 21
-87.442
  0
LINE
  8
0
 10
-306.456
 11
-306.204
 20
-87.442
 21
-87.162
  0
LINE
  8
0
 10
-306.204
 11
-305.9
 20
-87.162
 21
-86.941
  0
LINE
  8
0
 10
-305.9
 11
-305.556
 20
-86.941
 21
-86.788
  0
LINE
  8
0
 10
-305.556
 11
-305.188
 20
-86.788
 21
-86.71
  0
LINE
  8
0
 10
-305.188
 11
-304.812
 20
-86.71
 21
-86.71
  0
LINE
  8
0
 10
-304.812
 11
-304.444
 20
-86.71
 21
-86.788
  0
LINE
  8
0
 10
-304.444
 11
-304.1
 20
-86.788
 21
-86.941
  0
LINE
  8
0
 10
-304.1
 11
-303.796
 20
-86.941
 21
-87.162
  0
LINE
  8
0
 10
-303.796
 11
-303.544
 20
-87.162
 21
-87.442
  0
LINE
  8
0
 10
-303.544
 11
-303.356
 20
-87.442
 21
-87.768
  0
LINE
  8
0
 10
-303.356
 11
-303.239
 20
-87.768
 21
-88.126
  0
LINE
  8
0
 10
-303.239
 11
-303.2
 20
-88.126
 21
-88.5
  0
LINE
  8
0
 10
-303.2
 11
-303.239
 20
-88.5
 21
-88.874
  0
LINE
  8
0
 10
-303.239
 11
-303.356
 20
-88.874
 21
-89.232
  0
LINE
  8
0
 10
-303.356
 11
-303.544
 20
-89.232
 21
-89.558
  0
LINE
  8
0
 10
-303.544
 11
-303.796
 20
-89.558
 21
-89.838
  0
LINE
  8
0
 10
-303.796
 11
-304.1
 20
-89.838
 21
-90.059
  0
LINE
  8
0
 10
-304.1
 11
-304.444
 20
-90.059
 21
-90.212
  0
LINE
  8
0
 10
-304.444
 11
-304.812
 20
-90.212
 21
-90.29
  0
LINE
  8
0
 10
-304.812
 11
-305.188
 20
-90.29
 21
-90.29
  0
LINE
  8
0
 10
-305.188
 11
-305.556
 20
-90.29
 21
-90.212
  0
LINE
  8
0
 10
-305.556
 11
-305.9
 20
-90.212
 21
-90.059
  0
LINE
  8
0
 10
-305.9
 11
-306.204
 20
-90.059
 21
-89.838
  0
LINE
  8
0
 10
-306.204
 11
-306.456
 20
-89.838
 21
-89.558
  0
LINE
  8
0
 10
-306.456
 11
-306.644
 20
-89.558
 21
-89.232
  0
LINE
  8
0
 10
-306.644
 11
-306.761
 20
-89.232
 21
-88.874
  0
LINE
  8
0
 10
-306.761
 11
-306.8
 20
-88.874
 21
-88.5
  0
LINE
  8
0
 10
-306.8
 11
-306.761
 20
-61.5
 21
-61.126
  0
LINE
  8
0
 10
-306.761
 11
-306.644
 20
-61.126
 21
-60.768
  0
LINE
  8
0
 10
-306.644
 11
-306.456
 20
-60.768
 21
-60.442
  0
LINE
  8
0
 10
-306.456
 11
-306.204
 20
-60.442
 21
-60.162
  0
LINE
  8
0
 10
-306.204
 11
-305.9
 20
-60.162
 21
-59.941
  0
LINE
  8
0
 10
-305.9
 11
-305.556
 20
-59.941
 21
-59.788
  0
LINE
  8
0
 10
-305.556
 11
-305.188
 20
-59.788
 21
-59.71
  0
LINE
  8
0
 10
-305.188
 11
-304.812
 20
-59.71
 21
-59.71
  0
LINE
  8
0
 10
-304.812
 11
-304.444
 20
-59.71
 21
-59.788
  0
LINE
  8
0
 10
-304.444
 11
-304.1
 20
-59.788
 21
-59.941
  0
LINE
  8
0
 10
-304.1
 11
-303.796
 20
-59.941
 21
-60.162
  0
LINE
  8
0
 10
-303.796
 11
-303.544
 20
-60.162
 21
-60.442
  0
LINE
  8
0
 10
-303.544
 11
-303.356
 20
-60.442
 21
-60.768
  0
LINE
  8
0
 10
-303.356
 11
-303.239
 20
-60.768
 21
-61.126
  0
LINE
  8
0
 10
-303.239
 11
-303.2
 20
-61.126
 21
-61.5
  0
LINE
  8
0
 10
-303.2
 11
-303.239
 20
-61.5
 21
-61.874
  0
LINE
  8
0
 10
-303.239
 11
-303.356
 20
-61.874
 21
-62.232
  0
LINE
  8
0
 10
-303.356
 11
-303.544
 20
-62.232
 21
-62.558
  0
LINE
  8
0
 10
-303.544
 11
-303.796
 20
-62.558
 21
-62.838
  0
LINE
  8
0
 10
-303.796
 11
-304.1
 20
-62.838
 21
-63.059
  0
LINE
  8
0
 10
-304.1
 11
-304.444
 20
-63.059
 21
-63.212
  0
LINE
  8
0
 10
-304.444
 11
-304.812
 20
-63.212
 21
-63.29
  0
LINE
  8
0
 10
-304.812
 11
-305.188
 20
-63.29
 21
-63.29
  0
LINE
  8
0
 10
-305.188
 11
-305.556
 20
-63.29
 21
-63.212
  0
LINE
  8
0
 10
-305.556
 11
-305.9
 20
-63.212
 21
-63.059
  0
LINE
  8
0
 10
-305.9
 11
-306.204
 20
-63.059
 21
-62.838
  0
LINE
  8
0
 10
-306.204
 11
-306.456
 20
-62.838
 21
-62.558
  0
LINE
  8
0
 10
-306.456
 11
-306.644
 20
-62.558
 21
-62.232
  0
LINE
  8
0
 10
-306.644
 11
-306.761
 20
-62.232
 21
-61.874
  0
LINE
  8
0
 10
-306.761
 11
-306.8
 20
-61.874
 21
-61.5
  0
LINE
  8
0
 10
-306.8
 11
-306.761
 20
61.5
 21
61.874
  0
LINE
  8
0
 10
-306.761
 11
-306.644
 20
61.874
 21
62.232
  0
LINE
  8
0
 10
-306.644
 11
-306.456
 20
62.232
 21
62.558
  0
LINE
  8
0
 10
-306.456
 11
-306.204
 20
62.558
 21
62.838
  0
LINE
  8
0
 10
-306.204
 11
-305.9
 20
62.838
 21
63.059
  0
LINE
  8
0
 10
-305.9
 11
-305.556
 20
63.059
 21
63.212
  0
LINE
  8
0
 10
-305.556
 11
-305.188
 20
63.212
 21
63.29
  0
LINE
  8
0
 10
-305.188
 11
-304.812
 20
63.29
 21
63.29
  0
LINE
  8
0
 10
-304.812
 11
-304.444
 20
63.29
 21
63.212
  0
LINE
  8
0
 10
-304.444
 11
-304.1
 20
63.212
 21
63.059
  0
LINE
  8
0
 10
-304.1
 11
-303.796
 20
63.059
 21
62.838
  0
LINE
  8
0
 10
-303.796
 11
-303.544
 20
62.838
 21
62.558
  0
LINE
  8
0
 10
-303.544
 11
-303.356
 20
62.558
 21
62.232
  0
LINE
  8
0
 10
-303.356
 11
-303.239
 20
62.232
 21
61.874
  0
LINE
  8
0
 10
-303.239
 11
-303.2
 20
61.874
 21
61.5
  0
LINE
  8
0
 10
-303.2
 11
-303.239
 20
61.5
 21
61.126
  0
LINE
  8
0
 10
-303.239
 11
-303.356
 20
61.126
 21
60.768
  0
LINE
  8
0
 10
-303.356
 11
-303.544
 20
60.768
 21
60.442
  0
LINE
  8
0
 10
-303.544
 11
-303.796
 20
60.442
 21
60.162
  0
LINE
  8
0
 10
-303.796
 11
-304.1
 20
60.162
 21
59.941
  0
LINE
  8
0
 10
-304.1
 11
-304.444
 20
59.941
 21
59.788
  0
LINE
  8
0
 10
-304.444
 11
-304.812
 20
59.788
 21
59.71
  0
LINE
  8
0
 10
-304.812
 11
-305.188
 20
59.71
 21
59.71
  0
LINE
  8
0
 10
-305.188
 11
-305.556
 20
59.71
 21
59.788
  0
LINE
  8
0
 10
-305.556
 11
-305.9
 20
59.788
 21
59.941
  0
LINE
  8
0
 10
-305.9
 11
-306.204
 20
59.941
 21
60.162
  0
LINE
  8
0
 10
-306.204
 11
-306.456
 20
60.162
 21
60.442
  0
LINE
  8
0
 10
-306.456
 11
-306.644
 20
60.442
 21
60.768
  0
LINE
  8
0
 10
-306.644
 11
-306.761
 20
60.768
 21
61.126
  0
LINE
  8
0
 10
-306.761
 11
-306.8
 20
61.126
 21
61.5
  0
LINE
  8
0
 10
-306.8
 11
-306.761
 20
88.5
 21
88.874
  0
LINE
  8
0
 10
-306.761
 11
-306.644
 20
88.874
 21
89.232
  0
LINE
  8
0
 10
-306.644
 11
-306.456
 20
89.232
 21
89.558
  0
LINE
  8
0
 10
-306.456
 11
-306.204
 20
89.558
 21
89.838
  0
LINE
  8
0
 10
-306.204
 11
-305.9
 20
89.838
 21
90.059
  0
LINE
  8
0
 10
-305.9
 11
-305.556
 20
90.059
 21
90.212
  0
LINE
  8
0
 10
-305.556
 11
-305.188
 20
90.212
 21
90.29
  0
LINE
  8
0
 10
-305.188
 11
-304.812
 20
90.29
 21
90.29
  0
LINE
  8
0
 10
-304.812
 11
-304.444
 20
90.29
 21
90.212
  0
LINE
  8
0
 10
-304.444
 11
-304.1
 20
90.212
 21
90.059
  0
LINE
  8
0
 10
-304.1
 11
-303.796
 20
90.059
 21
89.838
  0
LINE
  8
0
 10
-303.796
 11
-303.544
 20
89.838
 21
89.558
  0
LINE
  8
0
 10
-303.544
 11
-303.356
 20
89.558
 21
89.232
  0
LINE
  8
0
 10
-303.356
 11
-303.239
 20
89.232
 21
88.874
  0
LINE
  8
0
 10
-303.239
 11
-303.2
 20
88.874
 21
88.5
  0
LINE
  8
0
 10
-303.2
 11
-303.239
 20
88.5
 21
88.126
  0
LINE
  8
0
 10
-303.239
 11
-303.356
 20
88.126
 21
87.768
  0
LINE
  8
0
 10
-303.356
 11
-303.544
 20
87.768
 21
87.442
  0
LINE
  8
0
 10
-303.544
 11
-303.796
 20
87.442
 21
87.162
  0
LINE
  8
0
 10
-303.796
 11
-304.1
 20
87.162
 21
86.941
  0
LINE
  8
0
 10
-304.1
 11
-304.444
 20
86.941
 21
86.788
  0
LINE
  8
0
 10
-304.444
 11
-304.812
 20
86.788
 21
86.71
  0
LINE
  8
0
 10
-304.812
 11
-305.188
 20
86.71
 21
86.71
  0
LINE
  8
0
 10
-305.188
 11
-305.556
 20
86.71
 21
86.788
  0
LINE
  8
0
 10
-305.556
 11
-305.9
 20
86.788
 21
86.941
  0
LINE
  8
0
 10
-305.9
 11
-306.204
 20
86.941
 21
87.162
  0
LINE
  8
0
 10
-306.204
 11
-306.456
 20
87.162
 21
87.442
  0
LINE
  8
0
 10
-306.456
 11
-306.644
 20
87.442
 21
87.768
  0
LINE
  8
0
 10
-306.644
 11
-306.761
 20
87.768
 21
88.126
  0
LINE
  8
0
 10
-306.761
 11
-306.8
 20
88.126
 21
88.5
  0
LINE
  8
0
 10
-279.8
 11
-279.761
 20
-75
 21
-74.626
  0
LINE
  8
0
 10
-279.761
 11
-279.644
 20
-74.626
 21
-74.268
  0
LINE
  8
0
 10
-279.644
 11
-279.456
 20
-74.268
 21
-73.942
  0
LINE
  8
0
 10
-279.456
 11
-279.204
 20
-73.942
 21
-73.662
  0
LINE
  8
0
 10
-279.204
 11
-278.9
 20
-73.662
 21
-73.441
  0
LINE
  8
0
 10
-278.9
 11
-278.556
 20
-73.441
 21
-73.288
  0
LINE
  8
0
 10
-278.556
 11
-278.188
 20
-73.288
 21
-73.21
  0
LINE
  8
0
 10
-278.188
 11
-277.812
 20
-73.21
 21
-73.21
  0
LINE
  8
0
 10
-277.812
 11
-277.444
 20
-73.21
 21
-73.288
  0
LINE
  8
0
 10
-277.444
 11
-277.1
 20
-73.288
 21
-73.441
  0
LINE
  8
0
 10
-277.1
 11
-276.796
 20
-73.441
 21
-73.662
  0
LINE
  8
0
 10
-276.796
 11
-276.544
 20
-73.662
 21
-73.942
  0
LINE
  8
0
 10
-276.544
 11
-276.356
 20
-73.942
 21
-74.268
  0
LINE
  8
0
 10
-276.356
 11
-276.239
 20
-74.268
 21
-74.626
  0
LINE
  8
0
 10
-276.239
 11
-276.2
 20
-74.626
 21
-75
  0
LINE
  8
0
 10
-276.2
 11
-276.239
 20
-75
 21
-75.374
  0
LINE
  8
0
 10
-276.239
 11
-276.356
 20
-75.374
 21
-75.732
  0
LINE
  8
0
 10
-276.356
 11
-276.544
 20
-75.732
 21
-76.058
  0
LINE
  8
0
 10
-276.544
 11
-276.796
 20
-76.058
 21
-76.338
  0
LINE
  8
0
 10
-276.796
 11
-277.1
 20
-76.338
 21
-76.559
  0
LINE
  8
0
 10
-277.1
 11
-277.444
 20
-76.559
 21
-76.712
  0
LINE
  8
0
 10
-277.444
 11
-277.812
 20
-76.712
 21
-76.79
  0
LINE
  8
0
 10
-277.812
 11
-278.188
 20
-76.79
 21
-76.79
  0
LINE
  8
0
 10
-278.188
 11
-278.556
 20
-76.79
 21
-76.712
  0
LINE
  8
0
 10
-278.556
 11
-278.9
 20
-76.712
 21
-76.559
  0
LINE
  8
0
 10
-278.9
 11
-279.204
 20
-76.559
 21
-76.338
  0
LINE
  8
0
 10
-279.204
 11
-279.456
 20
-76.338
 21
-76.058
  0
LINE
  8
0
 10
-279.456
 11
-279.644
 20
-76.058
 21
-75.732
  0
LINE
  8
0
 10
-279.644
 11
-279.761
 20
-75.732
 21
-75.374
  0
LINE
  8
0
 10
-279.761
 11
-279.8
 20
-75.374
 21
-75
  0
LINE
  8
0
 10
-279.8
 11
-279.761
 20
75
 21
75.374
  0
LINE
  8
0
 10
-279.761
 11
-279.644
 20
75.374
 21
75.732
  0
LINE
  8
0
 10
-279.644
 11
-279.456
 20
75.732
 21
76.058
  0
LINE
  8
0
 10
-279.456
 11
-279.204
 20
76.058
 21
76.338
  0
LINE
  8
0
 10
-279.204
 11
-278.9
 20
76.338
 21
76.559
  0
LINE
  8
0
 10
-278.9
 11
-278.556
 20
76.559
 21
76.712
  0
LINE
  8
0
 10
-278.556
 11
-278.188
 20
76.712
 21
76.79
  0
LINE
  8
0
 10
-278.188
 11
-277.812
 20
76.79
 21
76.79
  0
LINE
  8
0
 10
-277.812
 11
-277.444
 20
76.79
 21
76.712
  0
LINE
  8
0
 10
-277.444
 11
-277.1
 20
76.712
 21
76.559
  0
LINE
  8
0
 10
-277.1
 11
-276.796
 20
76.559
 21
76.338
  0
LINE
  8
0
 10
-276.796
 11
-276.544
 20
76.338
 21
76.058
  0
LINE
  8
0
 10
-276.544
 11
-276.356
 20
76.058
 21
75.732
  0
LINE
  8
0
 10
-276.356
 11
-276.239
 20
75.732
 21
75.374
  0
LINE
  8
0
 10
-276.239
 11
-276.2
 20
75.374
 21
75
  0
LINE
  8
0
 10
-276.2
 11
-276.239
 20
75
 21
74.626
  0
LINE
  8
0
 10
-276.239
 11
-276.356
 20
74.626
 21
74.268
  0
LINE
  8
0
 10
-276.356
 11
-276.544
 20
74.268
 21
73.942
  0
LINE
  8
0
 10
-276.544
 11
-276.796
 20
73.942
 21
73.662
  0
LINE
  8
0
 10
-276.796
 11
-277.1
 20
73.662
 21
73.441
  0
LINE
  8
0
 10
-277.1
 11
-277.444
 20
73.441
 21
73.288
  0
LINE
  8
0
 10
-277.444
 11
-277.812
 20
73.288
 21
73.21
  0
LINE
  8
0
 10
-277.812
 11
-278.188
 20
73.21
 21
73.21
  0
LINE
  8
0
 10
-278.188
 11
-278.556
 20
73.21
 21
73.288
  0
LINE
  8
0
 10
-278.556
 11
-278.9
 20
73.288
 21
73.441
  0
LINE
  8
0
 10
-278.9
 11
-279.204
 20
73.441
 21
73.662
  0
LINE
  8
0
 10
-279.204
 11
-279.456
 20
73.662
 21
73.942
  0
LINE
  8
0
 10
-279.456
 11
-279.644
 20
73.942
 21
74.268
  0
LINE
  8
0
 10
-279.644
 11
-279.761
 20
74.268
 21
74.626
  0
LINE
  8
0
 10
-279.761
 11
-279.8
 20
74.626
 21
75
  0
LINE
  8
0
 10
-268
 11
-268
 20
-193.5
 21
-173.5
  0
LINE
  8
0
 10
-268
 11
-267.563
 20
-173.5
 21
-169.342
  0
LINE
  8
0
 10
-267.563
 11
-266.271
 20
-169.342
 21
-165.365
  0
LINE
  8
0
 10
-266.271
 11
-264.18
 20
-165.365
 21
-161.744
  0
LINE
  8
0
 10
-264.18
 11
-261.383
 20
-161.744
 21
-158.637
  0
LINE
  8
0
 10
-261.383
 11
-258
 20
-158.637
 21
-156.179
  0
LINE
  8
0
 10
-258
 11
-254.18
 20
-156.179
 21
-154.479
  0
LINE
  8
0
 10
-254.18
 11
-250.091
 20
-154.479
 21
-153.61
  0
LINE
  8
0
 10
-250.091
 11
-248
 20
-153.61
 21
-153.61
  0
LINE
  8
0
 10
-248
 11
-248
 20
-153.61
 21
-153.5
  0
LINE
  8
0
 10
-248
 11
-237
 20
-153.5
 21
-153.5
  0
LINE
  8
0
 10
-237
 11
-237
 20
-153.5
 21
-150.5
  0
LINE
  8
0
 10
-237
 11
-232
 20
-150.5
 21
-150.5
  0
LINE
  8
0
 10
-232
 11
-232
 20
-150.5
 21
-200.353
  0
LINE
  8
0
 10
-232
 11
-250
 20
-200.353
 21
-200.353
  0
LINE
  8
0
 10
-250
 11
-250
 20
-200.353
 21
-200.348
  0
LINE
  8
0
 10
-250
 11
-251.247
 20
-200.348
 21
-200.064
  0
LINE
  8
0
 10
-251.247
 11
-252
 20
-200.064
 21
-198.5
  0
LINE
  8
0
 10
-252
 11
-252
 20
-198.5
 21
-198.353
  0
LINE
  8
0
 10
-252
 11
-263.738
 20
-198.353
 21
-198.353
  0
LINE
  8
0
 10
-263.738
 11
-264.913
 20
-198.353
 21
-198.119
  0
LINE
  8
0
 10
-264.913
 11
-266.536
 20
-198.119
 21
-197.036
  0
LINE
  8
0
 10
-266.536
 11
-267.619
 20
-197.036
 21
-195.413
  0
LINE
  8
0
 10
-267.619
 11
-268
 20
-195.413
 21
-193.5
  0
LINE
  8
0
 10
-268
 11
-268
 20
173.5
 21
193.5
  0
LINE
  8
0
 10
-268
 11
-267.619
 20
193.5
 21
195.413
  0
LINE
  8
0
 10
-267.619
 11
-266.536
 20
195.413
 21
197.036
  0
LINE
  8
0
 10
-266.536
 11
-264.913
 20
197.036
 21
198.119
  0
LINE
  8
0
 10
-264.913
 11
-263.738
 20
198.119
 21
198.353
  0
LINE
  8
0
 10
-263.738
 11
-252
 20
198.353
 21
198.353
  0
LINE
  8
0
 10
-252
 11
-252
 20
198.353
 21
198.5
  0
LINE
  8
0
 10
-252
 11
-251.247
 20
198.5
 21
200.064
  0
LINE
  8
0
 10
-251.247
 11
-250
 20
200.064
 21
200.348
  0
LINE
  8
0
 10
-250
 11
-250
 20
200.348
 21
200.353
  0
LINE
  8
0
 10
-250
 11
-232
 20
200.353
 21
200.353
  0
LINE
  8
0
 10
-232
 11
-232
 20
200.353
 21
150.5
  0
LINE
  8
0
 10
-232
 11
-237
 20
150.5
 21
150.5
  0
LINE
  8
0
 10
-237
 11
-237
 20
150.5
 21
153.5
  0
LINE
  8
0
 10
-237
 11
-248
 20
153.5
 21
153.5
  0
LINE
  8
0
 10
-248
 11
-248
 20
153.5
 21
153.61
  0
LINE
  8
0
 10
-248
 11
-250.091
 20
153.61
 21
153.61
  0
LINE
  8
0
 10
-250.091
 11
-254.18
 20
153.61
 21
154.479
  0
LINE
  8
0
 10
-254.18
 11
-258
 20
154.479
 21
156.179
  0
LINE
  8
0
 10
-258
 11
-261.383
 20
156.179
 21
158.637
  0
LINE
  8
0
 10
-261.383
 11
-264.18
 20
158.637
 21
161.744
  0
LINE
  8
0
 10
-264.18
 11
-266.271
 20
161.744
 21
165.365
  0
LINE
  8
0
 10
-266.271
 11
-267.563
 20
165.365
 21
169.342
  0
LINE
  8
0
 10
-267.563
 11
-268
 20
169.342
 21
173.5
  0
LINE
  8
0
 10
-263.6
 11
-263.522
 20
-189.5
 21
-189.006
  0
LINE
  8
0
 10
-263.522
 11
-263.294
 20
-189.006
 21
-188.56
  0
LINE
  8
0
 10
-263.294
 11
-262.94
 20
-188.56
 21
-188.206
  0
LINE
  8
0
 10
-262.94
 11
-262.494
 20
-188.206
 21
-187.978
  0
LINE
  8
0
 10
-262.494
 11
-262
 20
-187.978
 21
-187.9
  0
LINE
  8
0
 10
-262
 11
-261.506
 20
-187.9
 21
-187.978
  0
LINE
  8
0
 10
-261.506
 11
-261.06
 20
-187.978
 21
-188.206
  0
LINE
  8
0
 10
-261.06
 11
-260.706
 20
-188.206
 21
-188.56
  0
LINE
  8
0
 10
-260.706
 11
-260.478
 20
-188.56
 21
-189.006
  0
LINE
  8
0
 10
-260.478
 11
-260.4
 20
-189.006
 21
-189.5
  0
LINE
  8
0
 10
-260.4
 11
-260.478
 20
-189.5
 21
-189.994
  0
LINE
  8
0
 10
-260.478
 11
-260.706
 20
-189.994
 21
-190.44
  0
LINE
  8
0
 10
-260.706
 11
-261.06
 20
-190.44
 21
-190.794
  0
LINE
  8
0
 10
-261.06
 11
-261.506
 20
-190.794
 21
-191.022
  0
LINE
  8
0
 10
-261.506
 11
-262
 20
-191.022
 21
-191.1
  0
LINE
  8
0
 10
-262
 11
-262.494
 20
-191.1
 21
-191.022
  0
LINE
  8
0
 10
-262.494
 11
-262.94
 20
-191.022
 21
-190.794
  0
LINE
  8
0
 10
-262.94
 11
-263.294
 20
-190.794
 21
-190.44
  0
LINE
  8
0
 10
-263.294
 11
-263.522
 20
-190.44
 21
-189.994
  0
LINE
  8
0
 10
-263.522
 11
-263.6
 20
-189.994
 21
-189.5
  0
LINE
  8
0
 10
-263.6
 11
-263.522
 20
-172.5
 21
-172.006
  0
LINE
  8
0
 10
-263.522
 11
-263.294
 20
-172.006
 21
-171.56
  0
LINE
  8
0
 10
-263.294
 11
-262.94
 20
-171.56
 21
-171.206
  0
LINE
  8
0
 10
-262.94
 11
-262.494
 20
-171.206
 21
-170.978
  0
LINE
  8
0
 10
-262.494
 11
-262
 20
-170.978
 21
-170.9
  0
LINE
  8
0
 10
-262
 11
-261.506
 20
-170.9
 21
-170.978
  0
LINE
  8
0
 10
-261.506
 11
-261.06
 20
-170.978
 21
-171.206
  0
LINE
  8
0
 10
-261.06
 11
-260.706
 20
-171.206
 21
-171.56
  0
LINE
  8
0
 10
-260.706
 11
-260.478
 20
-171.56
 21
-172.006
  0
LINE
  8
0
 10
-260.478
 11
-260.4
 20
-172.006
 21
-172.5
  0
LINE
  8
0
 10
-260.4
 11
-260.478
 20
-172.5
 21
-172.994
  0
LINE
  8
0
 10
-260.478
 11
-260.706
 20
-172.994
 21
-173.44
  0
LINE
  8
0
 10
-260.706
 11
-261.06
 20
-173.44
 21
-173.794
  0
LINE
  8
0
 10
-261.06
 11
-261.506
 20
-173.794
 21
-174.022
  0
LINE
  8
0
 10
-261.506
 11
-262
 20
-174.022
 21
-174.1
  0
LINE
  8
0
 10
-262
 11
-262.494
 20
-174.1
 21
-174.022
  0
LINE
  8
0
 10
-262.494
 11
-262.94
 20
-174.022
 21
-173.794
  0
LINE
  8
0
 10
-262.94
 11
-263.294
 20
-173.794
 21
-173.44
  0
LINE
  8
0
 10
-263.294
 11
-263.522
 20
-173.44
 21
-172.994
  0
LINE
  8
0
 10
-263.522
 11
-263.6
 20
-172.994
 21
-172.5
  0
LINE
  8
0
 10
-263.6
 11
-263.522
 20
172.5
 21
172.994
  0
LINE
  8
0
 10
-263.522
 11
-263.294
 20
172.994
 21
173.44
  0
LINE
  8
0
 10
-263.294
 11
-262.94
 20
173.44
 21
173.794
  0
LINE
  8
0
 10
-262.94
 11
-262.494
 20
173.794
 21
174.022
  0
LINE
  8
0
 10
-262.494
 11
-262
 20
174.022
 21
174.1
  0
LINE
  8
0
 10
-262
 11
-261.506
 20
174.1
 21
174.022
  0
LINE
  8
0
 10
-261.506
 11
-261.06
 20
174.022
 21
173.794
  0
LINE
  8
0
 10
-261.06
 11
-260.706
 20
173.794
 21
173.44
  0
LINE
  8
0
 10
-260.706
 11
-260.478
 20
173.44
 21
172.994
  0
LINE
  8
0
 10
-260.478
 11
-260.4
 20
172.994
 21
172.5
  0
LINE
  8
0
 10
-260.4
 11
-260.478
 20
172.5
 21
172.006
  0
LINE
  8
0
 10
-260.478
 11
-260.706
 20
172.006
 21
171.56
  0
LINE
  8
0
 10
-260.706
 11
-261.06
 20
171.56
 21
171.206
  0
LINE
  8
0
 10
-261.06
 11
-261.506
 20
171.206
 21
170.978
  0
LINE
  8
0
 10
-261.506
 11
-262
 20
170.978
 21
170.9
  0
LINE
  8
0
 10
-262
 11
-262.494
 20
170.9
 21
170.978
  0
LINE
  8
0
 10
-262.494
 11
-262.94
 20
170.978
 21
171.206
  0
LINE
  8
0
 10
-262.94
 11
-263.294
 20
171.206
 21
171.56
  0
LINE
  8
0
 10
-263.294
 11
-263.522
 20
171.56
 21
172.006
  0
LINE
  8
0
 10
-263.522
 11
-263.6
 20
172.006
 21
172.5
  0
LINE
  8
0
 10
-263.6
 11
-263.522
 20
189.5
 21
189.994
  0
LINE
  8
0
 10
-263.522
 11
-263.294
 20
189.994
 21
190.44
  0
LINE
  8
0
 10
-263.294
 11
-262.94
 20
190.44
 21
190.794
  0
LINE
  8
0
 10
-262.94
 11
-262.494
 20
190.794
 21
191.022
  0
LINE
  8
0
 10
-262.494
 11
-262
 20
191.022
 21
191.1
  0
LINE
  8
0
 10
-262
 11
-261.506
 20
191.1
 21
191.022
  0
LINE
  8
0
 10
-261.506
 11
-261.06
 20
191.022
 21
190.794
  0
LINE
  8
0
 10
-261.06
 11
-260.706
 20
190.794
 21
190.44
  0
LINE
  8
0
 10
-260.706
 11
-260.478
 20
190.44
 21
189.994
  0
LINE
  8
0
 10
-260.478
 11
-260.4
 20
189.994
 21
189.5
  0
LINE
  8
0
 10
-260.4
 11
-260.478
 20
189.5
 21
189.006
  0
LINE
  8
0
 10
-260.478
 11
-260.706
 20
189.006
 21
188.56
  0
LINE
  8
0
 10
-260.706
 11
-261.06
 20
188.56
 21
188.206
  0
LINE
  8
0
 10
-261.06
 11
-261.506
 20
188.206
 21
187.978
  0
LINE
  8
0
 10
-261.506
 11
-262
 20
187.978
 21
187.9
  0
LINE
  8
0
 10
-262
 11
-262.494
 20
187.9
 21
187.978
  0
LINE
  8
0
 10
-262.494
 11
-262.94
 20
187.978
 21
188.206
  0
LINE
  8
0
 10
-262.94
 11
-263.294
 20
188.206
 21
188.56
  0
LINE
  8
0
 10
-263.294
 11
-263.522
 20
188.56
 21
189.006
  0
LINE
  8
0
 10
-263.522
 11
-263.6
 20
189.006
 21
189.5
  0
LINE
  8
0
 10
-256.55
 11
-256.55
 20
-194.05
 21
-185.95
  0
LINE
  8
0
 10
-256.55
 11
-255.55
 20
-185.95
 21
-185.95
  0
LINE
  8
0
 10
-255.55
 11
-255.55
 20
-185.95
 21
-194.05
  0
LINE
  8
0
 10
-255.55
 11
-256.55
 20
-194.05
 21
-194.05
  0
LINE
  8
0
 10
-256.55
 11
-256.55
 20
185.95
 21
194.05
  0
LINE
  8
0
 10
-256.55
 11
-255.55
 20
194.05
 21
194.05
  0
LINE
  8
0
 10
-255.55
 11
-255.55
 20
194.05
 21
185.95
  0
LINE
  8
0
 10
-255.55
 11
-256.55
 20
185.95
 21
185.95
  0
LINE
  8
0
 10
-254.05
 11
-254.05
 20
-194.05
 21
-185.95
  0
LINE
  8
0
 10
-254.05
 11
-250
 20
-185.95
 21
-185.95
  0
LINE
  8
0
 10
-250
 11
-249.158
 20
-185.95
 21
-186.039
  0
LINE
  8
0
 10
-249.158
 11
-248.353
 20
-186.039
 21
-186.3
  0
LINE
  8
0
 10
-248.353
 11
-247.619
 20
-186.3
 21
-186.723
  0
LINE
  8
0
 10
-247.619
 11
-246.99
 20
-186.723
 21
-187.29
  0
LINE
  8
0
 10
-246.99
 11
-246.493
 20
-187.29
 21
-187.975
  0
LINE
  8
0
 10
-246.493
 11
-246.148
 20
-187.975
 21
-188.748
  0
LINE
  8
0
 10
-246.148
 11
-245.972
 20
-188.748
 21
-189.577
  0
LINE
  8
0
 10
-245.972
 11
-245.972
 20
-189.577
 21
-190.423
  0
LINE
  8
0
 10
-245.972
 11
-246.148
 20
-190.423
 21
-191.252
  0
LINE
  8
0
 10
-246.148
 11
-246.493
 20
-191.252
 21
-192.025
  0
LINE
  8
0
 10
-246.493
 11
-246.99
 20
-192.025
 21
-192.71
  0
LINE
  8
0
 10
-246.99
 11
-247.619
 20
-192.71
 21
-193.277
  0
LINE
  8
0
 10
-247.619
 11
-248.353
 20
-193.277
 21
-193.7
  0
LINE
  8
0
 10
-248.353
 11
-249.158
 20
-193.7
 21
-193.961
  0
LINE
  8
0
 10
-249.158
 11
-250
 20
-193.961
 21
-194.05
  0
LINE
  8
0
 10
-250
 11
-254.05
 20
-194.05
 21
-194.05
  0
LINE
  8
0
 10
-254.05
 11
-254.05
 20
185.95
 21
194.05
  0
LINE
  8
0
 10
-254.05
 11
-250
 20
194.05
 21
194.05
  0
LINE
  8
0
 10
-250
 11
-249.158
 20
194.05
 21
193.961
  0
LINE
  8
0
 10
-249.158
 11
-248.353
 20
193.961
 21
193.7
  0
LINE
  8
0
 10
-248.353
 11
-247.619
 20
193.7
 21
193.277
  0
LINE
  8
0
 10
-247.619
 11
-246.99
 20
193.277
 21
192.71
  0
LINE
  8
0
 10
-246.99
 11
-246.493
 20
192.71
 21
192.025
  0
LINE
  8
0
 10
-246.493
 11
-246.148
 20
192.025
 21
191.252
  0
LINE
  8
0
 10
-246.148
 11
-245.972
 20
191.252
 21
190.423
  0
LINE
  8
0
 10
-245.972
 11
-245.972
 20
190.423
 21
189.577
  0
LINE
  8
0
 10
-245.972
 11
-246.148
 20
189.577
 21
188.748
  0
LINE
  8
0
 10
-246.148
 11
-246.493
 20
188.748
 21
187.975
  0
LINE
  8
0
 10
-246.493
 11
-246.99
 20
187.975
 21
187.29
  0
LINE
  8
0
 10
-246.99
 11
-247.619
 20
187.29
 21
186.723
  0
LINE
  8
0
 10
-247.619
 11
-248.353
 20
186.723
 21
186.3
  0
LINE
  8
0
 10
-248.353
 11
-249.158
 20
186.3
 21
186.039
  0
LINE
  8
0
 10
-249.158
 11
-250
 20
186.039
 21
185.95
  0
LINE
  8
0
 10
-250
 11
-254.05
 20
185.95
 21
185.95
  0
LINE
  8
0
 10
-243.6
 11
-243.522
 20
-162.5
 21
-162.006
  0
LINE
  8
0
 10
-243.522
 11
-243.294
 20
-162.006
 21
-161.56
  0
LINE
  8
0
 10
-243.294
 11
-242.94
 20
-161.56
 21
-161.206
  0
LINE
  8
0
 10
-242.94
 11
-242.494
 20
-161.206
 21
-160.978
  0
LINE
  8
0
 10
-242.494
 11
-242
 20
-160.978
 21
-160.9
  0
LINE
  8
0
 10
-242
 11
-241.506
 20
-160.9
 21
-160.978
  0
LINE
  8
0
 10
-241.506
 11
-241.06
 20
-160.978
 21
-161.206
  0
LINE
  8
0
 10
-241.06
 11
-240.706
 20
-161.206
 21
-161.56
  0
LINE
  8
0
 10
-240.706
 11
-240.478
 20
-161.56
 21
-162.006
  0
LINE
  8
0
 10
-240.478
 11
-240.4
 20
-162.006
 21
-162.5
  0
LINE
  8
0
 10
-240.4
 11
-240.478
 20
-162.5
 21
-162.994
  0
LINE
  8
0
 10
-240.478
 11
-240.706
 20
-162.994
 21
-163.44
  0
LINE
  8
0
 10
-240.706
 11
-241.06
 20
-163.44
 21
-163.794
  0
LINE
  8
0
 10
-241.06
 11
-241.506
 20
-163.794
 21
-164.022
  0
LINE
  8
0
 10
-241.506
 11
-242
 20
-164.022
 21
-164.1
  0
LINE
  8
0
 10
-242
 11
-242.494
 20
-164.1
 21
-164.022
  0
LINE
  8
0
 10
-242.494
 11
-242.94
 20
-164.022
 21
-163.794
  0
LINE
  8
0
 10
-242.94
 11
-243.294
 20
-163.794
 21
-163.44
  0
LINE
  8
0
 10
-243.294
 11
-243.522
 20
-163.44
 21
-162.994
  0
LINE
  8
0
 10
-243.522
 11
-243.6
 20
-162.994
 21
-162.5
  0
LINE
  8
0
 10
-243.6
 11
-243.522
 20
162.5
 21
162.994
  0
LINE
  8
0
 10
-243.522
 11
-243.294
 20
162.994
 21
163.44
  0
LINE
  8
0
 10
-243.294
 11
-242.94
 20
163.44
 21
163.794
  0
LINE
  8
0
 10
-242.94
 11
-242.494
 20
163.794
 21
164.022
  0
LINE
  8
0
 10
-242.494
 11
-242
 20
164.022
 21
164.1
  0
LINE
  8
0
 10
-242
 11
-241.506
 20
164.1
 21
164.022
  0
LINE
  8
0
 10
-241.506
 11
-241.06
 20
164.022
 21
163.794
  0
LINE
  8
0
 10
-241.06
 11
-240.706
 20
163.794
 21
163.44
  0
LINE
  8
0
 10
-240.706
 11
-240.478
 20
163.44
 21
162.994
  0
LINE
  8
0
 10
-240.478
 11
-240.4
 20
162.994
 21
162.5
  0
LINE
  8
0
 10
-240.4
 11
-240.478
 20
162.5
 21
162.006
  0
LINE
  8
0
 10
-240.478
 11
-240.706
 20
162.006
 21
161.56
  0
LINE
  8
0
 10
-240.706
 11
-241.06
 20
161.56
 21
161.206
  0
LINE
  8
0
 10
-241.06
 11
-241.506
 20
161.206
 21
160.978
  0
LINE
  8
0
 10
-241.506
 11
-242
 20
160.978
 21
160.9
  0
LINE
  8
0
 10
-242
 11
-242.494
 20
160.9
 21
160.978
  0
LINE
  8
0
 10
-242.494
 11
-242.94
 20
160.978
 21
161.206
  0
LINE
  8
0
 10
-242.94
 11
-243.294
 20
161.206
 21
161.56
  0
LINE
  8
0
 10
-243.294
 11
-243.522
 20
161.56
 21
162.006
  0
LINE
  8
0
 10
-243.522
 11
-243.6
 20
162.006
 21
162.5
  0
LINE
  8
0
 10
0
 11
0
 20
-94.074
 21
-55.899
  0
LINE
  8
0
 10
0
 11
21.803
 20
-55.899
 21
-55.899
  0
LINE
  8
0
 10
21.803
 11
22.18
 20
-55.899
 21
-55.979
  0
LINE
  8
0
 10
22.18
 11
26
 20
-55.979
 21
-57.679
  0
LINE
  8
0
 10
26
 11
29.383
 20
-57.679
 21
-60.137
  0
LINE
  8
0
 10
29.383
 11
32.18
 20
-60.137
 21
-63.244
  0
LINE
  8
0
 10
32.18
 11
34.271
 20
-63.244
 21
-66.865
  0
LINE
  8
0
 10
34.271
 11
35.518
 20
-66.865
 21
-70.705
  0
LINE
  8
0
 10
35.518
 11
35.518
 20
-70.705
 21
-79.295
  0
LINE
  8
0
 10
35.518
 11
34.271
 20
-79.295
 21
-83.135
  0
LINE
  8
0
 10
34.271
 11
32.18
 20
-83.135
 21
-86.756
  0
LINE
  8
0
 10
32.18
 11
29.383
 20
-86.756
 21
-89.863
  0
LINE
  8
0
 10
29.383
 11
26
 20
-89.863
 21
-92.321
  0
LINE
  8
0
 10
26
 11
22.18
 20
-92.321
 21
-94.021
  0
LINE
  8
0
 10
22.18
 11
21.933
 20
-94.021
 21
-94.074
  0
LINE
  8
0
 10
21.933
 11
0
 20
-94.074
 21
-94.074
  0
LINE
  8
0
 10
0
 11
0
 20
-25.074
 21
23.101
  0
LINE
  8
0
 10
0
 11
4.926
 20
23.101
 21
23.101
  0
LINE
  8
0
 10
4.926
 11
5
 20
23.101
 21
23
  0
LINE
  8
0
 10
5
 11
5
 20
23
 21
20.101
  0
LINE
  8
0
 10
5
 11
21.803
 20
20.101
 21
20.101
  0
LINE
  8
0
 10
21.803
 11
22.18
 20
20.101
 21
20.021
  0
LINE
  8
0
 10
22.18
 11
26
 20
20.021
 21
18.321
  0
LINE
  8
0
 10
26
 11
29.383
 20
18.321
 21
15.863
  0
LINE
  8
0
 10
29.383
 11
32.18
 20
15.863
 21
12.756
  0
LINE
  8
0
 10
32.18
 11
34.271
 20
12.756
 21
9.135
  0
LINE
  8
0
 10
34.271
 11
35.518
 20
9.135
 21
5.295
  0
LINE
  8
0
 10
35.518
 11
35.518
 20
5.295
 21
-10.295
  0
LINE
  8
0
 10
35.518
 11
34.271
 20
-10.295
 21
-14.135
  0
LINE
  8
0
 10
34.271
 11
32.18
 20
-14.135
 21
-17.756
  0
LINE
  8
0
 10
32.18
 11
29.383
 20
-17.756
 21
-20.863
  0
LINE
  8
0
 10
29.383
 11
26
 20
-20.863
 21
-23.321
  0
LINE
  8
0
 10
26
 11
22.18
 20
-23.321
 21
-25.021
  0
LINE
  8
0
 10
22.18
 11
21.933
 20
-25.021
 21
-25.074
  0
LINE
  8
0
 10
21.933
 11
0
 20
-25.074
 21
-25.074
  0
LINE
  8
0
 10
0
 11
0
 20
55.926
 21
94.101
  0
LINE
  8
0
 10
0
 11
21.803
 20
94.101
 21
94.101
  0
LINE
  8
0
 10
21.803
 11
22.18
 20
94.101
 21
94.021
  0
LINE
  8
0
 10
22.18
 11
26
 20
94.021
 21
92.321
  0
LINE
  8
0
 10
26
 11
29.383
 20
92.321
 21
89.863
  0
LINE
  8
0
 10
29.383
 11
32.18
 20
89.863
 21
86.756
  0
LINE
  8
0
 10
32.18
 11
34.271
 20
86.756
 21
83.135
  0
LINE
  8
0
 10
34.271
 11
35.518
 20
83.135
 21
79.295
  0
LINE
  8
0
 10
35.518
 11
35.518
 20
79.295
 21
70.705
  0
LINE
  8
0
 10
35.518
 11
34.271
 20
70.705
 21
66.865
  0
LINE
  8
0
 10
34.271
 11
32.18
 20
66.865
 21
63.244
  0
LINE
  8
0
 10
32.18
 11
29.383
 20
63.244
 21
60.137
  0
LINE
  8
0
 10
29.383
 11
26
 20
60.137
 21
57.679
  0
LINE
  8
0
 10
26
 11
22.18
 20
57.679
 21
55.979
  0
LINE
  8
0
 10
22.18
 11
21.933
 20
55.979
 21
55.926
  0
LINE
  8
0
 10
21.933
 11
0
 20
55.926
 21
55.926
  0
LINE
  8
0
 10
3.2
 11
3.239
 20
-88.5
 21
-88.126
  0
LINE
  8
0
 10
3.239
 11
3.356
 20
-88.126
 21
-87.768
  0
LINE
  8
0
 10
3.356
 11
3.544
 20
-87.768
 21
-87.442
  0
LINE
  8
0
 10
3.544
 11
3.796
 20
-87.442
 21
-87.162
  0
LINE
  8
0
 10
3.796
 11
4.1
 20
-87.162
 21
-86.941
  0
LINE
  8
0
 10
4.1
 11
4.444
 20
-86.941
 21
-86.788
  0
LINE
  8
0
 10
4.444
 11
4.812
 20
-86.788
 21
-86.71
  0
LINE
  8
0
 10
4.812
 11
5.188
 20
-86.71
 21
-86.71
  0
LINE
  8
0
 10
5.188
 11
5.556
 20
-86.71
 21
-86.788
  0
LINE
  8
0
 10
5.556
 11
5.9
 20
-86.788
 21
-86.941
  0
LINE
  8
0
 10
5.9
 11
6.204
 20
-86.941
 21
-87.162
  0
LINE
  8
0
 10
6.204
 11
6.456
 20
-87.162
 21
-87.442
  0
LINE
  8
0
 10
6.456
 11
6.644
 20
-87.442
 21
-87.768
  0
LINE
  8
0
 10
6.644
 11
6.761
 20
-87.768
 21
-88.126
  0
LINE
  8
0
 10
6.761
 11
6.8
 20
-88.126
 21
-88.5
  0
LINE
  8
0
 10
6.8
 11
6.761
 20
-88.5
 21
-88.874
  0
LINE
  8
0
 10
6.761
 11
6.644
 20
-88.874
 21
-89.232
  0
LINE
  8
0
 10
6.644
 11
6.456
 20
-89.232
 21
-89.558
  0
LINE
  8
0
 10
6.456
 11
6.204
 20
-89.558
 21
-89.838
  0
LINE
  8
0
 10
6.204
 11
5.9
 20
-89.838
 21
-90.059
  0
LINE
  8
0
 10
5.9
 11
5.556
 20
-90.059
 21
-90.212
  0
LINE
  8
0
 10
5.556
 11
5.188
 20
-90.212
 21
-90.29
  0
LINE
  8
0
 10
5.188
 11
4.812
 20
-90.29
 21
-90.29
  0
LINE
  8
0
 10
4.812
 11
4.444
 20
-90.29
 21
-90.212
  0
LINE
  8
0
 10
4.444
 11
4.1
 20
-90.212
 21
-90.059
  0
LINE
  8
0
 10
4.1
 11
3.796
 20
-90.059
 21
-89.838
  0
LINE
  8
0
 10
3.796
 11
3.544
 20
-89.838
 21
-89.558
  0
LINE
  8
0
 10
3.544
 11
3.356
 20
-89.558
 21
-89.232
  0
LINE
  8
0
 10
3.356
 11
3.239
 20
-89.232
 21
-88.874
  0
LINE
  8
0
 10
3.239
 11
3.2
 20
-88.874
 21
-88.5
  0
LINE
  8
0
 10
3.2
 11
3.239
 20
-61.5
 21
-61.126
  0
LINE
  8
0
 10
3.239
 11
3.356
 20
-61.126
 21
-60.768
  0
LINE
  8
0
 10
3.356
 11
3.544
 20
-60.768
 21
-60.442
  0
LINE
  8
0
 10
3.544
 11
3.796
 20
-60.442
 21
-60.162
  0
LINE
  8
0
 10
3.796
 11
4.1
 20
-60.162
 21
-59.941
  0
LINE
  8
0
 10
4.1
 11
4.444
 20
-59.941
 21
-59.788
  0
LINE
  8
0
 10
4.444
 11
4.812
 20
-59.788
 21
-59.71
  0
LINE
  8
0
 10
4.812
 11
5.188
 20
-59.71
 21
-59.71
  0
LINE
  8
0
 10
5.188
 11
5.556
 20
-59.71
 21
-59.788
  0
LINE
  8
0
 10
5.556
 11
5.9
 20
-59.788
 21
-59.941
  0
LINE
  8
0
 10
5.9
 11
6.204
 20
-59.941
 21
-60.162
  0
LINE
  8
0
 10
6.204
 11
6.456
 20
-60.162
 21
-60.442
  0
LINE
  8
0
 10
6.456
 11
6.644
 20
-60.442
 21
-60.768
  0
LINE
  8
0
 10
6.644
 11
6.761
 20
-60.768
 21
-61.126
  0
LINE
  8
0
 10
6.761
 11
6.8
 20
-61.126
 21
-61.5
  0
LINE
  8
0
 10
6.8
 11
6.761
 20
-61.5
 21
-61.874
  0
LINE
  8
0
 10
6.761
 11
6.644
 20
-61.874
 21
-62.232
  0
LINE
  8
0
 10
6.644
 11
6.456
 20
-62.232
 21
-62.558
  0
LINE
  8
0
 10
6.456
 11
6.204
 20
-62.558
 21
-62.838
  0
LINE
  8
0
 10
6.204
 11
5.9
 20
-62.838
 21
-63.059
  0
LINE
  8
0
 10
5.9
 11
5.556
 20
-63.059
 21
-63.212
  0
LINE
  8
0
 10
5.556
 11
5.188
 20
-63.212
 21
-63.29
  0
LINE
  8
0
 10
5.188
 11
4.812
 20
-63.29
 21
-63.29
  0
LINE
  8
0
 10
4.812
 11
4.444
 20
-63.29
 21
-63.212
  0
LINE
  8
0
 10
4.444
 11
4.1
 20
-63.212
 21
-63.059
  0
LINE
  8
0
 10
4.1
 11
3.796
 20
-63.059
 21
-62.838
  0
LINE
  8
0
 10
3.796
 11
3.544
 20
-62.838
 21
-62.558
  0
LINE
  8
0
 10
3.544
 11
3.356
 20
-62.558
 21
-62.232
  0
LINE
  8
0
 10
3.356
 11
3.239
 20
-62.232
 21
-61.874
  0
LINE
  8
0
 10
3.239
 11
3.2
 20
-61.874
 21
-61.5
  0
LINE
  8
0
 10
3.2
 11
3.239
 20
61.5
 21
61.874
  0
LINE
  8
0
 10
3.239
 11
3.356
 20
61.874
 21
62.232
  0
LINE
  8
0
 10
3.356
 11
3.544
 20
62.232
 21
62.558
  0
LINE
  8
0
 10
3.544
 11
3.796
 20
62.558
 21
62.838
  0
LINE
  8
0
 10
3.796
 11
4.1
 20
62.838
 21
63.059
  0
LINE
  8
0
 10
4.1
 11
4.444
 20
63.059
 21
63.212
  0
LINE
  8
0
 10
4.444
 11
4.812
 20
63.212
 21
63.29
  0
LINE
  8
0
 10
4.812
 11
5.188
 20
63.29
 21
63.29
  0
LINE
  8
0
 10
5.188
 11
5.556
 20
63.29
 21
63.212
  0
LINE
  8
0
 10
5.556
 11
5.9
 20
63.212
 21
63.059
  0
LINE
  8
0
 10
5.9
 11
6.204
 20
63.059
 21
62.838
  0
LINE
  8
0
 10
6.204
 11
6.456
 20
62.838
 21
62.558
  0
LINE
  8
0
 10
6.456
 11
6.644
 20
62.558
 21
62.232
  0
LINE
  8
0
 10
6.644
 11
6.761
 20
62.232
 21
61.874
  0
LINE
  8
0
 10
6.761
 11
6.8
 20
61.874
 21
61.5
  0
LINE
  8
0
 10
6.8
 11
6.761
 20
61.5
 21
61.126
  0
LINE
  8
0
 10
6.761
 11
6.644
 20
61.126
 21
60.768
  0
LINE
  8
0
 10
6.644
 11
6.456
 20
60.768
 21
60.442
  0
LINE
  8
0
 10
6.456
 11
6.204
 20
60.442
 21
60.162
  0
LINE
  8
0
 10
6.204
 11
5.9
 20
60.162
 21
59.941
  0
LINE
  8
0
 10
5.9
 11
5.556
 20
59.941
 21
59.788
  0
LINE
  8
0
 10
5.556
 11
5.188
 20
59.788
 21
59.71
  0
LINE
  8
0
 10
5.188
 11
4.812
 20
59.71
 21
59.71
  0
LINE
  8
0
 10
4.812
 11
4.444
 20
59.71
 21
59.788
  0
LINE
  8
0
 10
4.444
 11
4.1
 20
59.788
 21
59.941
  0
LINE
  8
0
 10
4.1
 11
3.796
 20
59.941
 21
60.162
  0
LINE
  8
0
 10
3.796
 11
3.544
 20
60.162
 21
60.442
  0
LINE
  8
0
 10
3.544
 11
3.356
 20
60.442
 21
60.768
  0
LINE
  8
0
 10
3.356
 11
3.239
 20
60.768
 21
61.126
  0
LINE
  8
0
 10
3.239
 11
3.2
 20
61.126
 21
61.5
  0
LINE
  8
0
 10
3.2
 11
3.239
 20
88.5
 21
88.874
  0
LINE
  8
0
 10
3.239
 11
3.356
 20
88.874
 21
89.232
  0
LINE
  8
0
 10
3.356
 11
3.544
 20
89.232
 21
89.558
  0
LINE
  8
0
 10
3.544
 11
3.796
 20
89.558
 21
89.838
  0
LINE
  8
0
 10
3.796
 11
4.1
 20
89.838
 21
90.059
  0
LINE
  8
0
 10
4.1
 11
4.444
 20
90.059
 21
90.212
  0
LINE
  8
0
 10
4.444
 11
4.812
 20
90.212
 21
90.29
  0
LINE
  8
0
 10
4.812
 11
5.188
 20
90.29
 21
90.29
  0
LINE
  8
0
 10
5.188
 11
5.556
 20
90.29
 21
90.212
  0
LINE
  8
0
 10
5.556
 11
5.9
 20
90.212
 21
90.059
  0
LINE
  8
0
 10
5.9
 11
6.204
 20
90.059
 21
89.838
  0
LINE
  8
0
 10
6.204
 11
6.456
 20
89.838
 21
89.558
  0
LINE
  8
0
 10
6.456
 11
6.644
 20
89.558
 21
89.232
  0
LINE
  8
0
 10
6.644
 11
6.761
 20
89.232
 21
88.874
  0
LINE
  8
0
 10
6.761
 11
6.8
 20
88.874
 21
88.5
  0
LINE
  8
0
 10
6.8
 11
6.761
 20
88.5
 21
88.126
  0
LINE
  8
0
 10
6.761
 11
6.644
 20
88.126
 21
87.768
  0
LINE
  8
0
 10
6.644
 11
6.456
 20
87.768
 21
87.442
  0
LINE
  8
0
 10
6.456
 11
6.204
 20
87.442
 21
87.162
  0
LINE
  8
0
 10
6.204
 11
5.9
 20
87.162
 21
86.941
  0
LINE
  8
0
 10
5.9
 11
5.556
 20
86.941
 21
86.788
  0
LINE
  8
0
 10
5.556
 11
5.188
 20
86.788
 21
86.71
  0
LINE
  8
0
 10
5.188
 11
4.812
 20
86.71
 21
86.71
  0
LINE
  8
0
 10
4.812
 11
4.444
 20
86.71
 21
86.788
  0
LINE
  8
0
 10
4.444
 11
4.1
 20
86.788
 21
86.941
  0
LINE
  8
0
 10
4.1
 11
3.796
 20
86.941
 21
87.162
  0
LINE
  8
0
 10
3.796
 11
3.544
 20
87.162
 21
87.442
  0
LINE
  8
0
 10
3.544
 11
3.356
 20
87.442
 21
87.768
  0
LINE
  8
0
 10
3.356
 11
3.239
 20
87.768
 21
88.126
  0
LINE
  8
0
 10
3.239
 11
3.2
 20
88.126
 21
88.5
  0
LINE
  8
0
 10
6
 11
6.197
 20
-1
 21
0.871
  0
LINE
  8
0
 10
6.197
 11
6.778
 20
0.871
 21
2.661
  0
LINE
  8
0
 10
6.778
 11
7.719
 20
2.661
 21
4.29
  0
LINE
  8
0
 10
7.719
 11
8.978
 20
4.29
 21
5.688
  0
LINE
  8
0
 10
8.978
 11
10.5
 20
5.688
 21
6.794
  0
LINE
  8
0
 10
10.5
 11
12.219
 20
6.794
 21
7.56
  0
LINE
  8
0
 10
12.219
 11
14.059
 20
7.56
 21
7.951
  0
LINE
  8
0
 10
14.059
 11
15.941
 20
7.951
 21
7.951
  0
LINE
  8
0
 10
15.941
 11
17.781
 20
7.951
 21
7.56
  0
LINE
  8
0
 10
17.781
 11
19.5
 20
7.56
 21
6.794
  0
LINE
  8
0
 10
19.5
 11
21.022
 20
6.794
 21
5.688
  0
LINE
  8
0
 10
21.022
 11
22.281
 20
5.688
 21
4.29
  0
LINE
  8
0
 10
22.281
 11
23.222
 20
4.29
 21
2.661
  0
LINE
  8
0
 10
23.222
 11
23.803
 20
2.661
 21
0.871
  0
LINE
  8
0
 10
23.803
 11
24
 20
0.871
 21
-1
  0
LINE
  8
0
 10
24
 11
23.803
 20
-1
 21
-2.871
  0
LINE
  8
0
 10
23.803
 11
23.222
 20
-2.871
 21
-4.661
  0
LINE
  8
0
 10
23.222
 11
22.281
 20
-4.661
 21
-6.29
  0
LINE
  8
0
 10
22.281
 11
21.022
 20
-6.29
 21
-7.688
  0
LINE
  8
0
 10
21.022
 11
19.5
 20
-7.688
 21
-8.794
  0
LINE
  8
0
 10
19.5
 11
17.781
 20
-8.794
 21
-9.56
  0
LINE
  8
0
 10
17.781
 11
15.941
 20
-9.56
 21
-9.951
  0
LINE
  8
0
 10
15.941
 11
14.059
 20
-9.951
 21
-9.951
  0
LINE
  8
0
 10
14.059
 11
12.219
 20
-9.951
 21
-9.56
  0
LINE
  8
0
 10
12.219
 11
10.5
 20
-9.56
 21
-8.794
  0
LINE
  8
0
 10
10.5
 11
8.978
 20
-8.794
 21
-7.688
  0
LINE
  8
0
 10
8.978
 11
7.719
 20
-7.688
 21
-6.29
  0
LINE
  8
0
 10
7.719
 11
6.778
 20
-6.29
 21
-4.661
  0
LINE
  8
0
 10
6.778
 11
6.197
 20
-4.661
 21
-2.871
  0
LINE
  8
0
 10
6.197
 11
6
 20
-2.871
 21
-1
  0
LINE
  8
0
 10
8.2
 11
8.239
 20
-16
 21
-15.626
  0
LINE
  8
0
 10
8.239
 11
8.356
 20
-15.626
 21
-15.268
  0
LINE
  8
0
 10
8.356
 11
8.544
 20
-15.268
 21
-14.942
  0
LINE
  8
0
 10
8.544
 11
8.796
 20
-14.942
 21
-14.662
  0
LINE
  8
0
 10
8.796
 11
9.1
 20
-14.662
 21
-14.441
  0
LINE
  8
0
 10
9.1
 11
9.444
 20
-14.441
 21
-14.288
  0
LINE
  8
0
 10
9.444
 11
9.812
 20
-14.288
 21
-14.21
  0
LINE
  8
0
 10
9.812
 11
10.188
 20
-14.21
 21
-14.21
  0
LINE
  8
0
 10
10.188
 11
10.556
 20
-14.21
 21
-14.288
  0
LINE
  8
0
 10
10.556
 11
10.9
 20
-14.288
 21
-14.441
  0
LINE
  8
0
 10
10.9
 11
11.204
 20
-14.441
 21
-14.662
  0
LINE
  8
0
 10
11.204
 11
11.456
 20
-14.662
 21
-14.942
  0
LINE
  8
0
 10
11.456
 11
11.644
 20
-14.942
 21
-15.268
  0
LINE
  8
0
 10
11.644
 11
11.761
 20
-15.268
 21
-15.626
  0
LINE
  8
0
 10
11.761
 11
11.8
 20
-15.626
 21
-16
  0
LINE
  8
0
 10
11.8
 11
11.761
 20
-16
 21
-16.374
  0
LINE
  8
0
 10
11.761
 11
11.644
 20
-16.374
 21
-16.732
  0
LINE
  8
0
 10
11.644
 11
11.456
 20
-16.732
 21
-17.058
  0
LINE
  8
0
 10
11.456
 11
11.204
 20
-17.058
 21
-17.338
  0
LINE
  8
0
 10
11.204
 11
10.9
 20
-17.338
 21
-17.559
  0
LINE
  8
0
 10
10.9
 11
10.556
 20
-17.559
 21
-17.712
  0
LINE
  8
0
 10
10.556
 11
10.188
 20
-17.712
 21
-17.79
  0
LINE
  8
0
 10
10.188
 11
9.812
 20
-17.79
 21
-17.79
  0
LINE
  8
0
 10
9.812
 11
9.444
 20
-17.79
 21
-17.712
  0
LINE
  8
0
 10
9.444
 11
9.1
 20
-17.712
 21
-17.559
  0
LINE
  8
0
 10
9.1
 11
8.796
 20
-17.559
 21
-17.338
  0
LINE
  8
0
 10
8.796
 11
8.544
 20
-17.338
 21
-17.058
  0
LINE
  8
0
 10
8.544
 11
8.356
 20
-17.058
 21
-16.732
  0
LINE
  8
0
 10
8.356
 11
8.239
 20
-16.732
 21
-16.374
  0
LINE
  8
0
 10
8.239
 11
8.2
 20
-16.374
 21
-16
  0
LINE
  8
0
 10
8.2
 11
8.239
 20
15
 21
15.374
  0
LINE
  8
0
 10
8.239
 11
8.356
 20
15.374
 21
15.732
  0
LINE
  8
0
 10
8.356
 11
8.544
 20
15.732
 21
16.058
  0
LINE
  8
0
 10
8.544
 11
8.796
 20
16.058
 21
16.338
  0
LINE
  8
0
 10
8.796
 11
9.1
 20
16.338
 21
16.559
  0
LINE
  8
0
 10
9.1
 11
9.444
 20
16.559
 21
16.712
  0
LINE
  8
0
 10
9.444
 11
9.812
 20
16.712
 21
16.79
  0
LINE
  8
0
 10
9.812
 11
10.188
 20
16.79
 21
16.79
  0
LINE
  8
0
 10
10.188
 11
10.556
 20
16.79
 21
16.712
  0
LINE
  8
0
 10
10.556
 11
10.9
 20
16.712
 21
16.559
  0
LINE
  8
0
 10
10.9
 11
11.204
 20
16.559
 21
16.338
  0
LINE
  8
0
 10
11.204
 11
11.456
 20
16.338
 21
16.058
  0
LINE
  8
0
 10
11.456
 11
11.644
 20
16.058
 21
15.732
  0
LINE
  8
0
 10
11.644
 11
11.761
 20
15.732
 21
15.374
  0
LINE
  8
0
 10
11.761
 11
11.8
 20
15.374
 21
15
  0
LINE
  8
0
 10
11.8
 11
11.761
 20
15
 21
14.626
  0
LINE
  8
0
 10
11.761
 11
11.644
 20
14.626
 21
14.268
  0
LINE
  8
0
 10
11.644
 11
11.456
 20
14.268
 21
13.942
  0
LINE
  8
0
 10
11.456
 11
11.204
 20
13.942
 21
13.662
  0
LINE
  8
0
 10
11.204
 11
10.9
 20
13.662
 21
13.441
  0
LINE
  8
0
 10
10.9
 11
10.556
 20
13.441
 21
13.288
  0
LINE
  8
0
 10
10.556
 11
10.188
 20
13.288
 21
13.21
  0
LINE
  8
0
 10
10.188
 11
9.812
 20
13.21
 21
13.21
  0
LINE
  8
0
 10
9.812
 11
9.444
 20
13.21
 21
13.288
  0
LINE
  8
0
 10
9.444
 11
9.1
 20
13.288
 21
13.441
  0
LINE
  8
0
 10
9.1
 11
8.796
 20
13.441
 21
13.662
  0
LINE
  8
0
 10
8.796
 11
8.544
 20
13.662
 21
13.942
  0
LINE
  8
0
 10
8.544
 11
8.356
 20
13.942
 21
14.268
  0
LINE
  8
0
 10
8.356
 11
8.239
 20
14.268
 21
14.626
  0
LINE
  8
0
 10
8.239
 11
8.2
 20
14.626
 21
15
  0
LINE
  8
0
 10
28.2
 11
28.239
 20
-0.5
 21
-0.126
  0
LINE
  8
0
 10
28.239
 11
28.356
 20
-0.126
 21
0.232
  0
LINE
  8
0
 10
28.356
 11
28.544
 20
0.232
 21
0.558
  0
LINE
  8
0
 10
28.544
 11
28.796
 20
0.558
 21
0.838
  0
LINE
  8
0
 10
28.796
 11
29.1
 20
0.838
 21
1.059
  0
LINE
  8
0
 10
29.1
 11
29.444
 20
1.059
 21
1.212
  0
LINE
  8
0
 10
29.444
 11
29.812
 20
1.212
 21
1.29
  0
LINE
  8
0
 10
29.812
 11
30.188
 20
1.29
 21
1.29
  0
LINE
  8
0
 10
30.188
 11
30.556
 20
1.29
 21
1.212
  0
LINE
  8
0
 10
30.556
 11
30.9
 20
1.212
 21
1.059
  0
LINE
  8
0
 10
30.9
 11
31.204
 20
1.059
 21
0.838
  0
LINE
  8
0
 10
31.204
 11
31.456
 20
0.838
 21
0.558
  0
LINE
  8
0
 10
31.456
 11
31.644
 20
0.558
 21
0.232
  0
LINE
  8
0
 10
31.644
 11
31.761
 20
0.232
 21
-0.126
  0
LINE
  8
0
 10
31.761
 11
31.8
 20
-0.126
 21
-0.5
  0
LINE
  8
0
 10
31.8
 11
31.761
 20
-0.5
 21
-0.874
  0
LINE
  8
0
 10
31.761
 11
31.644
 20
-0.874
 21
-1.232
  0
LINE
  8
0
 10
31.644
 11
31.456
 20
-1.232
 21
-1.558
  0
LINE
  8
0
 10
31.456
 11
31.204
 20
-1.558
 21
-1.838
  0
LINE
  8
0
 10
31.204
 11
30.9
 20
-1.838
 21
-2.059
  0
LINE
  8
0
 10
30.9
 11
30.556
 20
-2.059
 21
-2.212
  0
LINE
  8
0
 10
30.556
 11
30.188
 20
-2.212
 21
-2.29
  0
LINE
  8
0
 10
30.188
 11
29.812
 20
-2.29
 21
-2.29
  0
LINE
  8
0
 10
29.812
 11
29.444
 20
-2.29
 21
-2.212
  0
LINE
  8
0
 10
29.444
 11
29.1
 20
-2.212
 21
-2.059
  0
LINE
  8
0
 10
29.1
 11
28.796
 20
-2.059
 21
-1.838
  0
LINE
  8
0
 10
28.796
 11
28.544
 20
-1.838
 21
-1.558
  0
LINE
  8
0
 10
28.544
 11
28.356
 20
-1.558
 21
-1.232
  0
LINE
  8
0
 10
28.356
 11
28.239
 20
-1.232
 21
-0.874
  0
LINE
  8
0
 10
28.239
 11
28.2
 20
-0.874
 21
-0.5
  0
LINE
  8
0
 10
30.2
 11
30.239
 20
-75
 21
-74.626
  0
LINE
  8
0
 10
30.239
 11
30.356
 20
-74.626
 21
-74.268
  0
LINE
  8
0
 10
30.356
 11
30.544
 20
-74.268
 21
-73.942
  0
LINE
  8
0
 10
30.544
 11
30.796
 20
-73.942
 21
-73.662
  0
LINE
  8
0
 10
30.796
 11
31.1
 20
-73.662
 21
-73.441
  0
LINE
  8
0
 10
31.1
 11
31.444
 20
-73.441
 21
-73.288
  0
LINE
  8
0
 10
31.444
 11
31.812
 20
-73.288
 21
-73.21
  0
LINE
  8
0
 10
31.812
 11
32.188
 20
-73.21
 21
-73.21
  0
LINE
  8
0
 10
32.188
 11
32.556
 20
-73.21
 21
-73.288
  0
LINE
  8
0
 10
32.556
 11
32.9
 20
-73.288
 21
-73.441
  0
LINE
  8
0
 10
32.9
 11
33.204
 20
-73.441
 21
-73.662
  0
LINE
  8
0
 10
33.204
 11
33.456
 20
-73.662
 21
-73.942
  0
LINE
  8
0
 10
33.456
 11
33.644
 20
-73.942
 21
-74.268
  0
LINE
  8
0
 10
33.644
 11
33.761
 20
-74.268
 21
-74.626
  0
LINE
  8
0
 10
33.761
 11
33.8
 20
-74.626
 21
-75
  0
LINE
  8
0
 10
33.8
 11
33.761
 20
-75
 21
-75.374
  0
LINE
  8
0
 10
33.761
 11
33.644
 20
-75.374
 21
-75.732
  0
LINE
  8
0
 10
33.644
 11
33.456
 20
-75.732
 21
-76.058
  0
LINE
  8
0
 10
33.456
 11
33.204
 20
-76.058
 21
-76.338
  0
LINE
  8
0
 10
33.204
 11
32.9
 20
-76.338
 21
-76.559
  0
LINE
  8
0
 10
32.9
 11
32.556
 20
-76.559
 21
-76.712
  0
LINE
  8
0
 10
32.556
 11
32.188
 20
-76.712
 21
-76.79
  0
LINE
  8
0
 10
32.188
 11
31.812
 20
-76.79
 21
-76.79
  0
LINE
  8
0
 10
31.812
 11
31.444
 20
-76.79
 21
-76.712
  0
LINE
  8
0
 10
31.444
 11
31.1
 20
-76.712
 21
-76.559
  0
LINE
  8
0
 10
31.1
 11
30.796
 20
-76.559
 21
-76.338
  0
LINE
  8
0
 10
30.796
 11
30.544
 20
-76.338
 21
-76.058
  0
LINE
  8
0
 10
30.544
 11
30.356
 20
-76.058
 21
-75.732
  0
LINE
  8
0
 10
30.356
 11
30.239
 20
-75.732
 21
-75.374
  0
LINE
  8
0
 10
30.239
 11
30.2
 20
-75.374
 21
-75
  0
LINE
  8
0
 10
30.2
 11
30.239
 20
75
 21
75.374
  0
LINE
  8
0
 10
30.239
 11
30.356
 20
75.374
 21
75.732
  0
LINE
  8
0
 10
30.356
 11
30.544
 20
75.732
 21
76.058
  0
LINE
  8
0
 10
30.544
 11
30.796
 20
76.058
 21
76.338
  0
LINE
  8
0
 10
30.796
 11
31.1
 20
76.338
 21
76.559
  0
LINE
  8
0
 10
31.1
 11
31.444
 20
76.559
 21
76.712
  0
LINE
  8
0
 10
31.444
 11
31.812
 20
76.712
 21
76.79
  0
LINE
  8
0
 10
31.812
 11
32.188
 20
76.79
 21
76.79
  0
LINE
  8
0
 10
32.188
 11
32.556
 20
76.79
 21
76.712
  0
LINE
  8
0
 10
32.556
 11
32.9
 20
76.712
 21
76.559
  0
LINE
  8
0
 10
32.9
 11
33.204
 20
76.559
 21
76.338
  0
LINE
  8
0
 10
33.204
 11
33.456
 20
76.338
 21
76.058
  0
LINE
  8
0
 10
33.456
 11
33.644
 20
76.058
 21
75.732
  0
LINE
  8
0
 10
33.644
 11
33.761
 20
75.732
 21
75.374
  0
LINE
  8
0
 10
33.761
 11
33.8
 20
75.374
 21
75
  0
LINE
  8
0
 10
33.8
 11
33.761
 20
75
 21
74.626
  0
LINE
  8
0
 10
33.761
 11
33.644
 20
74.626
 21
74.268
  0
LINE
  8
0
 10
33.644
 11
33.456
 20
74.268
 21
73.942
  0
LINE
  8
0
 10
33.456
 11
33.204
 20
73.942
 21
73.662
  0
LINE
  8
0
 10
33.204
 11
32.9
 20
73.662
 21
73.441
  0
LINE
  8
0
 10
32.9
 11
32.556
 20
73.441
 21
73.288
  0
LINE
  8
0
 10
32.556
 11
32.188
 20
73.288
 21
73.21
  0
LINE
  8
0
 10
32.188
 11
31.812
 20
73.21
 21
73.21
  0
LINE
  8
0
 10
31.812
 11
31.444
 20
73.21
 21
73.288
  0
LINE
  8
0
 10
31.444
 11
31.1
 20
73.288
 21
73.441
  0
LINE
  8
0
 10
31.1
 11
30.796
 20
73.441
 21
73.662
  0
LINE
  8
0
 10
30.796
 11
30.544
 20
73.662
 21
73.942
  0
LINE
  8
0
 10
30.544
 11
30.356
 20
73.942
 21
74.268
  0
LINE
  8
0
 10
30.356
 11
30.239
 20
74.268
 21
74.626
  0
LINE
  8
0
 10
30.239
 11
30.2
 20
74.626
 21
75
  0
ENDSEC
  0
SECTION
  2
OBJECTS
  0
DICTIONARY
  0
ENDSEC
  0
EOF
