solid OpenSCAD_Model
  facet normal -1 0 0
    outer loop
      vertex -5 5 -1.11022e-15
      vertex -5 -27 5.9952e-15
      vertex -5 5 0.4
    endloop
  endfacet
  facet normal -1 0 0
    outer loop
      vertex -5 5 0.4
      vertex -5 -27 5.9952e-15
      vertex -5 -27 0.4
    endloop
  endfacet
  facet normal 0 -2.22045e-16 -1
    outer loop
      vertex -5 5 -1.11022e-15
      vertex 28 5 -1.11022e-15
      vertex -5 -27 5.9952e-15
    endloop
  endfacet
  facet normal 0 -2.22045e-16 -1
    outer loop
      vertex -5 -27 5.9952e-15
      vertex 28 5 -1.11022e-15
      vertex 28 -27 5.9952e-15
    endloop
  endfacet
  facet normal 0 1 -2.22045e-16
    outer loop
      vertex -5 5 -1.11022e-15
      vertex -5 5 0.4
      vertex 28 5 -1.11022e-15
    endloop
  endfacet
  facet normal 0 1 -2.22045e-16
    outer loop
      vertex 28 5 -1.11022e-15
      vertex -5 5 0.4
      vertex 28 5 0.4
    endloop
  endfacet
  facet normal 0 2.22045e-16 1
    outer loop
      vertex 0 -22 0.4
      vertex -5 5 0.4
      vertex -5 -27 0.4
    endloop
  endfacet
  facet normal 0 2.22045e-16 1
    outer loop
      vertex 0 8.88178e-17 0.4
      vertex 23 8.88178e-17 0.4
      vertex 28 5 0.4
    endloop
  endfacet
  facet normal 0 2.22045e-16 1
    outer loop
      vertex 0 8.88178e-17 0.4
      vertex -5 5 0.4
      vertex 0 -22 0.4
    endloop
  endfacet
  facet normal 0 2.22045e-16 1
    outer loop
      vertex 28 5 0.4
      vertex -5 5 0.4
      vertex 0 8.88178e-17 0.4
    endloop
  endfacet
  facet normal 0 2.22045e-16 1
    outer loop
      vertex 28 -27 0.4
      vertex 28 5 0.4
      vertex 23 8.88178e-17 0.4
    endloop
  endfacet
  facet normal 0 2.22045e-16 1
    outer loop
      vertex 28 -27 0.4
      vertex 23 -22 0.4
      vertex -5 -27 0.4
    endloop
  endfacet
  facet normal 0 2.22045e-16 1
    outer loop
      vertex 28 -27 0.4
      vertex 23 8.88178e-17 0.4
      vertex 23 -22 0.4
    endloop
  endfacet
  facet normal 0 2.22045e-16 1
    outer loop
      vertex 23 -22 0.4
      vertex 0 -22 0.4
      vertex -5 -27 0.4
    endloop
  endfacet
  facet normal 0 -1 2.22045e-16
    outer loop
      vertex -5 -27 0.4
      vertex -5 -27 5.9952e-15
      vertex 28 -27 5.9952e-15
    endloop
  endfacet
  facet normal 0 -1 2.22045e-16
    outer loop
      vertex 28 -27 0.4
      vertex -5 -27 0.4
      vertex 28 -27 5.9952e-15
    endloop
  endfacet
  facet normal 1 0 0
    outer loop
      vertex 28 -27 5.9952e-15
      vertex 28 5 -1.11022e-15
      vertex 28 5 0.4
    endloop
  endfacet
  facet normal 1 0 0
    outer loop
      vertex 28 -27 0.4
      vertex 28 -27 5.9952e-15
      vertex 28 5 0.4
    endloop
  endfacet
  facet normal -1 0 0
    outer loop
      vertex 0 -20.0311 7.75
      vertex 0 -22 0.4
      vertex 0 -22 12
    endloop
  endfacet
  facet normal -1 0 0
    outer loop
      vertex 0 8.88178e-17 0.4
      vertex 0 -22 0.4
      vertex 0 -17 2.5
    endloop
  endfacet
  facet normal -1 0 0
    outer loop
      vertex 0 8.88178e-17 0.4
      vertex 0 -17 2.5
      vertex 0 2.66454e-15 12
    endloop
  endfacet
  facet normal -1 0 0
    outer loop
      vertex 0 -13.9689 7.75
      vertex 0 2.66454e-15 12
      vertex 0 -13.9689 4.25
    endloop
  endfacet
  facet normal -1 0 0
    outer loop
      vertex 0 -17 2.5
      vertex 0 -13.9689 4.25
      vertex 0 2.66454e-15 12
    endloop
  endfacet
  facet normal -1 0 0
    outer loop
      vertex 0 2.66454e-15 12
      vertex 0 -13.9689 7.75
      vertex 0 -17 9.5
    endloop
  endfacet
  facet normal -1 0 0
    outer loop
      vertex 0 2.66454e-15 12
      vertex 0 -17 9.5
      vertex 0 -22 12
    endloop
  endfacet
  facet normal -1 0 0
    outer loop
      vertex 0 -20.0311 4.25
      vertex 0 -22 0.4
      vertex 0 -20.0311 7.75
    endloop
  endfacet
  facet normal -1 0 0
    outer loop
      vertex 0 -17 2.5
      vertex 0 -22 0.4
      vertex 0 -20.0311 4.25
    endloop
  endfacet
  facet normal -1 0 0
    outer loop
      vertex 0 -20.0311 7.75
      vertex 0 -22 12
      vertex 0 -17 9.5
    endloop
  endfacet
  facet normal 0 -1 2.22045e-16
    outer loop
      vertex 16.5 -22 0.4
      vertex 0 -22 0.4
      vertex 23 -22 0.4
    endloop
  endfacet
  facet normal 0 -1 2.22045e-16
    outer loop
      vertex 6.5 -22 0.4
      vertex 6.5 -22 12
      vertex 0 -22 12
    endloop
  endfacet
  facet normal 0 -1 2.22045e-16
    outer loop
      vertex 23 -22 12
      vertex 16.5 -22 12
      vertex 23 -22 0.4
    endloop
  endfacet
  facet normal 0 -1 2.22045e-16
    outer loop
      vertex 6.5 -22 0.4
      vertex 0 -22 0.4
      vertex 16.5 -22 0.4
    endloop
  endfacet
  facet normal 0 -1 2.22045e-16
    outer loop
      vertex 0 -22 12
      vertex 0 -22 0.4
      vertex 6.5 -22 0.4
    endloop
  endfacet
  facet normal 0 -1 2.22045e-16
    outer loop
      vertex 16.5 -22 12
      vertex 16.5 -22 0.4
      vertex 23 -22 0.4
    endloop
  endfacet
  facet normal 1 0 0
    outer loop
      vertex 23 -22 0.4
      vertex 23 8.88178e-17 0.4
      vertex 23 2.66454e-15 12
    endloop
  endfacet
  facet normal 1 0 0
    outer loop
      vertex 23 -16.0008 4.62467
      vertex 23 -22 0.4
      vertex 23 2.66454e-15 12
    endloop
  endfacet
  facet normal 1 0 0
    outer loop
      vertex 23 -15.3832 5.47467
      vertex 23 -16.0008 4.62467
      vertex 23 2.66454e-15 12
    endloop
  endfacet
  facet normal 1 0 0
    outer loop
      vertex 23 -17 4.3
      vertex 23 -22 0.4
      vertex 23 -16.0008 4.62467
    endloop
  endfacet
  facet normal 1 0 0
    outer loop
      vertex 23 -17 7.7
      vertex 23 -16.0008 7.37533
      vertex 23 2.66454e-15 12
    endloop
  endfacet
  facet normal 1 0 0
    outer loop
      vertex 23 -17.9992 4.62467
      vertex 23 -22 0.4
      vertex 23 -17 4.3
    endloop
  endfacet
  facet normal 1 0 0
    outer loop
      vertex 23 -18.6168 5.47467
      vertex 23 -22 0.4
      vertex 23 -17.9992 4.62467
    endloop
  endfacet
  facet normal 1 0 0
    outer loop
      vertex 23 -22 12
      vertex 23 -22 0.4
      vertex 23 -18.6168 5.47467
    endloop
  endfacet
  facet normal 1 0 0
    outer loop
      vertex 23 -22 12
      vertex 23 -17 7.7
      vertex 23 2.66454e-15 12
    endloop
  endfacet
  facet normal 1 0 0
    outer loop
      vertex 23 -22 12
      vertex 23 -17.9992 7.37533
      vertex 23 -17 7.7
    endloop
  endfacet
  facet normal 1 0 0
    outer loop
      vertex 23 -16.0008 7.37533
      vertex 23 -15.3832 6.52533
      vertex 23 2.66454e-15 12
    endloop
  endfacet
  facet normal 1 0 0
    outer loop
      vertex 23 -15.3832 6.52533
      vertex 23 -15.3832 5.47467
      vertex 23 2.66454e-15 12
    endloop
  endfacet
  facet normal 1 0 0
    outer loop
      vertex 23 -18.6168 5.47467
      vertex 23 -18.6168 6.52533
      vertex 23 -22 12
    endloop
  endfacet
  facet normal 1 0 0
    outer loop
      vertex 23 -18.6168 6.52533
      vertex 23 -17.9992 7.37533
      vertex 23 -22 12
    endloop
  endfacet
  facet normal 0 1 -2.22045e-16
    outer loop
      vertex 12.6 1.75532e-15 7.90526
      vertex 0 2.66454e-15 12
      vertex 23 2.66454e-15 12
    endloop
  endfacet
  facet normal 0 1 -2.22045e-16
    outer loop
      vertex 0 8.88178e-17 0.4
      vertex 0 2.66454e-15 12
      vertex 9.3 1.33227e-15 6
    endloop
  endfacet
  facet normal 0 1 -2.22045e-16
    outer loop
      vertex 0 8.88178e-17 0.4
      vertex 9.3 1.33227e-15 6
      vertex 9.59474 1.08802e-15 4.9
    endloop
  endfacet
  facet normal 0 1 -2.22045e-16
    outer loop
      vertex 0 8.88178e-17 0.4
      vertex 9.59474 1.08802e-15 4.9
      vertex 10.4 9.09216e-16 4.09474
    endloop
  endfacet
  facet normal 0 1 -2.22045e-16
    outer loop
      vertex 0 8.88178e-17 0.4
      vertex 10.4 9.09216e-16 4.09474
      vertex 23 8.88178e-17 0.4
    endloop
  endfacet
  facet normal 0 1 -2.22045e-16
    outer loop
      vertex 10.4 9.09216e-16 4.09474
      vertex 11.5 8.43769e-16 3.8
      vertex 23 8.88178e-17 0.4
    endloop
  endfacet
  facet normal 0 1 -2.22045e-16
    outer loop
      vertex 13.4053 1.08802e-15 4.9
      vertex 23 8.88178e-17 0.4
      vertex 12.6 9.09216e-16 4.09474
    endloop
  endfacet
  facet normal 0 1 -2.22045e-16
    outer loop
      vertex 12.6 9.09216e-16 4.09474
      vertex 23 8.88178e-17 0.4
      vertex 11.5 8.43769e-16 3.8
    endloop
  endfacet
  facet normal 0 1 -2.22045e-16
    outer loop
      vertex 13.7 1.33227e-15 6
      vertex 23 8.88178e-17 0.4
      vertex 13.4053 1.08802e-15 4.9
    endloop
  endfacet
  facet normal 0 1 -2.22045e-16
    outer loop
      vertex 10.4 1.75532e-15 7.90526
      vertex 0 2.66454e-15 12
      vertex 11.5 1.82077e-15 8.2
    endloop
  endfacet
  facet normal 0 1 -2.22045e-16
    outer loop
      vertex 23 8.88178e-17 0.4
      vertex 13.7 1.33227e-15 6
      vertex 23 2.66454e-15 12
    endloop
  endfacet
  facet normal 0 1 -2.22045e-16
    outer loop
      vertex 9.59474 1.57652e-15 7.1
      vertex 0 2.66454e-15 12
      vertex 10.4 1.75532e-15 7.90526
    endloop
  endfacet
  facet normal 0 1 -2.22045e-16
    outer loop
      vertex 13.7 1.33227e-15 6
      vertex 13.4053 1.57652e-15 7.1
      vertex 23 2.66454e-15 12
    endloop
  endfacet
  facet normal 0 1 -2.22045e-16
    outer loop
      vertex 11.5 1.82077e-15 8.2
      vertex 0 2.66454e-15 12
      vertex 12.6 1.75532e-15 7.90526
    endloop
  endfacet
  facet normal 0 1 -2.22045e-16
    outer loop
      vertex 13.4053 1.57652e-15 7.1
      vertex 12.6 1.75532e-15 7.90526
      vertex 23 2.66454e-15 12
    endloop
  endfacet
  facet normal 0 1 -2.22045e-16
    outer loop
      vertex 9.3 1.33227e-15 6
      vertex 0 2.66454e-15 12
      vertex 9.59474 1.57652e-15 7.1
    endloop
  endfacet
  facet normal 0 2.22045e-16 1
    outer loop
      vertex 6.5 -9 12
      vertex 0 2.66454e-15 12
      vertex 0 -22 12
    endloop
  endfacet
  facet normal 0 2.22045e-16 1
    outer loop
      vertex 16.3532 -8.07295 12
      vertex 16.3532 -9 12
      vertex 23 2.66454e-15 12
    endloop
  endfacet
  facet normal 0 2.22045e-16 1
    outer loop
      vertex 6.64683 -8.07295 12
      vertex 0 2.66454e-15 12
      vertex 6.5 -9 12
    endloop
  endfacet
  facet normal 0 2.22045e-16 1
    outer loop
      vertex 6.64683 -9 12
      vertex 6.64683 -8.07295 12
      vertex 6.5 -9 12
    endloop
  endfacet
  facet normal 0 2.22045e-16 1
    outer loop
      vertex 7.73664 -6.57295 12
      vertex 0 2.66454e-15 12
      vertex 6.64683 -8.07295 12
    endloop
  endfacet
  facet normal 0 2.22045e-16 1
    outer loop
      vertex 23 2.66454e-15 12
      vertex 0 2.66454e-15 12
      vertex 7.73664 -6.57295 12
    endloop
  endfacet
  facet normal 0 2.22045e-16 1
    outer loop
      vertex 23 2.66454e-15 12
      vertex 7.73664 -6.57295 12
      vertex 9.5 -6 12
    endloop
  endfacet
  facet normal 0 2.22045e-16 1
    outer loop
      vertex 9.5 -6 12
      vertex 13.5 -6 12
      vertex 23 2.66454e-15 12
    endloop
  endfacet
  facet normal 0 2.22045e-16 1
    outer loop
      vertex 23 2.66454e-15 12
      vertex 13.5 -6 12
      vertex 15.2634 -6.57295 12
    endloop
  endfacet
  facet normal 0 2.22045e-16 1
    outer loop
      vertex 16.5 -9 12
      vertex 23 2.66454e-15 12
      vertex 16.3532 -9 12
    endloop
  endfacet
  facet normal 0 2.22045e-16 1
    outer loop
      vertex 16.5 -22 12
      vertex 23 2.66454e-15 12
      vertex 16.5 -9 12
    endloop
  endfacet
  facet normal 0 2.22045e-16 1
    outer loop
      vertex 23 -22 12
      vertex 23 2.66454e-15 12
      vertex 16.5 -22 12
    endloop
  endfacet
  facet normal 0 2.22045e-16 1
    outer loop
      vertex 15.2634 -6.57295 12
      vertex 16.3532 -8.07295 12
      vertex 23 2.66454e-15 12
    endloop
  endfacet
  facet normal 0 2.22045e-16 1
    outer loop
      vertex 6.5 -22 12
      vertex 6.5 -9 12
      vertex 0 -22 12
    endloop
  endfacet
  facet normal -3.03319e-16 -0.5 0.866025
    outer loop
      vertex 1.5 -17 2.5
      vertex 1.5 -13.9689 4.25
      vertex 0 -13.9689 4.25
    endloop
  endfacet
  facet normal -3.03319e-16 -0.5 0.866025
    outer loop
      vertex 0 -17 2.5
      vertex 1.5 -17 2.5
      vertex 0 -13.9689 4.25
    endloop
  endfacet
  facet normal -8.1274e-17 0.5 0.866025
    outer loop
      vertex 0 -20.0311 4.25
      vertex 1.5 -20.0311 4.25
      vertex 1.5 -17 2.5
    endloop
  endfacet
  facet normal -8.1274e-17 0.5 0.866025
    outer loop
      vertex 0 -17 2.5
      vertex 0 -20.0311 4.25
      vertex 1.5 -17 2.5
    endloop
  endfacet
  facet normal 2.22045e-16 1 -2.22045e-16
    outer loop
      vertex 1.5 -20.0311 7.75
      vertex 1.5 -20.0311 4.25
      vertex 0 -20.0311 7.75
    endloop
  endfacet
  facet normal 2.22045e-16 1 -2.22045e-16
    outer loop
      vertex 0 -20.0311 7.75
      vertex 1.5 -20.0311 4.25
      vertex 0 -20.0311 4.25
    endloop
  endfacet
  facet normal 3.03319e-16 0.5 -0.866025
    outer loop
      vertex 1.5 -17 9.5
      vertex 1.5 -20.0311 7.75
      vertex 0 -17 9.5
    endloop
  endfacet
  facet normal 3.03319e-16 0.5 -0.866025
    outer loop
      vertex 0 -17 9.5
      vertex 1.5 -20.0311 7.75
      vertex 0 -20.0311 7.75
    endloop
  endfacet
  facet normal 8.1274e-17 -0.5 -0.866025
    outer loop
      vertex 1.5 -17 9.5
      vertex 0 -17 9.5
      vertex 1.5 -13.9689 7.75
    endloop
  endfacet
  facet normal 8.1274e-17 -0.5 -0.866025
    outer loop
      vertex 1.5 -13.9689 7.75
      vertex 0 -17 9.5
      vertex 0 -13.9689 7.75
    endloop
  endfacet
  facet normal -2.22045e-16 -1 2.22045e-16
    outer loop
      vertex 1.5 -13.9689 4.25
      vertex 1.5 -13.9689 7.75
      vertex 0 -13.9689 7.75
    endloop
  endfacet
  facet normal -2.22045e-16 -1 2.22045e-16
    outer loop
      vertex 0 -13.9689 4.25
      vertex 1.5 -13.9689 4.25
      vertex 0 -13.9689 7.75
    endloop
  endfacet
  facet normal 1 0 0
    outer loop
      vertex 6.5 -18.6168 5.47467
      vertex 6.5 -22 12
      vertex 6.5 -22 0.4
    endloop
  endfacet
  facet normal 1 0 0
    outer loop
      vertex 6.5 -9 0.4
      vertex 6.5 -17 4.3
      vertex 6.5 -22 0.4
    endloop
  endfacet
  facet normal 1 0 0
    outer loop
      vertex 6.5 -17.9992 4.62467
      vertex 6.5 -18.6168 5.47467
      vertex 6.5 -22 0.4
    endloop
  endfacet
  facet normal 1 0 0
    outer loop
      vertex 6.5 -17 7.7
      vertex 6.5 -16.0008 7.37533
      vertex 6.5 -9 12
    endloop
  endfacet
  facet normal 1 0 0
    outer loop
      vertex 6.5 -17.9992 7.37533
      vertex 6.5 -22 12
      vertex 6.5 -18.6168 6.52533
    endloop
  endfacet
  facet normal 1 0 0
    outer loop
      vertex 6.5 -9 12
      vertex 6.5 -22 12
      vertex 6.5 -17.9992 7.37533
    endloop
  endfacet
  facet normal 1 0 0
    outer loop
      vertex 6.5 -16.0008 7.37533
      vertex 6.5 -15.3832 6.52533
      vertex 6.5 -9 12
    endloop
  endfacet
  facet normal 1 0 0
    outer loop
      vertex 6.5 -9 12
      vertex 6.5 -17.9992 7.37533
      vertex 6.5 -17 7.7
    endloop
  endfacet
  facet normal 1 0 0
    outer loop
      vertex 6.5 -15.3832 6.52533
      vertex 6.5 -15.3832 5.47467
      vertex 6.5 -9 12
    endloop
  endfacet
  facet normal 1 0 0
    outer loop
      vertex 6.5 -18.6168 5.47467
      vertex 6.5 -18.6168 6.52533
      vertex 6.5 -22 12
    endloop
  endfacet
  facet normal 1 0 0
    outer loop
      vertex 6.5 -9 0.4
      vertex 6.5 -9 12
      vertex 6.5 -15.3832 5.47467
    endloop
  endfacet
  facet normal 1 0 0
    outer loop
      vertex 6.5 -9 0.4
      vertex 6.5 -16.0008 4.62467
      vertex 6.5 -17 4.3
    endloop
  endfacet
  facet normal 1 0 0
    outer loop
      vertex 6.5 -9 0.4
      vertex 6.5 -15.3832 5.47467
      vertex 6.5 -16.0008 4.62467
    endloop
  endfacet
  facet normal 1 0 0
    outer loop
      vertex 6.5 -17 4.3
      vertex 6.5 -17.9992 4.62467
      vertex 6.5 -22 0.4
    endloop
  endfacet
  facet normal 0 2.22045e-16 1
    outer loop
      vertex 6.5 -22 0.4
      vertex 16.5 -22 0.4
      vertex 16.5 -9 0.4
    endloop
  endfacet
  facet normal 0 2.22045e-16 1
    outer loop
      vertex 16.3532 -8.07295 0.4
      vertex 6.5 -22 0.4
      vertex 16.3532 -9 0.4
    endloop
  endfacet
  facet normal 0 2.22045e-16 1
    outer loop
      vertex 16.3532 -9 0.4
      vertex 6.5 -22 0.4
      vertex 16.5 -9 0.4
    endloop
  endfacet
  facet normal 0 2.22045e-16 1
    outer loop
      vertex 15.2634 -6.57295 0.4
      vertex 6.5 -22 0.4
      vertex 16.3532 -8.07295 0.4
    endloop
  endfacet
  facet normal 0 2.22045e-16 1
    outer loop
      vertex 13.5 -6 0.4
      vertex 6.5 -22 0.4
      vertex 15.2634 -6.57295 0.4
    endloop
  endfacet
  facet normal 0 2.22045e-16 1
    outer loop
      vertex 9.5 -6 0.4
      vertex 6.5 -22 0.4
      vertex 13.5 -6 0.4
    endloop
  endfacet
  facet normal 0 2.22045e-16 1
    outer loop
      vertex 7.73664 -6.57295 0.4
      vertex 6.5 -22 0.4
      vertex 9.5 -6 0.4
    endloop
  endfacet
  facet normal 0 2.22045e-16 1
    outer loop
      vertex 6.64683 -9 0.4
      vertex 6.5 -22 0.4
      vertex 7.73664 -6.57295 0.4
    endloop
  endfacet
  facet normal 0 2.22045e-16 1
    outer loop
      vertex 6.64683 -8.07295 0.4
      vertex 6.64683 -9 0.4
      vertex 7.73664 -6.57295 0.4
    endloop
  endfacet
  facet normal 0 2.22045e-16 1
    outer loop
      vertex 6.64683 -9 0.4
      vertex 6.5 -9 0.4
      vertex 6.5 -22 0.4
    endloop
  endfacet
  facet normal -1 0 0
    outer loop
      vertex 16.5 -17 7.7
      vertex 16.5 -22 12
      vertex 16.5 -16.0008 7.37533
    endloop
  endfacet
  facet normal -1 0 0
    outer loop
      vertex 16.5 -16.0008 4.62467
      vertex 16.5 -9 12
      vertex 16.5 -9 0.4
    endloop
  endfacet
  facet normal -1 0 0
    outer loop
      vertex 16.5 -15.3832 5.47467
      vertex 16.5 -9 12
      vertex 16.5 -16.0008 4.62467
    endloop
  endfacet
  facet normal -1 0 0
    outer loop
      vertex 16.5 -22 0.4
      vertex 16.5 -16.0008 4.62467
      vertex 16.5 -9 0.4
    endloop
  endfacet
  facet normal -1 0 0
    outer loop
      vertex 16.5 -15.3832 6.52533
      vertex 16.5 -9 12
      vertex 16.5 -15.3832 5.47467
    endloop
  endfacet
  facet normal -1 0 0
    outer loop
      vertex 16.5 -16.0008 7.37533
      vertex 16.5 -9 12
      vertex 16.5 -15.3832 6.52533
    endloop
  endfacet
  facet normal -1 0 0
    outer loop
      vertex 16.5 -22 12
      vertex 16.5 -9 12
      vertex 16.5 -16.0008 7.37533
    endloop
  endfacet
  facet normal -1 0 0
    outer loop
      vertex 16.5 -18.6168 5.47467
      vertex 16.5 -22 0.4
      vertex 16.5 -18.6168 6.52533
    endloop
  endfacet
  facet normal -1 0 0
    outer loop
      vertex 16.5 -22 12
      vertex 16.5 -17 7.7
      vertex 16.5 -17.9992 7.37533
    endloop
  endfacet
  facet normal -1 0 0
    outer loop
      vertex 16.5 -22 12
      vertex 16.5 -17.9992 7.37533
      vertex 16.5 -18.6168 6.52533
    endloop
  endfacet
  facet normal -1 0 0
    outer loop
      vertex 16.5 -22 12
      vertex 16.5 -18.6168 6.52533
      vertex 16.5 -22 0.4
    endloop
  endfacet
  facet normal -1 0 0
    outer loop
      vertex 16.5 -17.9992 4.62467
      vertex 16.5 -22 0.4
      vertex 16.5 -18.6168 5.47467
    endloop
  endfacet
  facet normal -1 0 0
    outer loop
      vertex 16.5 -17 4.3
      vertex 16.5 -22 0.4
      vertex 16.5 -17.9992 4.62467
    endloop
  endfacet
  facet normal -1 0 0
    outer loop
      vertex 16.5 -16.0008 4.62467
      vertex 16.5 -22 0.4
      vertex 16.5 -17 4.3
    endloop
  endfacet
  facet normal -3.10152e-16 -0.809017 0.587785
    outer loop
      vertex 23 -16.0008 4.62467
      vertex 23 -15.3832 5.47467
      vertex 16.5 -15.3832 5.47467
    endloop
  endfacet
  facet normal -3.10152e-16 -0.809017 0.587785
    outer loop
      vertex 16.5 -16.0008 4.62467
      vertex 23 -16.0008 4.62467
      vertex 16.5 -15.3832 5.47467
    endloop
  endfacet
  facet normal -2.79793e-16 -0.309017 0.951057
    outer loop
      vertex 23 -17 4.3
      vertex 23 -16.0008 4.62467
      vertex 16.5 -16.0008 4.62467
    endloop
  endfacet
  facet normal -2.79793e-16 -0.309017 0.951057
    outer loop
      vertex 16.5 -17 4.3
      vertex 23 -17 4.3
      vertex 16.5 -16.0008 4.62467
    endloop
  endfacet
  facet normal -2.22045e-16 -1 2.22045e-16
    outer loop
      vertex 23 -15.3832 5.47467
      vertex 23 -15.3832 6.52533
      vertex 16.5 -15.3832 6.52533
    endloop
  endfacet
  facet normal -2.22045e-16 -1 2.22045e-16
    outer loop
      vertex 16.5 -15.3832 5.47467
      vertex 23 -15.3832 5.47467
      vertex 16.5 -15.3832 6.52533
    endloop
  endfacet
  facet normal -4.91234e-17 -0.809017 -0.587785
    outer loop
      vertex 23 -15.3832 6.52533
      vertex 23 -16.0008 7.37533
      vertex 16.5 -16.0008 7.37533
    endloop
  endfacet
  facet normal -4.91234e-17 -0.809017 -0.587785
    outer loop
      vertex 16.5 -15.3832 6.52533
      vertex 23 -15.3832 6.52533
      vertex 16.5 -16.0008 7.37533
    endloop
  endfacet
  facet normal 1.42561e-16 -0.309017 -0.951057
    outer loop
      vertex 23 -17 7.7
      vertex 16.5 -17 7.7
      vertex 23 -16.0008 7.37533
    endloop
  endfacet
  facet normal 1.42561e-16 -0.309017 -0.951057
    outer loop
      vertex 23 -16.0008 7.37533
      vertex 16.5 -17 7.7
      vertex 16.5 -16.0008 7.37533
    endloop
  endfacet
  facet normal 2.79793e-16 0.309017 -0.951057
    outer loop
      vertex 23 -17 7.7
      vertex 23 -17.9992 7.37533
      vertex 16.5 -17 7.7
    endloop
  endfacet
  facet normal 2.79793e-16 0.309017 -0.951057
    outer loop
      vertex 16.5 -17 7.7
      vertex 23 -17.9992 7.37533
      vertex 16.5 -17.9992 7.37533
    endloop
  endfacet
  facet normal 3.10152e-16 0.809017 -0.587785
    outer loop
      vertex 23 -17.9992 7.37533
      vertex 23 -18.6168 6.52533
      vertex 16.5 -17.9992 7.37533
    endloop
  endfacet
  facet normal 3.10152e-16 0.809017 -0.587785
    outer loop
      vertex 16.5 -17.9992 7.37533
      vertex 23 -18.6168 6.52533
      vertex 16.5 -18.6168 6.52533
    endloop
  endfacet
  facet normal 2.22045e-16 1 -2.22045e-16
    outer loop
      vertex 23 -18.6168 6.52533
      vertex 23 -18.6168 5.47467
      vertex 16.5 -18.6168 6.52533
    endloop
  endfacet
  facet normal 2.22045e-16 1 -2.22045e-16
    outer loop
      vertex 16.5 -18.6168 6.52533
      vertex 23 -18.6168 5.47467
      vertex 16.5 -18.6168 5.47467
    endloop
  endfacet
  facet normal 4.91234e-17 0.809017 0.587785
    outer loop
      vertex 23 -18.6168 5.47467
      vertex 23 -17.9992 4.62467
      vertex 16.5 -18.6168 5.47467
    endloop
  endfacet
  facet normal 4.91234e-17 0.809017 0.587785
    outer loop
      vertex 16.5 -18.6168 5.47467
      vertex 23 -17.9992 4.62467
      vertex 16.5 -17.9992 4.62467
    endloop
  endfacet
  facet normal -1.42561e-16 0.309017 0.951057
    outer loop
      vertex 16.5 -17.9992 4.62467
      vertex 23 -17.9992 4.62467
      vertex 23 -17 4.3
    endloop
  endfacet
  facet normal -1.42561e-16 0.309017 0.951057
    outer loop
      vertex 16.5 -17 4.3
      vertex 16.5 -17.9992 4.62467
      vertex 23 -17 4.3
    endloop
  endfacet
  facet normal 0.965926 -1.75761e-16 -0.258819
    outer loop
      vertex 9.3 1.33227e-15 6
      vertex 9.59474 1.57652e-15 7.1
      vertex 9.59474 -3 7.1
    endloop
  endfacet
  facet normal 0.965926 -1.75761e-16 -0.258819
    outer loop
      vertex 9.3 -3 6
      vertex 9.3 1.33227e-15 6
      vertex 9.59474 -3 7.1
    endloop
  endfacet
  facet normal 0.965926 -6.08224e-17 0.258819
    outer loop
      vertex 9.59474 -3 4.9
      vertex 9.59474 1.08802e-15 4.9
      vertex 9.3 1.33227e-15 6
    endloop
  endfacet
  facet normal 0.965926 -6.08224e-17 0.258819
    outer loop
      vertex 9.3 -3 6
      vertex 9.59474 -3 4.9
      vertex 9.3 1.33227e-15 6
    endloop
  endfacet
  facet normal 0.707107 -2.43605e-16 -0.707107
    outer loop
      vertex 9.59474 1.57652e-15 7.1
      vertex 10.4 1.75532e-15 7.90526
      vertex 10.4 -3 7.90526
    endloop
  endfacet
  facet normal 0.707107 -2.43605e-16 -0.707107
    outer loop
      vertex 9.59474 -3 7.1
      vertex 9.59474 1.57652e-15 7.1
      vertex 10.4 -3 7.90526
    endloop
  endfacet
  facet normal 0.258819 -2.46175e-16 -0.965926
    outer loop
      vertex 11.5 1.82077e-15 8.2
      vertex 11.5 -3 8.2
      vertex 10.4 1.75532e-15 7.90526
    endloop
  endfacet
  facet normal 0.258819 -2.46175e-16 -0.965926
    outer loop
      vertex 10.4 1.75532e-15 7.90526
      vertex 11.5 -3 8.2
      vertex 10.4 -3 7.90526
    endloop
  endfacet
  facet normal -0.258819 -1.82782e-16 -0.965926
    outer loop
      vertex 12.6 1.75532e-15 7.90526
      vertex 12.6 -3 7.90526
      vertex 11.5 1.82077e-15 8.2
    endloop
  endfacet
  facet normal -0.258819 -1.82782e-16 -0.965926
    outer loop
      vertex 11.5 1.82077e-15 8.2
      vertex 12.6 -3 7.90526
      vertex 11.5 -3 8.2
    endloop
  endfacet
  facet normal -0.707107 -7.04136e-17 -0.707107
    outer loop
      vertex 13.4053 1.57652e-15 7.1
      vertex 13.4053 -3 7.1
      vertex 12.6 1.75532e-15 7.90526
    endloop
  endfacet
  facet normal -0.707107 -7.04136e-17 -0.707107
    outer loop
      vertex 12.6 1.75532e-15 7.90526
      vertex 13.4053 -3 7.1
      vertex 12.6 -3 7.90526
    endloop
  endfacet
  facet normal -0.965926 6.08224e-17 -0.258819
    outer loop
      vertex 13.7 1.33227e-15 6
      vertex 13.7 -3 6
      vertex 13.4053 1.57652e-15 7.1
    endloop
  endfacet
  facet normal -0.965926 6.08224e-17 -0.258819
    outer loop
      vertex 13.4053 1.57652e-15 7.1
      vertex 13.7 -3 6
      vertex 13.4053 -3 7.1
    endloop
  endfacet
  facet normal -0.965926 1.75761e-16 0.258819
    outer loop
      vertex 13.7 1.33227e-15 6
      vertex 13.4053 1.08802e-15 4.9
      vertex 13.7 -3 6
    endloop
  endfacet
  facet normal -0.965926 1.75761e-16 0.258819
    outer loop
      vertex 13.7 -3 6
      vertex 13.4053 1.08802e-15 4.9
      vertex 13.4053 -3 4.9
    endloop
  endfacet
  facet normal -0.707107 2.43605e-16 0.707107
    outer loop
      vertex 13.4053 1.08802e-15 4.9
      vertex 12.6 9.09216e-16 4.09474
      vertex 13.4053 -3 4.9
    endloop
  endfacet
  facet normal -0.707107 2.43605e-16 0.707107
    outer loop
      vertex 13.4053 -3 4.9
      vertex 12.6 9.09216e-16 4.09474
      vertex 12.6 -3 4.09474
    endloop
  endfacet
  facet normal -0.258819 2.46175e-16 0.965926
    outer loop
      vertex 12.6 -3 4.09474
      vertex 12.6 9.09216e-16 4.09474
      vertex 11.5 8.43769e-16 3.8
    endloop
  endfacet
  facet normal -0.258819 2.46175e-16 0.965926
    outer loop
      vertex 11.5 -3 3.8
      vertex 12.6 -3 4.09474
      vertex 11.5 8.43769e-16 3.8
    endloop
  endfacet
  facet normal 0.258819 1.82782e-16 0.965926
    outer loop
      vertex 11.5 -3 3.8
      vertex 11.5 8.43769e-16 3.8
      vertex 10.4 9.09216e-16 4.09474
    endloop
  endfacet
  facet normal 0.258819 1.82782e-16 0.965926
    outer loop
      vertex 10.4 -3 4.09474
      vertex 11.5 -3 3.8
      vertex 10.4 9.09216e-16 4.09474
    endloop
  endfacet
  facet normal 0.707107 7.04136e-17 0.707107
    outer loop
      vertex 10.4 -3 4.09474
      vertex 10.4 9.09216e-16 4.09474
      vertex 9.59474 1.08802e-15 4.9
    endloop
  endfacet
  facet normal 0.707107 7.04136e-17 0.707107
    outer loop
      vertex 9.59474 -3 4.9
      vertex 10.4 -3 4.09474
      vertex 9.59474 1.08802e-15 4.9
    endloop
  endfacet
  facet normal -2.22045e-16 -1 2.22045e-16
    outer loop
      vertex 16.5 -9 12
      vertex 16.3532 -9 12
      vertex 16.3532 -9 0.4
    endloop
  endfacet
  facet normal -2.22045e-16 -1 2.22045e-16
    outer loop
      vertex 16.5 -9 0.4
      vertex 16.5 -9 12
      vertex 16.3532 -9 0.4
    endloop
  endfacet
  facet normal -1 2.22045e-16 -2.22045e-16
    outer loop
      vertex 16.3532 -8.07295 0.4
      vertex 16.3532 -9 0.4
      vertex 16.3532 -8.07295 12
    endloop
  endfacet
  facet normal -1 2.22045e-16 -2.22045e-16
    outer loop
      vertex 16.3532 -8.07295 12
      vertex 16.3532 -9 0.4
      vertex 16.3532 -9 12
    endloop
  endfacet
  facet normal -0.809017 -0.587785 -4.91233e-17
    outer loop
      vertex 16.3532 -8.07295 0.4
      vertex 16.3532 -8.07295 12
      vertex 15.2634 -6.57295 0.4
    endloop
  endfacet
  facet normal -0.809017 -0.587785 -4.91233e-17
    outer loop
      vertex 15.2634 -6.57295 0.4
      vertex 16.3532 -8.07295 12
      vertex 15.2634 -6.57295 12
    endloop
  endfacet
  facet normal -0.309017 -0.951057 1.42561e-16
    outer loop
      vertex 13.5 -6 0.4
      vertex 15 -6.48738 6
      vertex 13.5 -6 3.40192
    endloop
  endfacet
  facet normal -0.309017 -0.951057 1.42561e-16
    outer loop
      vertex 15.2634 -6.57295 0.4
      vertex 15 -6.48738 6
      vertex 13.5 -6 0.4
    endloop
  endfacet
  facet normal -0.309017 -0.951057 1.42561e-16
    outer loop
      vertex 13.5 -6 8.59808
      vertex 15 -6.48738 6
      vertex 15.2634 -6.57295 12
    endloop
  endfacet
  facet normal -0.309017 -0.951057 1.42561e-16
    outer loop
      vertex 15.2634 -6.57295 12
      vertex 15 -6.48738 6
      vertex 15.2634 -6.57295 0.4
    endloop
  endfacet
  facet normal -0.309017 -0.951057 1.42561e-16
    outer loop
      vertex 13.5 -6 12
      vertex 13.5 -6 8.59808
      vertex 15.2634 -6.57295 12
    endloop
  endfacet
  facet normal 0 -1 2.22045e-16
    outer loop
      vertex 13.5 -6 12
      vertex 9.75 -6 9.03109
      vertex 13.25 -6 9.03109
    endloop
  endfacet
  facet normal 0 -1 2.22045e-16
    outer loop
      vertex 9.5 -6 8.59808
      vertex 9.75 -6 9.03109
      vertex 9.5 -6 12
    endloop
  endfacet
  facet normal 0 -1 2.22045e-16
    outer loop
      vertex 13.5 -6 8.59808
      vertex 13.5 -6 12
      vertex 13.25 -6 9.03109
    endloop
  endfacet
  facet normal 0 -1 2.22045e-16
    outer loop
      vertex 13.5 -6 12
      vertex 9.5 -6 12
      vertex 9.75 -6 9.03109
    endloop
  endfacet
  facet normal 0.309017 -0.951057 2.79793e-16
    outer loop
      vertex 7.73664 -6.57295 0.4
      vertex 9.5 -6 0.4
      vertex 9.5 -6 3.40192
    endloop
  endfacet
  facet normal 0.309017 -0.951057 2.79793e-16
    outer loop
      vertex 7.73664 -6.57295 12
      vertex 7.73664 -6.57295 0.4
      vertex 8 -6.48738 6
    endloop
  endfacet
  facet normal 0.309017 -0.951057 2.79793e-16
    outer loop
      vertex 8 -6.48738 6
      vertex 7.73664 -6.57295 0.4
      vertex 9.5 -6 3.40192
    endloop
  endfacet
  facet normal 0.309017 -0.951057 2.79793e-16
    outer loop
      vertex 9.5 -6 12
      vertex 8 -6.48738 6
      vertex 9.5 -6 8.59808
    endloop
  endfacet
  facet normal 0.309017 -0.951057 2.79793e-16
    outer loop
      vertex 7.73664 -6.57295 12
      vertex 8 -6.48738 6
      vertex 9.5 -6 12
    endloop
  endfacet
  facet normal 0.809017 -0.587785 3.10152e-16
    outer loop
      vertex 6.64683 -8.07295 0.4
      vertex 7.73664 -6.57295 0.4
      vertex 7.73664 -6.57295 12
    endloop
  endfacet
  facet normal 0.809017 -0.587785 3.10152e-16
    outer loop
      vertex 6.64683 -8.07295 12
      vertex 6.64683 -8.07295 0.4
      vertex 7.73664 -6.57295 12
    endloop
  endfacet
  facet normal 1 -2.22045e-16 2.22045e-16
    outer loop
      vertex 6.64683 -9 0.4
      vertex 6.64683 -8.07295 0.4
      vertex 6.64683 -8.07295 12
    endloop
  endfacet
  facet normal 1 -2.22045e-16 2.22045e-16
    outer loop
      vertex 6.64683 -9 12
      vertex 6.64683 -9 0.4
      vertex 6.64683 -8.07295 12
    endloop
  endfacet
  facet normal -2.22045e-16 -1 2.22045e-16
    outer loop
      vertex 6.5 -9 12
      vertex 6.5 -9 0.4
      vertex 6.64683 -9 0.4
    endloop
  endfacet
  facet normal -2.22045e-16 -1 2.22045e-16
    outer loop
      vertex 6.64683 -9 12
      vertex 6.5 -9 12
      vertex 6.64683 -9 0.4
    endloop
  endfacet
  facet normal -1 2.22045e-16 -2.22045e-16
    outer loop
      vertex 1.5 -13.9689 7.75
      vertex 1.5 -13.9689 4.25
      vertex 1.5 -17 9.5
    endloop
  endfacet
  facet normal -1 2.22045e-16 -2.22045e-16
    outer loop
      vertex 1.5 -16.0008 4.62467
      vertex 1.5 -13.9689 4.25
      vertex 1.5 -17 4.3
    endloop
  endfacet
  facet normal -1 2.22045e-16 -2.22045e-16
    outer loop
      vertex 1.5 -18.6168 5.47467
      vertex 1.5 -17 2.5
      vertex 1.5 -20.0311 4.25
    endloop
  endfacet
  facet normal -1 2.22045e-16 -2.22045e-16
    outer loop
      vertex 1.5 -17 9.5
      vertex 1.5 -20.0311 4.25
      vertex 1.5 -20.0311 7.75
    endloop
  endfacet
  facet normal -1 2.22045e-16 -2.22045e-16
    outer loop
      vertex 1.5 -17 7.7
      vertex 1.5 -17 9.5
      vertex 1.5 -16.0008 7.37533
    endloop
  endfacet
  facet normal -1 2.22045e-16 -2.22045e-16
    outer loop
      vertex 1.5 -17 9.5
      vertex 1.5 -18.6168 6.52533
      vertex 1.5 -20.0311 4.25
    endloop
  endfacet
  facet normal -1 2.22045e-16 -2.22045e-16
    outer loop
      vertex 1.5 -17.9992 4.62467
      vertex 1.5 -17 2.5
      vertex 1.5 -18.6168 5.47467
    endloop
  endfacet
  facet normal -1 2.22045e-16 -2.22045e-16
    outer loop
      vertex 1.5 -18.6168 6.52533
      vertex 1.5 -18.6168 5.47467
      vertex 1.5 -20.0311 4.25
    endloop
  endfacet
  facet normal -1 2.22045e-16 -2.22045e-16
    outer loop
      vertex 1.5 -13.9689 4.25
      vertex 1.5 -17 2.5
      vertex 1.5 -17 4.3
    endloop
  endfacet
  facet normal -1 2.22045e-16 -2.22045e-16
    outer loop
      vertex 1.5 -15.3832 5.47467
      vertex 1.5 -13.9689 4.25
      vertex 1.5 -16.0008 4.62467
    endloop
  endfacet
  facet normal -1 2.22045e-16 -2.22045e-16
    outer loop
      vertex 1.5 -15.3832 6.52533
      vertex 1.5 -13.9689 4.25
      vertex 1.5 -15.3832 5.47467
    endloop
  endfacet
  facet normal -1 2.22045e-16 -2.22045e-16
    outer loop
      vertex 1.5 -17 9.5
      vertex 1.5 -13.9689 4.25
      vertex 1.5 -15.3832 6.52533
    endloop
  endfacet
  facet normal -1 2.22045e-16 -2.22045e-16
    outer loop
      vertex 1.5 -17 9.5
      vertex 1.5 -15.3832 6.52533
      vertex 1.5 -16.0008 7.37533
    endloop
  endfacet
  facet normal -1 2.22045e-16 -2.22045e-16
    outer loop
      vertex 1.5 -17 9.5
      vertex 1.5 -17 7.7
      vertex 1.5 -17.9992 7.37533
    endloop
  endfacet
  facet normal -1 2.22045e-16 -2.22045e-16
    outer loop
      vertex 1.5 -17 9.5
      vertex 1.5 -17.9992 7.37533
      vertex 1.5 -18.6168 6.52533
    endloop
  endfacet
  facet normal -1 2.22045e-16 -2.22045e-16
    outer loop
      vertex 1.5 -17 4.3
      vertex 1.5 -17 2.5
      vertex 1.5 -17.9992 4.62467
    endloop
  endfacet
  facet normal -1.42561e-16 0.309017 0.951057
    outer loop
      vertex 6.5 -17.9992 4.62467
      vertex 6.5 -17 4.3
      vertex 1.5 -17 4.3
    endloop
  endfacet
  facet normal -1.42561e-16 0.309017 0.951057
    outer loop
      vertex 1.5 -17.9992 4.62467
      vertex 6.5 -17.9992 4.62467
      vertex 1.5 -17 4.3
    endloop
  endfacet
  facet normal -2.79793e-16 -0.309017 0.951057
    outer loop
      vertex 6.5 -17 4.3
      vertex 6.5 -16.0008 4.62467
      vertex 1.5 -16.0008 4.62467
    endloop
  endfacet
  facet normal -2.79793e-16 -0.309017 0.951057
    outer loop
      vertex 1.5 -17 4.3
      vertex 6.5 -17 4.3
      vertex 1.5 -16.0008 4.62467
    endloop
  endfacet
  facet normal -3.10152e-16 -0.809017 0.587785
    outer loop
      vertex 1.5 -16.0008 4.62467
      vertex 6.5 -16.0008 4.62467
      vertex 6.5 -15.3832 5.47467
    endloop
  endfacet
  facet normal -3.10152e-16 -0.809017 0.587785
    outer loop
      vertex 1.5 -15.3832 5.47467
      vertex 1.5 -16.0008 4.62467
      vertex 6.5 -15.3832 5.47467
    endloop
  endfacet
  facet normal -2.22045e-16 -1 2.22045e-16
    outer loop
      vertex 1.5 -15.3832 5.47467
      vertex 6.5 -15.3832 5.47467
      vertex 6.5 -15.3832 6.52533
    endloop
  endfacet
  facet normal -2.22045e-16 -1 2.22045e-16
    outer loop
      vertex 1.5 -15.3832 6.52533
      vertex 1.5 -15.3832 5.47467
      vertex 6.5 -15.3832 6.52533
    endloop
  endfacet
  facet normal -4.91234e-17 -0.809017 -0.587785
    outer loop
      vertex 1.5 -15.3832 6.52533
      vertex 6.5 -15.3832 6.52533
      vertex 6.5 -16.0008 7.37533
    endloop
  endfacet
  facet normal -4.91234e-17 -0.809017 -0.587785
    outer loop
      vertex 1.5 -16.0008 7.37533
      vertex 1.5 -15.3832 6.52533
      vertex 6.5 -16.0008 7.37533
    endloop
  endfacet
  facet normal 1.42561e-16 -0.309017 -0.951057
    outer loop
      vertex 6.5 -16.0008 7.37533
      vertex 6.5 -17 7.7
      vertex 1.5 -16.0008 7.37533
    endloop
  endfacet
  facet normal 1.42561e-16 -0.309017 -0.951057
    outer loop
      vertex 1.5 -16.0008 7.37533
      vertex 6.5 -17 7.7
      vertex 1.5 -17 7.7
    endloop
  endfacet
  facet normal 2.79793e-16 0.309017 -0.951057
    outer loop
      vertex 6.5 -17 7.7
      vertex 6.5 -17.9992 7.37533
      vertex 1.5 -17 7.7
    endloop
  endfacet
  facet normal 2.79793e-16 0.309017 -0.951057
    outer loop
      vertex 1.5 -17 7.7
      vertex 6.5 -17.9992 7.37533
      vertex 1.5 -17.9992 7.37533
    endloop
  endfacet
  facet normal 3.10152e-16 0.809017 -0.587785
    outer loop
      vertex 6.5 -18.6168 6.52533
      vertex 1.5 -18.6168 6.52533
      vertex 6.5 -17.9992 7.37533
    endloop
  endfacet
  facet normal 3.10152e-16 0.809017 -0.587785
    outer loop
      vertex 6.5 -17.9992 7.37533
      vertex 1.5 -18.6168 6.52533
      vertex 1.5 -17.9992 7.37533
    endloop
  endfacet
  facet normal 2.22045e-16 1 -2.22045e-16
    outer loop
      vertex 6.5 -18.6168 5.47467
      vertex 1.5 -18.6168 5.47467
      vertex 6.5 -18.6168 6.52533
    endloop
  endfacet
  facet normal 2.22045e-16 1 -2.22045e-16
    outer loop
      vertex 6.5 -18.6168 6.52533
      vertex 1.5 -18.6168 5.47467
      vertex 1.5 -18.6168 6.52533
    endloop
  endfacet
  facet normal 4.91234e-17 0.809017 0.587785
    outer loop
      vertex 6.5 -17.9992 4.62467
      vertex 1.5 -17.9992 4.62467
      vertex 6.5 -18.6168 5.47467
    endloop
  endfacet
  facet normal 4.91234e-17 0.809017 0.587785
    outer loop
      vertex 6.5 -18.6168 5.47467
      vertex 1.5 -17.9992 4.62467
      vertex 1.5 -18.6168 5.47467
    endloop
  endfacet
  facet normal 0 -1 2.22045e-16
    outer loop
      vertex 13.25 -6 2.96891
      vertex 13.5 -6 0.4
      vertex 13.5 -6 3.40192
    endloop
  endfacet
  facet normal 0 -1 2.22045e-16
    outer loop
      vertex 9.5 -6 0.4
      vertex 13.5 -6 0.4
      vertex 13.25 -6 2.96891
    endloop
  endfacet
  facet normal 0 -1 2.22045e-16
    outer loop
      vertex 9.5 -6 3.40192
      vertex 9.5 -6 0.4
      vertex 9.75 -6 2.96891
    endloop
  endfacet
  facet normal 0 -1 2.22045e-16
    outer loop
      vertex 13.25 -6 2.96891
      vertex 9.75 -6 2.96891
      vertex 9.5 -6 0.4
    endloop
  endfacet
  facet normal -1.22465e-16 -1 2.22045e-16
    outer loop
      vertex 13.4053 -3 4.9
      vertex 13.25 -3 2.96891
      vertex 15 -3 6
    endloop
  endfacet
  facet normal -1.22465e-16 -1 2.22045e-16
    outer loop
      vertex 8 -3 6
      vertex 9.3 -3 6
      vertex 9.75 -3 9.03109
    endloop
  endfacet
  facet normal -1.22465e-16 -1 2.22045e-16
    outer loop
      vertex 8 -3 6
      vertex 9.75 -3 2.96891
      vertex 9.3 -3 6
    endloop
  endfacet
  facet normal -1.22465e-16 -1 2.22045e-16
    outer loop
      vertex 9.3 -3 6
      vertex 9.59474 -3 7.1
      vertex 9.75 -3 9.03109
    endloop
  endfacet
  facet normal -1.22465e-16 -1 2.22045e-16
    outer loop
      vertex 9.75 -3 9.03109
      vertex 10.4 -3 7.90526
      vertex 13.25 -3 9.03109
    endloop
  endfacet
  facet normal -1.22465e-16 -1 2.22045e-16
    outer loop
      vertex 10.4 -3 7.90526
      vertex 11.5 -3 8.2
      vertex 13.25 -3 9.03109
    endloop
  endfacet
  facet normal -1.22465e-16 -1 2.22045e-16
    outer loop
      vertex 11.5 -3 8.2
      vertex 12.6 -3 7.90526
      vertex 13.25 -3 9.03109
    endloop
  endfacet
  facet normal -1.22465e-16 -1 2.22045e-16
    outer loop
      vertex 13.25 -3 9.03109
      vertex 13.4053 -3 7.1
      vertex 15 -3 6
    endloop
  endfacet
  facet normal -1.22465e-16 -1 2.22045e-16
    outer loop
      vertex 13.4053 -3 7.1
      vertex 13.7 -3 6
      vertex 15 -3 6
    endloop
  endfacet
  facet normal -1.22465e-16 -1 2.22045e-16
    outer loop
      vertex 12.6 -3 4.09474
      vertex 13.25 -3 2.96891
      vertex 13.4053 -3 4.9
    endloop
  endfacet
  facet normal -1.22465e-16 -1 2.22045e-16
    outer loop
      vertex 9.75 -3 2.96891
      vertex 13.25 -3 2.96891
      vertex 12.6 -3 4.09474
    endloop
  endfacet
  facet normal -1.22465e-16 -1 2.22045e-16
    outer loop
      vertex 9.75 -3 2.96891
      vertex 12.6 -3 4.09474
      vertex 11.5 -3 3.8
    endloop
  endfacet
  facet normal -1.22465e-16 -1 2.22045e-16
    outer loop
      vertex 13.7 -3 6
      vertex 13.4053 -3 4.9
      vertex 15 -3 6
    endloop
  endfacet
  facet normal -1.22465e-16 -1 2.22045e-16
    outer loop
      vertex 9.3 -3 6
      vertex 9.75 -3 2.96891
      vertex 9.59474 -3 4.9
    endloop
  endfacet
  facet normal -1.22465e-16 -1 2.22045e-16
    outer loop
      vertex 9.59474 -3 7.1
      vertex 10.4 -3 7.90526
      vertex 9.75 -3 9.03109
    endloop
  endfacet
  facet normal -1.22465e-16 -1 2.22045e-16
    outer loop
      vertex 12.6 -3 7.90526
      vertex 13.4053 -3 7.1
      vertex 13.25 -3 9.03109
    endloop
  endfacet
  facet normal -1.22465e-16 -1 2.22045e-16
    outer loop
      vertex 11.5 -3 3.8
      vertex 10.4 -3 4.09474
      vertex 9.75 -3 2.96891
    endloop
  endfacet
  facet normal -1.22465e-16 -1 2.22045e-16
    outer loop
      vertex 10.4 -3 4.09474
      vertex 9.59474 -3 4.9
      vertex 9.75 -3 2.96891
    endloop
  endfacet
  facet normal -0.866025 -4.96478e-18 -0.5
    outer loop
      vertex 15 -3 6
      vertex 15 -6.48738 6
      vertex 13.25 -3 9.03109
    endloop
  endfacet
  facet normal -0.866025 -4.96478e-18 -0.5
    outer loop
      vertex 13.25 -3 9.03109
      vertex 15 -6.48738 6
      vertex 13.5 -6 8.59808
    endloop
  endfacet
  facet normal -0.866025 -4.96478e-18 -0.5
    outer loop
      vertex 13.25 -6 9.03109
      vertex 13.25 -3 9.03109
      vertex 13.5 -6 8.59808
    endloop
  endfacet
  facet normal -0.866025 2.1708e-16 0.5
    outer loop
      vertex 13.5 -6 3.40192
      vertex 15 -6.48738 6
      vertex 15 -3 6
    endloop
  endfacet
  facet normal -0.866025 2.1708e-16 0.5
    outer loop
      vertex 13.5 -6 3.40192
      vertex 15 -3 6
      vertex 13.25 -3 2.96891
    endloop
  endfacet
  facet normal -0.866025 2.1708e-16 0.5
    outer loop
      vertex 13.5 -6 3.40192
      vertex 13.25 -3 2.96891
      vertex 13.25 -6 2.96891
    endloop
  endfacet
  facet normal 0.866025 -2.1708e-16 -0.5
    outer loop
      vertex 8 -3 6
      vertex 9.75 -3 9.03109
      vertex 9.75 -6 9.03109
    endloop
  endfacet
  facet normal 0.866025 -2.1708e-16 -0.5
    outer loop
      vertex 8 -6.48738 6
      vertex 8 -3 6
      vertex 9.5 -6 8.59808
    endloop
  endfacet
  facet normal 0.866025 -2.1708e-16 -0.5
    outer loop
      vertex 9.5 -6 8.59808
      vertex 8 -3 6
      vertex 9.75 -6 9.03109
    endloop
  endfacet
  facet normal 0 -2.22045e-16 -1
    outer loop
      vertex 13.25 -3 9.03109
      vertex 13.25 -6 9.03109
      vertex 9.75 -3 9.03109
    endloop
  endfacet
  facet normal 0 -2.22045e-16 -1
    outer loop
      vertex 9.75 -3 9.03109
      vertex 13.25 -6 9.03109
      vertex 9.75 -6 9.03109
    endloop
  endfacet
  facet normal 0.866025 4.96478e-18 0.5
    outer loop
      vertex 9.5 -6 3.40192
      vertex 9.75 -6 2.96891
      vertex 9.75 -3 2.96891
    endloop
  endfacet
  facet normal 0.866025 4.96478e-18 0.5
    outer loop
      vertex 8 -6.48738 6
      vertex 9.5 -6 3.40192
      vertex 8 -3 6
    endloop
  endfacet
  facet normal 0.866025 4.96478e-18 0.5
    outer loop
      vertex 8 -3 6
      vertex 9.5 -6 3.40192
      vertex 9.75 -3 2.96891
    endloop
  endfacet
  facet normal 0 2.22045e-16 1
    outer loop
      vertex 13.25 -6 2.96891
      vertex 13.25 -3 2.96891
      vertex 9.75 -3 2.96891
    endloop
  endfacet
  facet normal 0 2.22045e-16 1
    outer loop
      vertex 9.75 -6 2.96891
      vertex 13.25 -6 2.96891
      vertex 9.75 -3 2.96891
    endloop
  endfacet
  facet normal -1 1.22465e-16 -2.71926e-32
    outer loop
      vertex -5 10 -2.22045e-15
      vertex -5 10 0.4
      vertex -5 42 -9.32587e-15
    endloop
  endfacet
  facet normal -1 1.22465e-16 -2.71926e-32
    outer loop
      vertex -5 42 -9.32587e-15
      vertex -5 10 0.4
      vertex -5 42 0.4
    endloop
  endfacet
  facet normal -1.22465e-16 -1 2.22045e-16
    outer loop
      vertex -5 10 0.4
      vertex -5 10 -2.22045e-15
      vertex 28 10 -2.22045e-15
    endloop
  endfacet
  facet normal -1.22465e-16 -1 2.22045e-16
    outer loop
      vertex 28 10 0.4
      vertex -5 10 0.4
      vertex 28 10 -2.22045e-15
    endloop
  endfacet
  facet normal 0 -2.22045e-16 -1
    outer loop
      vertex -5 10 -2.22045e-15
      vertex -5 42 -9.32587e-15
      vertex 28 10 -2.22045e-15
    endloop
  endfacet
  facet normal 0 -2.22045e-16 -1
    outer loop
      vertex 28 10 -2.22045e-15
      vertex -5 42 -9.32587e-15
      vertex 28 42 -9.32587e-15
    endloop
  endfacet
  facet normal 1.22465e-16 1 -2.22045e-16
    outer loop
      vertex -5 42 -9.32587e-15
      vertex -5 42 0.4
      vertex 28 42 -9.32587e-15
    endloop
  endfacet
  facet normal 1.22465e-16 1 -2.22045e-16
    outer loop
      vertex 28 42 -9.32587e-15
      vertex -5 42 0.4
      vertex 28 42 0.4
    endloop
  endfacet
  facet normal 0 2.22045e-16 1
    outer loop
      vertex 1.83697e-15 15 0.4
      vertex -5 10 0.4
      vertex 28 10 0.4
    endloop
  endfacet
  facet normal 0 2.22045e-16 1
    outer loop
      vertex -5 42 0.4
      vertex -5 10 0.4
      vertex 1.83697e-15 15 0.4
    endloop
  endfacet
  facet normal 0 2.22045e-16 1
    outer loop
      vertex 4.53119e-15 37 0.4
      vertex 23 37 0.4
      vertex -5 42 0.4
    endloop
  endfacet
  facet normal 0 2.22045e-16 1
    outer loop
      vertex -5 42 0.4
      vertex 1.83697e-15 15 0.4
      vertex 4.53119e-15 37 0.4
    endloop
  endfacet
  facet normal 0 2.22045e-16 1
    outer loop
      vertex 28 42 0.4
      vertex 23 37 0.4
      vertex 28 10 0.4
    endloop
  endfacet
  facet normal 0 2.22045e-16 1
    outer loop
      vertex 28 42 0.4
      vertex -5 42 0.4
      vertex 23 37 0.4
    endloop
  endfacet
  facet normal 0 2.22045e-16 1
    outer loop
      vertex 23 37 0.4
      vertex 23 15 0.4
      vertex 28 10 0.4
    endloop
  endfacet
  facet normal 0 2.22045e-16 1
    outer loop
      vertex 23 15 0.4
      vertex 1.83697e-15 15 0.4
      vertex 28 10 0.4
    endloop
  endfacet
  facet normal 1 -1.22465e-16 2.71926e-32
    outer loop
      vertex 28 10 0.4
      vertex 28 10 -2.22045e-15
      vertex 28 42 -9.32587e-15
    endloop
  endfacet
  facet normal 1 -1.22465e-16 2.71926e-32
    outer loop
      vertex 28 42 0.4
      vertex 28 10 0.4
      vertex 28 42 -9.32587e-15
    endloop
  endfacet
  facet normal -1.22465e-16 -1 2.22045e-16
    outer loop
      vertex 11.5 15 3.8
      vertex 1.83697e-15 15 0.4
      vertex 23 15 0.4
    endloop
  endfacet
  facet normal -1.22465e-16 -1 2.22045e-16
    outer loop
      vertex 1.83697e-15 15 12
      vertex 1.83697e-15 15 0.4
      vertex 9.59474 15 4.9
    endloop
  endfacet
  facet normal -1.22465e-16 -1 2.22045e-16
    outer loop
      vertex 12.6 15 4.09474
      vertex 11.5 15 3.8
      vertex 23 15 0.4
    endloop
  endfacet
  facet normal -1.22465e-16 -1 2.22045e-16
    outer loop
      vertex 1.83697e-15 15 12
      vertex 9.59474 15 4.9
      vertex 9.3 15 6
    endloop
  endfacet
  facet normal -1.22465e-16 -1 2.22045e-16
    outer loop
      vertex 13.4053 15 7.1
      vertex 13.7 15 6
      vertex 23 15 0.4
    endloop
  endfacet
  facet normal -1.22465e-16 -1 2.22045e-16
    outer loop
      vertex 1.83697e-15 15 12
      vertex 9.3 15 6
      vertex 9.59474 15 7.1
    endloop
  endfacet
  facet normal -1.22465e-16 -1 2.22045e-16
    outer loop
      vertex 23 15 12
      vertex 1.83697e-15 15 12
      vertex 10.4 15 7.90526
    endloop
  endfacet
  facet normal -1.22465e-16 -1 2.22045e-16
    outer loop
      vertex 23 15 12
      vertex 10.4 15 7.90526
      vertex 11.5 15 8.2
    endloop
  endfacet
  facet normal -1.22465e-16 -1 2.22045e-16
    outer loop
      vertex 23 15 12
      vertex 12.6 15 7.90526
      vertex 23 15 0.4
    endloop
  endfacet
  facet normal -1.22465e-16 -1 2.22045e-16
    outer loop
      vertex 23 15 12
      vertex 11.5 15 8.2
      vertex 12.6 15 7.90526
    endloop
  endfacet
  facet normal -1.22465e-16 -1 2.22045e-16
    outer loop
      vertex 12.6 15 7.90526
      vertex 13.4053 15 7.1
      vertex 23 15 0.4
    endloop
  endfacet
  facet normal -1.22465e-16 -1 2.22045e-16
    outer loop
      vertex 10.4 15 4.09474
      vertex 1.83697e-15 15 0.4
      vertex 11.5 15 3.8
    endloop
  endfacet
  facet normal -1.22465e-16 -1 2.22045e-16
    outer loop
      vertex 9.59474 15 4.9
      vertex 1.83697e-15 15 0.4
      vertex 10.4 15 4.09474
    endloop
  endfacet
  facet normal -1.22465e-16 -1 2.22045e-16
    outer loop
      vertex 13.4053 15 4.9
      vertex 12.6 15 4.09474
      vertex 23 15 0.4
    endloop
  endfacet
  facet normal -1.22465e-16 -1 2.22045e-16
    outer loop
      vertex 9.59474 15 7.1
      vertex 10.4 15 7.90526
      vertex 1.83697e-15 15 12
    endloop
  endfacet
  facet normal -1.22465e-16 -1 2.22045e-16
    outer loop
      vertex 13.7 15 6
      vertex 13.4053 15 4.9
      vertex 23 15 0.4
    endloop
  endfacet
  facet normal -1 1.22465e-16 -2.71926e-32
    outer loop
      vertex 1.83697e-15 15 0.4
      vertex 1.83697e-15 15 12
      vertex 4.53119e-15 37 0.4
    endloop
  endfacet
  facet normal -1 1.22465e-16 -2.71926e-32
    outer loop
      vertex 3.7965e-15 31.0008 7.37533
      vertex 1.83697e-15 15 12
      vertex 4.53119e-15 37 12
    endloop
  endfacet
  facet normal -1 1.22465e-16 -2.71926e-32
    outer loop
      vertex 3.72087e-15 30.3832 5.47467
      vertex 1.83697e-15 15 12
      vertex 3.72087e-15 30.3832 6.52533
    endloop
  endfacet
  facet normal -1 1.22465e-16 -2.71926e-32
    outer loop
      vertex 3.7965e-15 31.0008 4.62467
      vertex 1.83697e-15 15 12
      vertex 3.72087e-15 30.3832 5.47467
    endloop
  endfacet
  facet normal -1 1.22465e-16 -2.71926e-32
    outer loop
      vertex 4.53119e-15 37 0.4
      vertex 1.83697e-15 15 12
      vertex 3.7965e-15 31.0008 4.62467
    endloop
  endfacet
  facet normal -1 1.22465e-16 -2.71926e-32
    outer loop
      vertex 4.04124e-15 32.9992 4.62467
      vertex 4.53119e-15 37 0.4
      vertex 3.91887e-15 32 4.3
    endloop
  endfacet
  facet normal -1 1.22465e-16 -2.71926e-32
    outer loop
      vertex 4.11687e-15 33.6168 6.52533
      vertex 4.53119e-15 37 12
      vertex 4.11687e-15 33.6168 5.47467
    endloop
  endfacet
  facet normal -1 1.22465e-16 -2.71926e-32
    outer loop
      vertex 4.53119e-15 37 0.4
      vertex 4.04124e-15 32.9992 4.62467
      vertex 4.11687e-15 33.6168 5.47467
    endloop
  endfacet
  facet normal -1 1.22465e-16 -2.71926e-32
    outer loop
      vertex 4.53119e-15 37 0.4
      vertex 4.11687e-15 33.6168 5.47467
      vertex 4.53119e-15 37 12
    endloop
  endfacet
  facet normal -1 1.22465e-16 -2.71926e-32
    outer loop
      vertex 3.7965e-15 31.0008 7.37533
      vertex 4.53119e-15 37 12
      vertex 3.91887e-15 32 7.7
    endloop
  endfacet
  facet normal -1 1.22465e-16 -2.71926e-32
    outer loop
      vertex 4.11687e-15 33.6168 6.52533
      vertex 4.04124e-15 32.9992 7.37533
      vertex 4.53119e-15 37 12
    endloop
  endfacet
  facet normal -1 1.22465e-16 -2.71926e-32
    outer loop
      vertex 4.04124e-15 32.9992 7.37533
      vertex 3.91887e-15 32 7.7
      vertex 4.53119e-15 37 12
    endloop
  endfacet
  facet normal -1 1.22465e-16 -2.71926e-32
    outer loop
      vertex 3.72087e-15 30.3832 6.52533
      vertex 1.83697e-15 15 12
      vertex 3.7965e-15 31.0008 7.37533
    endloop
  endfacet
  facet normal -1 1.22465e-16 -2.71926e-32
    outer loop
      vertex 3.91887e-15 32 4.3
      vertex 4.53119e-15 37 0.4
      vertex 3.7965e-15 31.0008 4.62467
    endloop
  endfacet
  facet normal 1 -1.22465e-16 2.71926e-32
    outer loop
      vertex 23 32 2.5
      vertex 23 15 0.4
      vertex 23 37 0.4
    endloop
  endfacet
  facet normal 1 -1.22465e-16 2.71926e-32
    outer loop
      vertex 23 32 9.5
      vertex 23 35.0311 7.75
      vertex 23 37 12
    endloop
  endfacet
  facet normal 1 -1.22465e-16 2.71926e-32
    outer loop
      vertex 23 15 12
      vertex 23 15 0.4
      vertex 23 28.9689 4.25
    endloop
  endfacet
  facet normal 1 -1.22465e-16 2.71926e-32
    outer loop
      vertex 23 32 9.5
      vertex 23 15 12
      vertex 23 28.9689 7.75
    endloop
  endfacet
  facet normal 1 -1.22465e-16 2.71926e-32
    outer loop
      vertex 23 37 12
      vertex 23 15 12
      vertex 23 32 9.5
    endloop
  endfacet
  facet normal 1 -1.22465e-16 2.71926e-32
    outer loop
      vertex 23 37 12
      vertex 23 35.0311 7.75
      vertex 23 37 0.4
    endloop
  endfacet
  facet normal 1 -1.22465e-16 2.71926e-32
    outer loop
      vertex 23 35.0311 7.75
      vertex 23 35.0311 4.25
      vertex 23 37 0.4
    endloop
  endfacet
  facet normal 1 -1.22465e-16 2.71926e-32
    outer loop
      vertex 23 28.9689 4.25
      vertex 23 15 0.4
      vertex 23 32 2.5
    endloop
  endfacet
  facet normal 1 -1.22465e-16 2.71926e-32
    outer loop
      vertex 23 28.9689 4.25
      vertex 23 28.9689 7.75
      vertex 23 15 12
    endloop
  endfacet
  facet normal 1 -1.22465e-16 2.71926e-32
    outer loop
      vertex 23 35.0311 4.25
      vertex 23 32 2.5
      vertex 23 37 0.4
    endloop
  endfacet
  facet normal 1.22465e-16 1 -2.22045e-16
    outer loop
      vertex 4.53119e-15 37 0.4
      vertex 4.53119e-15 37 12
      vertex 6.5 37 0.4
    endloop
  endfacet
  facet normal 1.22465e-16 1 -2.22045e-16
    outer loop
      vertex 4.53119e-15 37 0.4
      vertex 6.5 37 0.4
      vertex 23 37 0.4
    endloop
  endfacet
  facet normal 1.22465e-16 1 -2.22045e-16
    outer loop
      vertex 16.5 37 12
      vertex 23 37 0.4
      vertex 16.5 37 0.4
    endloop
  endfacet
  facet normal 1.22465e-16 1 -2.22045e-16
    outer loop
      vertex 6.5 37 0.4
      vertex 16.5 37 0.4
      vertex 23 37 0.4
    endloop
  endfacet
  facet normal 1.22465e-16 1 -2.22045e-16
    outer loop
      vertex 23 37 0.4
      vertex 16.5 37 12
      vertex 23 37 12
    endloop
  endfacet
  facet normal 1.22465e-16 1 -2.22045e-16
    outer loop
      vertex 6.5 37 0.4
      vertex 4.53119e-15 37 12
      vertex 6.5 37 12
    endloop
  endfacet
  facet normal 0 2.22045e-16 1
    outer loop
      vertex 15.2634 21.5729 12
      vertex 1.83697e-15 15 12
      vertex 23 15 12
    endloop
  endfacet
  facet normal 0 2.22045e-16 1
    outer loop
      vertex 23 37 12
      vertex 16.5 37 12
      vertex 23 15 12
    endloop
  endfacet
  facet normal 0 2.22045e-16 1
    outer loop
      vertex 16.5 37 12
      vertex 16.5 24 12
      vertex 23 15 12
    endloop
  endfacet
  facet normal 0 2.22045e-16 1
    outer loop
      vertex 16.5 24 12
      vertex 16.3532 24 12
      vertex 23 15 12
    endloop
  endfacet
  facet normal 0 2.22045e-16 1
    outer loop
      vertex 16.3532 24 12
      vertex 16.3532 23.0729 12
      vertex 23 15 12
    endloop
  endfacet
  facet normal 0 2.22045e-16 1
    outer loop
      vertex 13.5 21 12
      vertex 1.83697e-15 15 12
      vertex 15.2634 21.5729 12
    endloop
  endfacet
  facet normal 0 2.22045e-16 1
    outer loop
      vertex 9.5 21 12
      vertex 1.83697e-15 15 12
      vertex 13.5 21 12
    endloop
  endfacet
  facet normal 0 2.22045e-16 1
    outer loop
      vertex 7.73664 21.5729 12
      vertex 1.83697e-15 15 12
      vertex 9.5 21 12
    endloop
  endfacet
  facet normal 0 2.22045e-16 1
    outer loop
      vertex 6.64683 23.0729 12
      vertex 6.64683 24 12
      vertex 6.5 24 12
    endloop
  endfacet
  facet normal 0 2.22045e-16 1
    outer loop
      vertex 6.64683 23.0729 12
      vertex 1.83697e-15 15 12
      vertex 7.73664 21.5729 12
    endloop
  endfacet
  facet normal 0 2.22045e-16 1
    outer loop
      vertex 4.53119e-15 37 12
      vertex 1.83697e-15 15 12
      vertex 6.64683 23.0729 12
    endloop
  endfacet
  facet normal 0 2.22045e-16 1
    outer loop
      vertex 4.53119e-15 37 12
      vertex 6.64683 23.0729 12
      vertex 6.5 24 12
    endloop
  endfacet
  facet normal 0 2.22045e-16 1
    outer loop
      vertex 16.3532 23.0729 12
      vertex 15.2634 21.5729 12
      vertex 23 15 12
    endloop
  endfacet
  facet normal 0 2.22045e-16 1
    outer loop
      vertex 6.5 24 12
      vertex 6.5 37 12
      vertex 4.53119e-15 37 12
    endloop
  endfacet
  facet normal 0.707107 -1.6182e-17 0.707107
    outer loop
      vertex 10.4 15 4.09474
      vertex 10.4 18 4.09474
      vertex 9.59474 18 4.9
    endloop
  endfacet
  facet normal 0.707107 -1.6182e-17 0.707107
    outer loop
      vertex 9.59474 15 4.9
      vertex 10.4 15 4.09474
      vertex 9.59474 18 4.9
    endloop
  endfacet
  facet normal 0.965926 -1.79114e-16 0.258819
    outer loop
      vertex 9.59474 15 4.9
      vertex 9.59474 18 4.9
      vertex 9.3 18 6
    endloop
  endfacet
  facet normal 0.965926 -1.79114e-16 0.258819
    outer loop
      vertex 9.3 15 6
      vertex 9.59474 15 4.9
      vertex 9.3 18 6
    endloop
  endfacet
  facet normal 0.258819 1.51086e-16 0.965926
    outer loop
      vertex 11.5 15 3.8
      vertex 11.5 18 3.8
      vertex 10.4 18 4.09474
    endloop
  endfacet
  facet normal 0.258819 1.51086e-16 0.965926
    outer loop
      vertex 10.4 15 4.09474
      vertex 11.5 15 3.8
      vertex 10.4 18 4.09474
    endloop
  endfacet
  facet normal -0.258819 2.77871e-16 0.965926
    outer loop
      vertex 12.6 15 4.09474
      vertex 12.6 18 4.09474
      vertex 11.5 18 3.8
    endloop
  endfacet
  facet normal -0.258819 2.77871e-16 0.965926
    outer loop
      vertex 11.5 15 3.8
      vertex 12.6 15 4.09474
      vertex 11.5 18 3.8
    endloop
  endfacet
  facet normal -0.707107 3.302e-16 0.707107
    outer loop
      vertex 13.4053 18 4.9
      vertex 12.6 18 4.09474
      vertex 13.4053 15 4.9
    endloop
  endfacet
  facet normal -0.707107 3.302e-16 0.707107
    outer loop
      vertex 13.4053 15 4.9
      vertex 12.6 18 4.09474
      vertex 12.6 15 4.09474
    endloop
  endfacet
  facet normal -0.965926 2.94053e-16 0.258819
    outer loop
      vertex 13.7 18 6
      vertex 13.4053 18 4.9
      vertex 13.7 15 6
    endloop
  endfacet
  facet normal -0.965926 2.94053e-16 0.258819
    outer loop
      vertex 13.7 15 6
      vertex 13.4053 18 4.9
      vertex 13.4053 15 4.9
    endloop
  endfacet
  facet normal -0.965926 1.79114e-16 -0.258819
    outer loop
      vertex 13.7 18 6
      vertex 13.7 15 6
      vertex 13.4053 18 7.1
    endloop
  endfacet
  facet normal -0.965926 1.79114e-16 -0.258819
    outer loop
      vertex 13.4053 18 7.1
      vertex 13.7 15 6
      vertex 13.4053 15 7.1
    endloop
  endfacet
  facet normal -0.707107 1.6182e-17 -0.707107
    outer loop
      vertex 13.4053 18 7.1
      vertex 13.4053 15 7.1
      vertex 12.6 18 7.90526
    endloop
  endfacet
  facet normal -0.707107 1.6182e-17 -0.707107
    outer loop
      vertex 12.6 18 7.90526
      vertex 13.4053 15 7.1
      vertex 12.6 15 7.90526
    endloop
  endfacet
  facet normal -0.258819 -1.51086e-16 -0.965926
    outer loop
      vertex 12.6 18 7.90526
      vertex 12.6 15 7.90526
      vertex 11.5 18 8.2
    endloop
  endfacet
  facet normal -0.258819 -1.51086e-16 -0.965926
    outer loop
      vertex 11.5 18 8.2
      vertex 12.6 15 7.90526
      vertex 11.5 15 8.2
    endloop
  endfacet
  facet normal 0.258819 -2.77871e-16 -0.965926
    outer loop
      vertex 11.5 18 8.2
      vertex 11.5 15 8.2
      vertex 10.4 18 7.90526
    endloop
  endfacet
  facet normal 0.258819 -2.77871e-16 -0.965926
    outer loop
      vertex 10.4 18 7.90526
      vertex 11.5 15 8.2
      vertex 10.4 15 7.90526
    endloop
  endfacet
  facet normal 0.707107 -3.302e-16 -0.707107
    outer loop
      vertex 9.59474 18 7.1
      vertex 10.4 18 7.90526
      vertex 10.4 15 7.90526
    endloop
  endfacet
  facet normal 0.707107 -3.302e-16 -0.707107
    outer loop
      vertex 9.59474 15 7.1
      vertex 9.59474 18 7.1
      vertex 10.4 15 7.90526
    endloop
  endfacet
  facet normal 0.965926 -2.94053e-16 -0.258819
    outer loop
      vertex 9.3 18 6
      vertex 9.59474 18 7.1
      vertex 9.59474 15 7.1
    endloop
  endfacet
  facet normal 0.965926 -2.94053e-16 -0.258819
    outer loop
      vertex 9.3 15 6
      vertex 9.3 18 6
      vertex 9.59474 15 7.1
    endloop
  endfacet
  facet normal 1.48199e-16 0.809017 -0.587785
    outer loop
      vertex 6.5 31.0008 7.37533
      vertex 6.5 30.3832 6.52533
      vertex 3.7965e-15 31.0008 7.37533
    endloop
  endfacet
  facet normal 1.48199e-16 0.809017 -0.587785
    outer loop
      vertex 3.7965e-15 31.0008 7.37533
      vertex 6.5 30.3832 6.52533
      vertex 3.72087e-15 30.3832 6.52533
    endloop
  endfacet
  facet normal 3.44509e-16 1 -2.22045e-16
    outer loop
      vertex 6.5 30.3832 6.52533
      vertex 6.5 30.3832 5.47467
      vertex 3.72087e-15 30.3832 6.52533
    endloop
  endfacet
  facet normal 3.44509e-16 1 -2.22045e-16
    outer loop
      vertex 3.72087e-15 30.3832 6.52533
      vertex 6.5 30.3832 5.47467
      vertex 3.72087e-15 30.3832 5.47467
    endloop
  endfacet
  facet normal -1.04718e-16 0.309017 -0.951057
    outer loop
      vertex 6.5 32 7.7
      vertex 6.5 31.0008 7.37533
      vertex 3.91887e-15 32 7.7
    endloop
  endfacet
  facet normal -1.04718e-16 0.309017 -0.951057
    outer loop
      vertex 3.91887e-15 32 7.7
      vertex 6.5 31.0008 7.37533
      vertex 3.7965e-15 31.0008 7.37533
    endloop
  endfacet
  facet normal -3.17636e-16 -0.309017 -0.951057
    outer loop
      vertex 6.5 32.9992 7.37533
      vertex 6.5 32 7.7
      vertex 4.04124e-15 32.9992 7.37533
    endloop
  endfacet
  facet normal -3.17636e-16 -0.309017 -0.951057
    outer loop
      vertex 4.04124e-15 32.9992 7.37533
      vertex 6.5 32 7.7
      vertex 3.91887e-15 32 7.7
    endloop
  endfacet
  facet normal -4.09228e-16 -0.809017 -0.587785
    outer loop
      vertex 4.11687e-15 33.6168 6.52533
      vertex 6.5 33.6168 6.52533
      vertex 6.5 32.9992 7.37533
    endloop
  endfacet
  facet normal -4.09228e-16 -0.809017 -0.587785
    outer loop
      vertex 4.04124e-15 32.9992 7.37533
      vertex 4.11687e-15 33.6168 6.52533
      vertex 6.5 32.9992 7.37533
    endloop
  endfacet
  facet normal -3.44509e-16 -1 2.22045e-16
    outer loop
      vertex 6.5 33.6168 5.47467
      vertex 6.5 33.6168 6.52533
      vertex 4.11687e-15 33.6168 6.52533
    endloop
  endfacet
  facet normal -3.44509e-16 -1 2.22045e-16
    outer loop
      vertex 4.11687e-15 33.6168 5.47467
      vertex 6.5 33.6168 5.47467
      vertex 4.11687e-15 33.6168 6.52533
    endloop
  endfacet
  facet normal -1.48199e-16 -0.809017 0.587785
    outer loop
      vertex 6.5 32.9992 4.62467
      vertex 6.5 33.6168 5.47467
      vertex 4.11687e-15 33.6168 5.47467
    endloop
  endfacet
  facet normal -1.48199e-16 -0.809017 0.587785
    outer loop
      vertex 4.04124e-15 32.9992 4.62467
      vertex 6.5 32.9992 4.62467
      vertex 4.11687e-15 33.6168 5.47467
    endloop
  endfacet
  facet normal 1.04718e-16 -0.309017 0.951057
    outer loop
      vertex 6.5 32 4.3
      vertex 6.5 32.9992 4.62467
      vertex 4.04124e-15 32.9992 4.62467
    endloop
  endfacet
  facet normal 1.04718e-16 -0.309017 0.951057
    outer loop
      vertex 3.91887e-15 32 4.3
      vertex 6.5 32 4.3
      vertex 4.04124e-15 32.9992 4.62467
    endloop
  endfacet
  facet normal 3.17636e-16 0.309017 0.951057
    outer loop
      vertex 6.5 31.0008 4.62467
      vertex 6.5 32 4.3
      vertex 3.91887e-15 32 4.3
    endloop
  endfacet
  facet normal 3.17636e-16 0.309017 0.951057
    outer loop
      vertex 3.7965e-15 31.0008 4.62467
      vertex 6.5 31.0008 4.62467
      vertex 3.91887e-15 32 4.3
    endloop
  endfacet
  facet normal 4.09228e-16 0.809017 0.587785
    outer loop
      vertex 6.5 31.0008 4.62467
      vertex 3.7965e-15 31.0008 4.62467
      vertex 6.5 30.3832 5.47467
    endloop
  endfacet
  facet normal 4.09228e-16 0.809017 0.587785
    outer loop
      vertex 6.5 30.3832 5.47467
      vertex 3.7965e-15 31.0008 4.62467
      vertex 3.72087e-15 30.3832 5.47467
    endloop
  endfacet
  facet normal 3.64551e-16 0.5 0.866025
    outer loop
      vertex 23 28.9689 4.25
      vertex 23 32 2.5
      vertex 21.5 32 2.5
    endloop
  endfacet
  facet normal 3.64551e-16 0.5 0.866025
    outer loop
      vertex 21.5 28.9689 4.25
      vertex 23 28.9689 4.25
      vertex 21.5 32 2.5
    endloop
  endfacet
  facet normal 3.44509e-16 1 -2.22045e-16
    outer loop
      vertex 23 28.9689 7.75
      vertex 23 28.9689 4.25
      vertex 21.5 28.9689 7.75
    endloop
  endfacet
  facet normal 3.44509e-16 1 -2.22045e-16
    outer loop
      vertex 21.5 28.9689 7.75
      vertex 23 28.9689 4.25
      vertex 21.5 28.9689 4.25
    endloop
  endfacet
  facet normal 2.00416e-17 -0.5 0.866025
    outer loop
      vertex 23 32 2.5
      vertex 23 35.0311 4.25
      vertex 21.5 35.0311 4.25
    endloop
  endfacet
  facet normal 2.00416e-17 -0.5 0.866025
    outer loop
      vertex 21.5 32 2.5
      vertex 23 32 2.5
      vertex 21.5 35.0311 4.25
    endloop
  endfacet
  facet normal -3.44509e-16 -1 2.22045e-16
    outer loop
      vertex 23 35.0311 4.25
      vertex 23 35.0311 7.75
      vertex 21.5 35.0311 7.75
    endloop
  endfacet
  facet normal -3.44509e-16 -1 2.22045e-16
    outer loop
      vertex 21.5 35.0311 4.25
      vertex 23 35.0311 4.25
      vertex 21.5 35.0311 7.75
    endloop
  endfacet
  facet normal -3.64551e-16 -0.5 -0.866025
    outer loop
      vertex 23 35.0311 7.75
      vertex 23 32 9.5
      vertex 21.5 35.0311 7.75
    endloop
  endfacet
  facet normal -3.64551e-16 -0.5 -0.866025
    outer loop
      vertex 21.5 35.0311 7.75
      vertex 23 32 9.5
      vertex 21.5 32 9.5
    endloop
  endfacet
  facet normal -2.00416e-17 0.5 -0.866025
    outer loop
      vertex 23 32 9.5
      vertex 23 28.9689 7.75
      vertex 21.5 32 9.5
    endloop
  endfacet
  facet normal -2.00416e-17 0.5 -0.866025
    outer loop
      vertex 21.5 32 9.5
      vertex 23 28.9689 7.75
      vertex 21.5 28.9689 7.75
    endloop
  endfacet
  facet normal -1 1.22465e-16 -2.71926e-32
    outer loop
      vertex 16.5 31.0008 4.62467
      vertex 16.5 37 0.4
      vertex 16.5 24 0.4
    endloop
  endfacet
  facet normal -1 1.22465e-16 -2.71926e-32
    outer loop
      vertex 16.5 32.9992 4.62467
      vertex 16.5 37 0.4
      vertex 16.5 32 4.3
    endloop
  endfacet
  facet normal -1 1.22465e-16 -2.71926e-32
    outer loop
      vertex 16.5 24 12
      vertex 16.5 30.3832 5.47467
      vertex 16.5 24 0.4
    endloop
  endfacet
  facet normal -1 1.22465e-16 -2.71926e-32
    outer loop
      vertex 16.5 30.3832 5.47467
      vertex 16.5 31.0008 4.62467
      vertex 16.5 24 0.4
    endloop
  endfacet
  facet normal -1 1.22465e-16 -2.71926e-32
    outer loop
      vertex 16.5 32 4.3
      vertex 16.5 37 0.4
      vertex 16.5 31.0008 4.62467
    endloop
  endfacet
  facet normal -1 1.22465e-16 -2.71926e-32
    outer loop
      vertex 16.5 33.6168 5.47467
      vertex 16.5 37 0.4
      vertex 16.5 32.9992 4.62467
    endloop
  endfacet
  facet normal -1 1.22465e-16 -2.71926e-32
    outer loop
      vertex 16.5 37 12
      vertex 16.5 37 0.4
      vertex 16.5 33.6168 5.47467
    endloop
  endfacet
  facet normal -1 1.22465e-16 -2.71926e-32
    outer loop
      vertex 16.5 31.0008 7.37533
      vertex 16.5 24 12
      vertex 16.5 32 7.7
    endloop
  endfacet
  facet normal -1 1.22465e-16 -2.71926e-32
    outer loop
      vertex 16.5 37 12
      vertex 16.5 33.6168 6.52533
      vertex 16.5 32.9992 7.37533
    endloop
  endfacet
  facet normal -1 1.22465e-16 -2.71926e-32
    outer loop
      vertex 16.5 37 12
      vertex 16.5 32.9992 7.37533
      vertex 16.5 24 12
    endloop
  endfacet
  facet normal -1 1.22465e-16 -2.71926e-32
    outer loop
      vertex 16.5 32.9992 7.37533
      vertex 16.5 32 7.7
      vertex 16.5 24 12
    endloop
  endfacet
  facet normal -1 1.22465e-16 -2.71926e-32
    outer loop
      vertex 16.5 30.3832 6.52533
      vertex 16.5 24 12
      vertex 16.5 31.0008 7.37533
    endloop
  endfacet
  facet normal -1 1.22465e-16 -2.71926e-32
    outer loop
      vertex 16.5 33.6168 6.52533
      vertex 16.5 37 12
      vertex 16.5 33.6168 5.47467
    endloop
  endfacet
  facet normal -1 1.22465e-16 -2.71926e-32
    outer loop
      vertex 16.5 30.3832 5.47467
      vertex 16.5 24 12
      vertex 16.5 30.3832 6.52533
    endloop
  endfacet
  facet normal 0 2.22045e-16 1
    outer loop
      vertex 6.64683 24 0.4
      vertex 6.64683 23.0729 0.4
      vertex 7.73664 21.5729 0.4
    endloop
  endfacet
  facet normal 0 2.22045e-16 1
    outer loop
      vertex 13.5 21 0.4
      vertex 6.64683 24 0.4
      vertex 9.5 21 0.4
    endloop
  endfacet
  facet normal 0 2.22045e-16 1
    outer loop
      vertex 9.5 21 0.4
      vertex 6.64683 24 0.4
      vertex 7.73664 21.5729 0.4
    endloop
  endfacet
  facet normal 0 2.22045e-16 1
    outer loop
      vertex 15.2634 21.5729 0.4
      vertex 6.64683 24 0.4
      vertex 13.5 21 0.4
    endloop
  endfacet
  facet normal 0 2.22045e-16 1
    outer loop
      vertex 16.3532 23.0729 0.4
      vertex 6.64683 24 0.4
      vertex 15.2634 21.5729 0.4
    endloop
  endfacet
  facet normal 0 2.22045e-16 1
    outer loop
      vertex 16.3532 24 0.4
      vertex 6.64683 24 0.4
      vertex 16.3532 23.0729 0.4
    endloop
  endfacet
  facet normal 0 2.22045e-16 1
    outer loop
      vertex 16.5 37 0.4
      vertex 6.64683 24 0.4
      vertex 16.3532 24 0.4
    endloop
  endfacet
  facet normal 0 2.22045e-16 1
    outer loop
      vertex 16.5 37 0.4
      vertex 16.3532 24 0.4
      vertex 16.5 24 0.4
    endloop
  endfacet
  facet normal 0 2.22045e-16 1
    outer loop
      vertex 6.5 37 0.4
      vertex 6.64683 24 0.4
      vertex 16.5 37 0.4
    endloop
  endfacet
  facet normal 0 2.22045e-16 1
    outer loop
      vertex 6.5 24 0.4
      vertex 6.64683 24 0.4
      vertex 6.5 37 0.4
    endloop
  endfacet
  facet normal 1 -1.22465e-16 2.71926e-32
    outer loop
      vertex 6.5 31.0008 7.37533
      vertex 6.5 37 12
      vertex 6.5 24 12
    endloop
  endfacet
  facet normal 1 -1.22465e-16 2.71926e-32
    outer loop
      vertex 6.5 31.0008 7.37533
      vertex 6.5 32 7.7
      vertex 6.5 37 12
    endloop
  endfacet
  facet normal 1 -1.22465e-16 2.71926e-32
    outer loop
      vertex 6.5 30.3832 6.52533
      vertex 6.5 31.0008 7.37533
      vertex 6.5 24 12
    endloop
  endfacet
  facet normal 1 -1.22465e-16 2.71926e-32
    outer loop
      vertex 6.5 33.6168 6.52533
      vertex 6.5 33.6168 5.47467
      vertex 6.5 37 0.4
    endloop
  endfacet
  facet normal 1 -1.22465e-16 2.71926e-32
    outer loop
      vertex 6.5 32.9992 7.37533
      vertex 6.5 37 12
      vertex 6.5 32 7.7
    endloop
  endfacet
  facet normal 1 -1.22465e-16 2.71926e-32
    outer loop
      vertex 6.5 33.6168 6.52533
      vertex 6.5 37 12
      vertex 6.5 32.9992 7.37533
    endloop
  endfacet
  facet normal 1 -1.22465e-16 2.71926e-32
    outer loop
      vertex 6.5 33.6168 5.47467
      vertex 6.5 32.9992 4.62467
      vertex 6.5 37 0.4
    endloop
  endfacet
  facet normal 1 -1.22465e-16 2.71926e-32
    outer loop
      vertex 6.5 37 0.4
      vertex 6.5 37 12
      vertex 6.5 33.6168 6.52533
    endloop
  endfacet
  facet normal 1 -1.22465e-16 2.71926e-32
    outer loop
      vertex 6.5 32.9992 4.62467
      vertex 6.5 32 4.3
      vertex 6.5 37 0.4
    endloop
  endfacet
  facet normal 1 -1.22465e-16 2.71926e-32
    outer loop
      vertex 6.5 24 0.4
      vertex 6.5 37 0.4
      vertex 6.5 32 4.3
    endloop
  endfacet
  facet normal 1 -1.22465e-16 2.71926e-32
    outer loop
      vertex 6.5 24 0.4
      vertex 6.5 31.0008 4.62467
      vertex 6.5 24 12
    endloop
  endfacet
  facet normal 1 -1.22465e-16 2.71926e-32
    outer loop
      vertex 6.5 24 0.4
      vertex 6.5 32 4.3
      vertex 6.5 31.0008 4.62467
    endloop
  endfacet
  facet normal 1 -1.22465e-16 2.71926e-32
    outer loop
      vertex 6.5 31.0008 4.62467
      vertex 6.5 30.3832 5.47467
      vertex 6.5 24 12
    endloop
  endfacet
  facet normal 1 -1.22465e-16 2.71926e-32
    outer loop
      vertex 6.5 30.3832 5.47467
      vertex 6.5 30.3832 6.52533
      vertex 6.5 24 12
    endloop
  endfacet
  facet normal 3.44509e-16 1 -2.22045e-16
    outer loop
      vertex 6.5 24 0.4
      vertex 6.5 24 12
      vertex 6.64683 24 0.4
    endloop
  endfacet
  facet normal 3.44509e-16 1 -2.22045e-16
    outer loop
      vertex 6.64683 24 0.4
      vertex 6.5 24 12
      vertex 6.64683 24 12
    endloop
  endfacet
  facet normal 1 -3.44509e-16 -2.22045e-16
    outer loop
      vertex 6.64683 24 0.4
      vertex 6.64683 24 12
      vertex 6.64683 23.0729 12
    endloop
  endfacet
  facet normal 1 -3.44509e-16 -2.22045e-16
    outer loop
      vertex 6.64683 23.0729 0.4
      vertex 6.64683 24 0.4
      vertex 6.64683 23.0729 12
    endloop
  endfacet
  facet normal 0.809017 0.587785 -3.10152e-16
    outer loop
      vertex 6.64683 23.0729 12
      vertex 7.73664 21.5729 12
      vertex 7.73664 21.5729 0.4
    endloop
  endfacet
  facet normal 0.809017 0.587785 -3.10152e-16
    outer loop
      vertex 6.64683 23.0729 0.4
      vertex 6.64683 23.0729 12
      vertex 7.73664 21.5729 0.4
    endloop
  endfacet
  facet normal 0.309017 0.951057 -2.79793e-16
    outer loop
      vertex 9.5 21 12
      vertex 9.5 21 8.59808
      vertex 7.73664 21.5729 12
    endloop
  endfacet
  facet normal 0.309017 0.951057 -2.79793e-16
    outer loop
      vertex 7.73664 21.5729 12
      vertex 9.5 21 8.59808
      vertex 8 21.4874 6
    endloop
  endfacet
  facet normal 0.309017 0.951057 -2.79793e-16
    outer loop
      vertex 8 21.4874 6
      vertex 9.5 21 3.40192
      vertex 9.5 21 0.4
    endloop
  endfacet
  facet normal 0.309017 0.951057 -2.79793e-16
    outer loop
      vertex 8 21.4874 6
      vertex 9.5 21 0.4
      vertex 7.73664 21.5729 0.4
    endloop
  endfacet
  facet normal 0.309017 0.951057 -2.79793e-16
    outer loop
      vertex 8 21.4874 6
      vertex 7.73664 21.5729 0.4
      vertex 7.73664 21.5729 12
    endloop
  endfacet
  facet normal 1.22465e-16 1 -2.22045e-16
    outer loop
      vertex 13.5 21 12
      vertex 13.25 21 9.03109
      vertex 9.5 21 12
    endloop
  endfacet
  facet normal 1.22465e-16 1 -2.22045e-16
    outer loop
      vertex 13.5 21 12
      vertex 13.5 21 8.59808
      vertex 13.25 21 9.03109
    endloop
  endfacet
  facet normal 1.22465e-16 1 -2.22045e-16
    outer loop
      vertex 9.5 21 12
      vertex 9.75 21 9.03109
      vertex 9.5 21 8.59808
    endloop
  endfacet
  facet normal 1.22465e-16 1 -2.22045e-16
    outer loop
      vertex 9.75 21 9.03109
      vertex 9.5 21 12
      vertex 13.25 21 9.03109
    endloop
  endfacet
  facet normal -0.309017 0.951057 -1.42561e-16
    outer loop
      vertex 15 21.4874 6
      vertex 13.5 21 8.59808
      vertex 13.5 21 12
    endloop
  endfacet
  facet normal -0.309017 0.951057 -1.42561e-16
    outer loop
      vertex 15 21.4874 6
      vertex 13.5 21 12
      vertex 15.2634 21.5729 12
    endloop
  endfacet
  facet normal -0.309017 0.951057 -1.42561e-16
    outer loop
      vertex 15 21.4874 6
      vertex 15.2634 21.5729 12
      vertex 15.2634 21.5729 0.4
    endloop
  endfacet
  facet normal -0.309017 0.951057 -1.42561e-16
    outer loop
      vertex 15 21.4874 6
      vertex 15.2634 21.5729 0.4
      vertex 13.5 21 3.40192
    endloop
  endfacet
  facet normal -0.309017 0.951057 -1.42561e-16
    outer loop
      vertex 15.2634 21.5729 0.4
      vertex 13.5 21 0.4
      vertex 13.5 21 3.40192
    endloop
  endfacet
  facet normal -0.809017 0.587785 4.91233e-17
    outer loop
      vertex 16.3532 23.0729 12
      vertex 16.3532 23.0729 0.4
      vertex 15.2634 21.5729 12
    endloop
  endfacet
  facet normal -0.809017 0.587785 4.91233e-17
    outer loop
      vertex 15.2634 21.5729 12
      vertex 16.3532 23.0729 0.4
      vertex 15.2634 21.5729 0.4
    endloop
  endfacet
  facet normal -1 3.44509e-16 2.22045e-16
    outer loop
      vertex 16.3532 24 12
      vertex 16.3532 24 0.4
      vertex 16.3532 23.0729 12
    endloop
  endfacet
  facet normal -1 3.44509e-16 2.22045e-16
    outer loop
      vertex 16.3532 23.0729 12
      vertex 16.3532 24 0.4
      vertex 16.3532 23.0729 0.4
    endloop
  endfacet
  facet normal 3.44509e-16 1 -2.22045e-16
    outer loop
      vertex 16.3532 24 0.4
      vertex 16.3532 24 12
      vertex 16.5 24 0.4
    endloop
  endfacet
  facet normal 3.44509e-16 1 -2.22045e-16
    outer loop
      vertex 16.5 24 0.4
      vertex 16.3532 24 12
      vertex 16.5 24 12
    endloop
  endfacet
  facet normal 2.44929e-16 1 -2.22045e-16
    outer loop
      vertex 10.4 18 7.90526
      vertex 9.75 18 9.03109
      vertex 11.5 18 8.2
    endloop
  endfacet
  facet normal 2.44929e-16 1 -2.22045e-16
    outer loop
      vertex 13.4053 18 4.9
      vertex 15 18 6
      vertex 13.25 18 2.96891
    endloop
  endfacet
  facet normal 2.44929e-16 1 -2.22045e-16
    outer loop
      vertex 10.4 18 4.09474
      vertex 13.25 18 2.96891
      vertex 9.75 18 2.96891
    endloop
  endfacet
  facet normal 2.44929e-16 1 -2.22045e-16
    outer loop
      vertex 9.59474 18 4.9
      vertex 9.75 18 2.96891
      vertex 8 18 6
    endloop
  endfacet
  facet normal 2.44929e-16 1 -2.22045e-16
    outer loop
      vertex 9.3 18 6
      vertex 9.59474 18 4.9
      vertex 8 18 6
    endloop
  endfacet
  facet normal 2.44929e-16 1 -2.22045e-16
    outer loop
      vertex 11.5 18 3.8
      vertex 13.25 18 2.96891
      vertex 10.4 18 4.09474
    endloop
  endfacet
  facet normal 2.44929e-16 1 -2.22045e-16
    outer loop
      vertex 13.4053 18 4.9
      vertex 13.25 18 2.96891
      vertex 12.6 18 4.09474
    endloop
  endfacet
  facet normal 2.44929e-16 1 -2.22045e-16
    outer loop
      vertex 12.6 18 4.09474
      vertex 13.25 18 2.96891
      vertex 11.5 18 3.8
    endloop
  endfacet
  facet normal 2.44929e-16 1 -2.22045e-16
    outer loop
      vertex 13.7 18 6
      vertex 15 18 6
      vertex 13.4053 18 4.9
    endloop
  endfacet
  facet normal 2.44929e-16 1 -2.22045e-16
    outer loop
      vertex 13.4053 18 7.1
      vertex 15 18 6
      vertex 13.7 18 6
    endloop
  endfacet
  facet normal 2.44929e-16 1 -2.22045e-16
    outer loop
      vertex 13.25 18 9.03109
      vertex 15 18 6
      vertex 13.4053 18 7.1
    endloop
  endfacet
  facet normal 2.44929e-16 1 -2.22045e-16
    outer loop
      vertex 13.25 18 9.03109
      vertex 13.4053 18 7.1
      vertex 12.6 18 7.90526
    endloop
  endfacet
  facet normal 2.44929e-16 1 -2.22045e-16
    outer loop
      vertex 13.25 18 9.03109
      vertex 12.6 18 7.90526
      vertex 9.75 18 9.03109
    endloop
  endfacet
  facet normal 2.44929e-16 1 -2.22045e-16
    outer loop
      vertex 12.6 18 7.90526
      vertex 11.5 18 8.2
      vertex 9.75 18 9.03109
    endloop
  endfacet
  facet normal 2.44929e-16 1 -2.22045e-16
    outer loop
      vertex 9.59474 18 7.1
      vertex 9.75 18 9.03109
      vertex 10.4 18 7.90526
    endloop
  endfacet
  facet normal 2.44929e-16 1 -2.22045e-16
    outer loop
      vertex 9.75 18 9.03109
      vertex 9.59474 18 7.1
      vertex 8 18 6
    endloop
  endfacet
  facet normal 2.44929e-16 1 -2.22045e-16
    outer loop
      vertex 9.59474 18 7.1
      vertex 9.3 18 6
      vertex 8 18 6
    endloop
  endfacet
  facet normal 2.44929e-16 1 -2.22045e-16
    outer loop
      vertex 10.4 18 4.09474
      vertex 9.75 18 2.96891
      vertex 9.59474 18 4.9
    endloop
  endfacet
  facet normal 1 -3.44509e-16 -2.22045e-16
    outer loop
      vertex 21.5 32 2.5
      vertex 21.5 35.0311 4.25
      vertex 21.5 35.0311 7.75
    endloop
  endfacet
  facet normal 1 -3.44509e-16 -2.22045e-16
    outer loop
      vertex 21.5 33.6168 5.47467
      vertex 21.5 32 2.5
      vertex 21.5 35.0311 7.75
    endloop
  endfacet
  facet normal 1 -3.44509e-16 -2.22045e-16
    outer loop
      vertex 21.5 32 9.5
      vertex 21.5 32 7.7
      vertex 21.5 35.0311 7.75
    endloop
  endfacet
  facet normal 1 -3.44509e-16 -2.22045e-16
    outer loop
      vertex 21.5 28.9689 4.25
      vertex 21.5 32 2.5
      vertex 21.5 28.9689 7.75
    endloop
  endfacet
  facet normal 1 -3.44509e-16 -2.22045e-16
    outer loop
      vertex 21.5 28.9689 7.75
      vertex 21.5 32 2.5
      vertex 21.5 30.3832 5.47467
    endloop
  endfacet
  facet normal 1 -3.44509e-16 -2.22045e-16
    outer loop
      vertex 21.5 28.9689 7.75
      vertex 21.5 30.3832 6.52533
      vertex 21.5 32 9.5
    endloop
  endfacet
  facet normal 1 -3.44509e-16 -2.22045e-16
    outer loop
      vertex 21.5 28.9689 7.75
      vertex 21.5 30.3832 5.47467
      vertex 21.5 30.3832 6.52533
    endloop
  endfacet
  facet normal 1 -3.44509e-16 -2.22045e-16
    outer loop
      vertex 21.5 30.3832 6.52533
      vertex 21.5 31.0008 7.37533
      vertex 21.5 32 9.5
    endloop
  endfacet
  facet normal 1 -3.44509e-16 -2.22045e-16
    outer loop
      vertex 21.5 32 7.7
      vertex 21.5 32.9992 7.37533
      vertex 21.5 35.0311 7.75
    endloop
  endfacet
  facet normal 1 -3.44509e-16 -2.22045e-16
    outer loop
      vertex 21.5 32.9992 7.37533
      vertex 21.5 33.6168 6.52533
      vertex 21.5 35.0311 7.75
    endloop
  endfacet
  facet normal 1 -3.44509e-16 -2.22045e-16
    outer loop
      vertex 21.5 33.6168 6.52533
      vertex 21.5 33.6168 5.47467
      vertex 21.5 35.0311 7.75
    endloop
  endfacet
  facet normal 1 -3.44509e-16 -2.22045e-16
    outer loop
      vertex 21.5 32.9992 4.62467
      vertex 21.5 32 2.5
      vertex 21.5 33.6168 5.47467
    endloop
  endfacet
  facet normal 1 -3.44509e-16 -2.22045e-16
    outer loop
      vertex 21.5 31.0008 4.62467
      vertex 21.5 32 2.5
      vertex 21.5 32 4.3
    endloop
  endfacet
  facet normal 1 -3.44509e-16 -2.22045e-16
    outer loop
      vertex 21.5 30.3832 5.47467
      vertex 21.5 32 2.5
      vertex 21.5 31.0008 4.62467
    endloop
  endfacet
  facet normal 1 -3.44509e-16 -2.22045e-16
    outer loop
      vertex 21.5 31.0008 7.37533
      vertex 21.5 32 7.7
      vertex 21.5 32 9.5
    endloop
  endfacet
  facet normal 1 -3.44509e-16 -2.22045e-16
    outer loop
      vertex 21.5 32.9992 4.62467
      vertex 21.5 32 4.3
      vertex 21.5 32 2.5
    endloop
  endfacet
  facet normal 4.09228e-16 0.809017 0.587785
    outer loop
      vertex 21.5 31.0008 4.62467
      vertex 16.5 31.0008 4.62467
      vertex 21.5 30.3832 5.47467
    endloop
  endfacet
  facet normal 4.09228e-16 0.809017 0.587785
    outer loop
      vertex 21.5 30.3832 5.47467
      vertex 16.5 31.0008 4.62467
      vertex 16.5 30.3832 5.47467
    endloop
  endfacet
  facet normal 3.44509e-16 1 -2.22045e-16
    outer loop
      vertex 21.5 30.3832 6.52533
      vertex 21.5 30.3832 5.47467
      vertex 16.5 30.3832 6.52533
    endloop
  endfacet
  facet normal 3.44509e-16 1 -2.22045e-16
    outer loop
      vertex 16.5 30.3832 6.52533
      vertex 21.5 30.3832 5.47467
      vertex 16.5 30.3832 5.47467
    endloop
  endfacet
  facet normal 1.48199e-16 0.809017 -0.587785
    outer loop
      vertex 21.5 31.0008 7.37533
      vertex 21.5 30.3832 6.52533
      vertex 16.5 31.0008 7.37533
    endloop
  endfacet
  facet normal 1.48199e-16 0.809017 -0.587785
    outer loop
      vertex 16.5 31.0008 7.37533
      vertex 21.5 30.3832 6.52533
      vertex 16.5 30.3832 6.52533
    endloop
  endfacet
  facet normal -1.04718e-16 0.309017 -0.951057
    outer loop
      vertex 21.5 32 7.7
      vertex 21.5 31.0008 7.37533
      vertex 16.5 32 7.7
    endloop
  endfacet
  facet normal -1.04718e-16 0.309017 -0.951057
    outer loop
      vertex 16.5 32 7.7
      vertex 21.5 31.0008 7.37533
      vertex 16.5 31.0008 7.37533
    endloop
  endfacet
  facet normal -3.17636e-16 -0.309017 -0.951057
    outer loop
      vertex 21.5 32.9992 7.37533
      vertex 21.5 32 7.7
      vertex 16.5 32.9992 7.37533
    endloop
  endfacet
  facet normal -3.17636e-16 -0.309017 -0.951057
    outer loop
      vertex 16.5 32.9992 7.37533
      vertex 21.5 32 7.7
      vertex 16.5 32 7.7
    endloop
  endfacet
  facet normal -4.09228e-16 -0.809017 -0.587785
    outer loop
      vertex 16.5 33.6168 6.52533
      vertex 21.5 33.6168 6.52533
      vertex 21.5 32.9992 7.37533
    endloop
  endfacet
  facet normal -4.09228e-16 -0.809017 -0.587785
    outer loop
      vertex 16.5 32.9992 7.37533
      vertex 16.5 33.6168 6.52533
      vertex 21.5 32.9992 7.37533
    endloop
  endfacet
  facet normal -3.44509e-16 -1 2.22045e-16
    outer loop
      vertex 21.5 33.6168 5.47467
      vertex 21.5 33.6168 6.52533
      vertex 16.5 33.6168 6.52533
    endloop
  endfacet
  facet normal -3.44509e-16 -1 2.22045e-16
    outer loop
      vertex 16.5 33.6168 5.47467
      vertex 21.5 33.6168 5.47467
      vertex 16.5 33.6168 6.52533
    endloop
  endfacet
  facet normal -1.48199e-16 -0.809017 0.587785
    outer loop
      vertex 21.5 32.9992 4.62467
      vertex 21.5 33.6168 5.47467
      vertex 16.5 33.6168 5.47467
    endloop
  endfacet
  facet normal -1.48199e-16 -0.809017 0.587785
    outer loop
      vertex 16.5 32.9992 4.62467
      vertex 21.5 32.9992 4.62467
      vertex 16.5 33.6168 5.47467
    endloop
  endfacet
  facet normal 1.04718e-16 -0.309017 0.951057
    outer loop
      vertex 21.5 32 4.3
      vertex 21.5 32.9992 4.62467
      vertex 16.5 32.9992 4.62467
    endloop
  endfacet
  facet normal 1.04718e-16 -0.309017 0.951057
    outer loop
      vertex 16.5 32 4.3
      vertex 21.5 32 4.3
      vertex 16.5 32.9992 4.62467
    endloop
  endfacet
  facet normal 3.17636e-16 0.309017 0.951057
    outer loop
      vertex 21.5 31.0008 4.62467
      vertex 21.5 32 4.3
      vertex 16.5 32 4.3
    endloop
  endfacet
  facet normal 3.17636e-16 0.309017 0.951057
    outer loop
      vertex 16.5 31.0008 4.62467
      vertex 21.5 31.0008 4.62467
      vertex 16.5 32 4.3
    endloop
  endfacet
  facet normal 1.22465e-16 1 -2.22045e-16
    outer loop
      vertex 13.5 21 0.4
      vertex 13.25 21 2.96891
      vertex 13.5 21 3.40192
    endloop
  endfacet
  facet normal 1.22465e-16 1 -2.22045e-16
    outer loop
      vertex 9.75 21 2.96891
      vertex 13.25 21 2.96891
      vertex 13.5 21 0.4
    endloop
  endfacet
  facet normal 1.22465e-16 1 -2.22045e-16
    outer loop
      vertex 9.75 21 2.96891
      vertex 13.5 21 0.4
      vertex 9.5 21 0.4
    endloop
  endfacet
  facet normal 1.22465e-16 1 -2.22045e-16
    outer loop
      vertex 9.75 21 2.96891
      vertex 9.5 21 0.4
      vertex 9.5 21 3.40192
    endloop
  endfacet
  facet normal 0.866025 -1.01093e-16 0.5
    outer loop
      vertex 9.75 18 2.96891
      vertex 9.75 21 2.96891
      vertex 9.5 21 3.40192
    endloop
  endfacet
  facet normal 0.866025 -1.01093e-16 0.5
    outer loop
      vertex 8 21.4874 6
      vertex 9.75 18 2.96891
      vertex 9.5 21 3.40192
    endloop
  endfacet
  facet normal 0.866025 -1.01093e-16 0.5
    outer loop
      vertex 8 21.4874 6
      vertex 8 18 6
      vertex 9.75 18 2.96891
    endloop
  endfacet
  facet normal 0.866025 -3.23137e-16 -0.5
    outer loop
      vertex 9.75 18 9.03109
      vertex 8 21.4874 6
      vertex 9.5 21 8.59808
    endloop
  endfacet
  facet normal 0.866025 -3.23137e-16 -0.5
    outer loop
      vertex 9.75 21 9.03109
      vertex 9.75 18 9.03109
      vertex 9.5 21 8.59808
    endloop
  endfacet
  facet normal 0.866025 -3.23137e-16 -0.5
    outer loop
      vertex 8 18 6
      vertex 8 21.4874 6
      vertex 9.75 18 9.03109
    endloop
  endfacet
  facet normal 0 -2.22045e-16 -1
    outer loop
      vertex 13.25 21 9.03109
      vertex 13.25 18 9.03109
      vertex 9.75 21 9.03109
    endloop
  endfacet
  facet normal 0 -2.22045e-16 -1
    outer loop
      vertex 9.75 21 9.03109
      vertex 13.25 18 9.03109
      vertex 9.75 18 9.03109
    endloop
  endfacet
  facet normal -0.866025 1.01093e-16 -0.5
    outer loop
      vertex 13.5 21 8.59808
      vertex 15 21.4874 6
      vertex 15 18 6
    endloop
  endfacet
  facet normal -0.866025 1.01093e-16 -0.5
    outer loop
      vertex 13.5 21 8.59808
      vertex 15 18 6
      vertex 13.25 21 9.03109
    endloop
  endfacet
  facet normal -0.866025 1.01093e-16 -0.5
    outer loop
      vertex 15 18 6
      vertex 13.25 18 9.03109
      vertex 13.25 21 9.03109
    endloop
  endfacet
  facet normal -0.866025 3.23137e-16 0.5
    outer loop
      vertex 15 21.4874 6
      vertex 13.5 21 3.40192
      vertex 15 18 6
    endloop
  endfacet
  facet normal -0.866025 3.23137e-16 0.5
    outer loop
      vertex 15 18 6
      vertex 13.5 21 3.40192
      vertex 13.25 21 2.96891
    endloop
  endfacet
  facet normal -0.866025 3.23137e-16 0.5
    outer loop
      vertex 15 18 6
      vertex 13.25 21 2.96891
      vertex 13.25 18 2.96891
    endloop
  endfacet
  facet normal 0 2.22045e-16 1
    outer loop
      vertex 13.25 18 2.96891
      vertex 13.25 21 2.96891
      vertex 9.75 21 2.96891
    endloop
  endfacet
  facet normal 0 2.22045e-16 1
    outer loop
      vertex 9.75 18 2.96891
      vertex 13.25 18 2.96891
      vertex 9.75 21 2.96891
    endloop
  endfacet
endsolid OpenSCAD_Model
